  0
SECTION
  2
HEADER
  9
$ACADVER
  1
AC1032
  9
$ACADMAINTVER
 90
4
  9
$DWGCODEPAGE
  3
ANSI_1250
  9
$LASTSAVEDBY
  1
stepa
  9
$REQUIREDVERSIONS
160
0
  9
$INSBASE
 10
0.0
 20
0.0
 30
0.0
  9
$EXTMIN
 10
-565503.956
 20
-1187941.566
 30
0.0
  9
$EXTMAX
 10
-565440.449
 20
-1187874.265
 30
0.0
  9
$LIMMIN
 10
0.0
 20
0.0
  9
$LIMMAX
 10
12.0
 20
9.0
  9
$ORTHOMODE
 70
0
  9
$REGENMODE
 70
1
  9
$FILLMODE
 70
1
  9
$QTEXTMODE
 70
0
  9
$MIRRTEXT
 70
0
  9
$LTSCALE
 40
1.0
  9
$ATTMODE
 70
1
  9
$TEXTSIZE
 40
0.7
  9
$TRACEWID
 40
0.05
  9
$TEXTSTYLE
  7
Standard
  9
$CLAYER
  8
Vrstva 1
  9
$CELTYPE
  6
Continuous
  9
$CECOLOR
 62
7
  9
$CELTSCALE
 40
1.0
  9
$DISPSILH
 70
0
  9
$DIMSCALE
 40
1.0
  9
$DIMASZ
 40
0.6
  9
$DIMEXO
 40
0.3
  9
$DIMDLI
 40
0.0
  9
$DIMRND
 40
0.0
  9
$DIMDLE
 40
0.0
  9
$DIMEXE
 40
0.3
  9
$DIMTP
 40
0.0
  9
$DIMTM
 40
0.0
  9
$DIMTXT
 40
0.6
  9
$DIMCEN
 40
0.0
  9
$DIMTSZ
 40
0.0
  9
$DIMTOL
 70
0
  9
$DIMLIM
 70
0
  9
$DIMTIH
 70
0
  9
$DIMTOH
 70
0
  9
$DIMSE1
 70
1
  9
$DIMSE2
 70
1
  9
$DIMTAD
 70
0
  9
$DIMZIN
 70
3
  9
$DIMBLK
  1
TerminatorOpen_0.5
  9
$DIMASO
 70
1
  9
$DIMSHO
 70
1
  9
$DIMPOST
  1

  9
$DIMAPOST
  1

  9
$DIMALT
 70
0
  9
$DIMALTD
 70
2
  9
$DIMALTF
 40
0.03937
  9
$DIMLFAC
 40
1.0
  9
$DIMTOFL
 70
0
  9
$DIMTVP
 40
0.0
  9
$DIMTIX
 70
0
  9
$DIMSOXD
 70
0
  9
$DIMSAH
 70
0
  9
$DIMBLK1
  1

  9
$DIMBLK2
  1

  9
$DIMSTYLE
  2
Standard
  9
$DIMCLRD
 70
4
  9
$DIMCLRE
 70
4
  9
$DIMCLRT
 70
0
  9
$DIMTFAC
 40
1.0
  9
$DIMGAP
 40
0.3
  9
$DIMJUST
 70
0
  9
$DIMSD1
 70
0
  9
$DIMSD2
 70
0
  9
$DIMTOLJ
 70
1
  9
$DIMTZIN
 70
3
  9
$DIMALTZ
 70
15
  9
$DIMALTTZ
 70
15
  9
$DIMUPT
 70
1
  9
$DIMDEC
 70
2
  9
$DIMTDEC
 70
0
  9
$DIMALTU
 70
2
  9
$DIMALTTD
 70
0
  9
$DIMTXSTY
  7
Style-cs_Working
  9
$DIMAUNIT
 70
0
  9
$DIMADEC
 70
4
  9
$DIMALTRND
 40
0.0
  9
$DIMAZIN
 70
3
  9
$DIMDSEP
 70
0
  9
$DIMATFIT
 70
1
  9
$DIMFRAC
 70
0
  9
$DIMLDRBLK
  1
TerminatorOpen_0.5
  9
$DIMLUNIT
 70
2
  9
$DIMLWD
 70
0
  9
$DIMLWE
 70
0
  9
$DIMTMOVE
 70
0
  9
$DIMFXL
 40
1.0
  9
$DIMFXLON
 70
0
  9
$DIMJOGANG
 40
0.785398
  9
$DIMTFILL
 70
0
  9
$DIMTFILLCLR
 70
0
  9
$DIMARCSYM
 70
0
  9
$DIMLTYPE
  6
Continuous
  9
$DIMLTEX1
  6
Continuous
  9
$DIMLTEX2
  6
Continuous
  9
$DIMTXTDIRECTION
 70
0
  9
$LUNITS
 70
2
  9
$LUPREC
 70
3
  9
$SKETCHINC
 40
0.1
  9
$FILLETRAD
 40
0.0
  9
$AUNITS
 70
0
  9
$AUPREC
 70
2
  9
$MENU
  1
.
  9
$ELEVATION
 40
0.0
  9
$PELEVATION
 40
0.0
  9
$THICKNESS
 40
0.0
  9
$LIMCHECK
 70
0
  9
$CHAMFERA
 40
0.0
  9
$CHAMFERB
 40
0.0
  9
$CHAMFERC
 40
0.0
  9
$CHAMFERD
 40
0.0
  9
$SKPOLY
 70
0
  9
$TDCREATE
 40
2461312.9044791665
  9
$TDUCREATE
 40
2454144.778024017
  9
$TDUPDATE
 40
2461312.9044791665
  9
$TDUUPDATE
 40
2455656.810845671
  9
$TDINDWG
 40
0.0041723958
  9
$TDUSRTIMER
 40
0.0041722106
  9
$USRTIMER
 70
1
  9
$ANGBASE
 50
0.0
  9
$ANGDIR
 70
0
  9
$PDMODE
 70
0
  9
$PDSIZE
 40
0.0
  9
$PLINEWID
 40
0.0
  9
$SPLFRAME
 70
0
  9
$SPLINETYPE
 70
6
  9
$SPLINESEGS
 70
8
  9
$HANDSEED
  5
2AEF
  9
$SURFTAB1
 70
6
  9
$SURFTAB2
 70
6
  9
$SURFTYPE
 70
6
  9
$SURFU
 70
6
  9
$SURFV
 70
6
  9
$UCSBASE
  2

  9
$UCSNAME
  2

  9
$UCSORG
 10
0.0
 20
0.0
 30
0.0
  9
$UCSXDIR
 10
1.0
 20
0.0
 30
0.0
  9
$UCSYDIR
 10
0.0
 20
1.0
 30
0.0
  9
$UCSORTHOREF
  2

  9
$UCSORTHOVIEW
 70
0
  9
$UCSORGTOP
 10
0.0
 20
0.0
 30
0.0
  9
$UCSORGBOTTOM
 10
0.0
 20
0.0
 30
0.0
  9
$UCSORGLEFT
 10
0.0
 20
0.0
 30
0.0
  9
$UCSORGRIGHT
 10
0.0
 20
0.0
 30
0.0
  9
$UCSORGFRONT
 10
0.0
 20
0.0
 30
0.0
  9
$UCSORGBACK
 10
0.0
 20
0.0
 30
0.0
  9
$PUCSBASE
  2

  9
$PUCSNAME
  2

  9
$PUCSORG
 10
0.0
 20
0.0
 30
0.0
  9
$PUCSXDIR
 10
1.0
 20
0.0
 30
0.0
  9
$PUCSYDIR
 10
0.0
 20
1.0
 30
0.0
  9
$PUCSORTHOREF
  2

  9
$PUCSORTHOVIEW
 70
0
  9
$PUCSORGTOP
 10
0.0
 20
0.0
 30
0.0
  9
$PUCSORGBOTTOM
 10
0.0
 20
0.0
 30
0.0
  9
$PUCSORGLEFT
 10
0.0
 20
0.0
 30
0.0
  9
$PUCSORGRIGHT
 10
0.0
 20
0.0
 30
0.0
  9
$PUCSORGFRONT
 10
0.0
 20
0.0
 30
0.0
  9
$PUCSORGBACK
 10
0.0
 20
0.0
 30
0.0
  9
$USERI1
 70
0
  9
$USERI2
 70
0
  9
$USERI3
 70
0
  9
$USERI4
 70
0
  9
$USERI5
 70
0
  9
$USERR1
 40
0.0
  9
$USERR2
 40
0.0
  9
$USERR3
 40
0.0
  9
$USERR4
 40
0.0
  9
$USERR5
 40
0.0
  9
$WORLDVIEW
 70
1
  9
$SHADEDGE
 70
3
  9
$SHADEDIF
 70
70
  9
$TILEMODE
 70
1
  9
$MAXACTVP
 70
64
  9
$PINSBASE
 10
0.0
 20
0.0
 30
0.0
  9
$PLIMCHECK
 70
0
  9
$PEXTMIN
 10
1.05
 20
0.8
 30
0.0
  9
$PEXTMAX
 10
9.45
 20
7.2
 30
0.0
  9
$PLIMMIN
 10
-0.25
 20
-0.25
  9
$PLIMMAX
 10
10.75
 20
8.25
  9
$UNITMODE
 70
0
  9
$VISRETAIN
 70
1
  9
$PLINEGEN
 70
0
  9
$PSLTSCALE
 70
0
  9
$TREEDEPTH
 70
3020
  9
$CMLSTYLE
  2
Standard
  9
$CMLJUST
 70
0
  9
$CMLSCALE
 40
1.0
  9
$PROXYGRAPHICS
 70
1
  9
$MEASUREMENT
 70
0
  9
$CELWEIGHT
370
0
  9
$ENDCAPS
280
0
  9
$JOINSTYLE
280
0
  9
$LWDISPLAY
290
1
  9
$INSUNITS
 70
6
  9
$HYPERLINKBASE
  1

  9
$STYLESHEET
  1

  9
$XEDIT
290
1
  9
$CEPSNTYPE
380
0
  9
$PSTYLEMODE
290
1
  9
$FINGERPRINTGUID
  2
{A1D33D08-E590-644C-9D22-EFEFE1ACBD7D}
  9
$VERSIONGUID
  2
{20646365-23F6-41FF-9A43-EA90F67065F9}
  9
$EXTNAMES
290
1
  9
$PSVPSCALE
 40
0.0
  9
$OLESTARTUP
290
0
  9
$SORTENTS
280
127
  9
$INDEXCTL
280
0
  9
$HIDETEXT
280
1
  9
$XCLIPFRAME
280
0
  9
$HALOGAP
280
0
  9
$OBSCOLOR
 70
257
  9
$OBSLTYPE
280
0
  9
$INTERSECTIONDISPLAY
280
0
  9
$INTERSECTIONCOLOR
 70
257
  9
$DIMASSOC
280
1
  9
$PROJECTNAME
  1

  9
$CAMERADISPLAY
290
0
  9
$LENSLENGTH
 40
50.0
  9
$CAMERAHEIGHT
 40
0.0
  9
$STEPSPERSEC
 40
2.0
  9
$STEPSIZE
 40
6.0
  9
$3DDWFPREC
 40
2.0
  9
$PSOLWIDTH
 40
0.25
  9
$PSOLHEIGHT
 40
4.0
  9
$LOFTANG1
 40
1.570796
  9
$LOFTANG2
 40
1.570796
  9
$LOFTMAG1
 40
0.0
  9
$LOFTMAG2
 40
0.0
  9
$LOFTPARAM
 70
7
  9
$LOFTNORMALS
280
1
  9
$LATITUDE
 40
37.795
  9
$LONGITUDE
 40
-122.394
  9
$NORTHDIRECTION
 40
0.0
  9
$TIMEZONE
 70
-8000
  9
$LIGHTGLYPHDISPLAY
280
1
  9
$TILEMODELIGHTSYNCH
280
1
  9
$CMATERIAL
347
2A3E
  9
$SOLIDHIST
280
1
  9
$SHOWHIST
280
1
  9
$DWFFRAME
280
2
  9
$DGNFRAME
280
0
  9
$REALWORLDSCALE
290
1
  9
$INTERFERECOLOR
 62
1
  9
$INTERFEREOBJVS
345
2A60
  9
$INTERFEREVPVS
346
2A61
  9
$CSHADOW
280
0
  9
$SHADOWPLANELOCATION
 40
0.0
  0
ENDSEC
  0
SECTION
  2
CLASSES
  0
CLASS
  1
ACDBDICTIONARYWDFLT
  2
AcDbDictionaryWithDefault
  3
ObjectDBX Classes
 90
0
 91
1
280
0
281
0
  0
CLASS
  1
DICTIONARYVAR
  2
AcDbDictionaryVar
  3
ObjectDBX Classes
 90
0
 91
11
280
0
281
0
  0
CLASS
  1
TABLESTYLE
  2
AcDbTableStyle
  3
ObjectDBX Classes
 90
4095
 91
1
280
0
281
0
  0
CLASS
  1
MATERIAL
  2
AcDbMaterial
  3
ObjectDBX Classes
 90
1153
 91
3
280
0
281
0
  0
CLASS
  1
VISUALSTYLE
  2
AcDbVisualStyle
  3
ObjectDBX Classes
 90
4095
 91
3
280
0
281
0
  0
CLASS
  1
SCALE
  2
AcDbScale
  3
ObjectDBX Classes
 90
1153
 91
33
280
0
281
0
  0
CLASS
  1
MLEADERSTYLE
  2
AcDbMLeaderStyle
  3
ACDB_MLEADERSTYLE_CLASS
 90
4095
 91
1
280
0
281
0
  0
CLASS
  1
EXACXREFPANELOBJECT
  2
ExAcXREFPanelObject
  3
EXAC_ESW
 90
1025
 91
0
280
1
281
0
  0
CLASS
  1
NPOCOLLECTION
  2
AcDbImpNonPersistentObjectsCollection
  3
ObjectDBX Classes
 90
1153
 91
0
280
0
281
0
  0
CLASS
  1
CELLSTYLEMAP
  2
AcDbCellStyleMap
  3
ObjectDBX Classes
 90
1152
 91
1
280
0
281
0
  0
CLASS
  1
ACDBSECTIONVIEWSTYLE
  2
AcDbSectionViewStyle
  3
ObjectDBX Classes
 90
1025
 91
0
280
0
281
0
  0
CLASS
  1
ACDBDETAILVIEWSTYLE
  2
AcDbDetailViewStyle
  3
ObjectDBX Classes
 90
1025
 91
0
280
0
281
0
  0
CLASS
  1
SUN
  2
AcDbSun
  3
SCENEOE
 90
1153
 91
0
280
0
281
0
  0
CLASS
  1
MENTALRAYRENDERSETTINGS
  2
AcDbMentalRayRenderSettings
  3
SCENEOE
 90
1024
 91
0
280
0
281
0
  0
CLASS
  1
RASTERVARIABLES
  2
AcDbRasterVariables
  3
ISM
 90
0
 91
0
280
0
281
0
  0
CLASS
  1
ACDBPLACEHOLDER
  2
AcDbPlaceHolder
  3
ObjectDBX Classes
 90
0
 91
0
280
0
281
0
  0
CLASS
  1
LAYOUT
  2
AcDbLayout
  3
ObjectDBX Classes
 90
0
 91
0
280
0
281
0
  0
ENDSEC
  0
SECTION
  2
TABLES
  0
TABLE
  2
VPORT
  5
2A32
330
0
100
AcDbSymbolTable
 70
1
  0
VPORT
  5
4B
330
2A32
100
AcDbSymbolTableRecord
100
AcDbViewportTableRecord
  2
*ACTIVE
 70
0
 10
0.0
 20
0.0
 11
1.0
 21
1.0
 12
-565472.202528
 22
-1187907.915128
 13
0.0
 23
0.0
 14
0.01
 24
0.01
 15
1.0
 25
1.0
 16
0.0
 26
0.0
 36
1.0
 17
0.0
 27
0.0
 37
0.0
 40
69.992267
 41
2.138533
 42
50.0
 43
0.0
 44
0.0
 50
0.0
 51
0.0
 71
0
 72
20000
 73
1
 74
0
 75
0
 76
0
 77
0
 78
1
281
0
 65
1
110
0.0
120
0.0
130
0.0
111
-1.0
121
1e-16
131
0.0
112
-1e-16
122
-1.0
132
0.0
 79
0
146
0.0
 60
3
 61
10
292
0
282
1
141
0.0
142
0.0
 63
7
421
16777215
  0
ENDTAB
  0
TABLE
  2
LTYPE
  5
2A2D
330
0
100
AcDbSymbolTable
 70
7
  0
LTYPE
  5
2A2E
330
2A2D
100
AcDbSymbolTableRecord
100
AcDbLinetypeTableRecord
  2
ByBlock
 70
0
  3

 72
65
 73
0
 40
0.0
  0
LTYPE
  5
2A2F
330
2A2D
100
AcDbSymbolTableRecord
100
AcDbLinetypeTableRecord
  2
ByLayer
 70
0
  3

 72
65
 73
0
 40
0.0
  0
LTYPE
  5
2A1A
330
2A2D
100
AcDbSymbolTableRecord
100
AcDbLinetypeTableRecord
  2
Continuous
 70
0
  3
Solid line
 72
65
 73
0
 40
0.0
  0
LTYPE
  5
2A94
330
2A2D
100
AcDbSymbolTableRecord
100
AcDbLinetypeTableRecord
  2
2.103
 70
0
  3
Dreveny plot, vlastnictvi z jedne strany
 72
65
 73
2
 40
10.0
 49
5.0
 74
0
 49
5.0
 74
0
  0
LTYPE
  5
2A95
330
2A2D
100
AcDbSymbolTableRecord
100
AcDbLinetypeTableRecord
  2
2.163
 70
0
  3
Ohradni zed, vlastnictvi z jedne strany
 72
65
 73
2
 40
10.0
 49
5.0
 74
0
 49
5.0
 74
0
  0
LTYPE
  5
2A96
330
2A2D
100
AcDbSymbolTableRecord
100
AcDbLinetypeTableRecord
  2
DGN Style 2
 70
0
  3
Dgn Style 2
 72
65
 73
2
 40
1.496808
 49
0.898085
 74
0
 49
-0.598723
 74
0
  0
LTYPE
  5
2A97
330
2A2D
100
AcDbSymbolTableRecord
100
AcDbLinetypeTableRecord
  2
DGN Style 4
 70
0
  3
Dgn Style 4
 72
65
 73
4
 40
2.396389
 49
1.197446
 74
0
 49
-0.598723
 74
0
 49
0.001497
 74
0
 49
-0.598723
 74
0
  0
ENDTAB
  0
TABLE
  2
LAYER
  5
2A27
102
{ACAD_XDICTIONARY
360
2A28
102
}
330
0
100
AcDbSymbolTable
 70
68
  0
LAYER
  5
2A0B
102
{ACAD_XDICTIONARY
360
2A0C
102
}
330
2A27
100
AcDbSymbolTableRecord
100
AcDbLayerTableRecord
  2
0
 70
0
 62
7
  6
Continuous
370
-3
390
2A0E
347
2A11
348
0
1001
AcCmTransparency
1071
33554687
  0
LAYER
  5
6
330
2A27
100
AcDbSymbolTableRecord
100
AcDbLayerTableRecord
  2
Vrstva 1
 70
0
 62
7
  6
Continuous
370
0
390
2A0E
347
2A11
348
0
1001
AcCmTransparency
1071
33554687
  0
LAYER
  5
7
330
2A27
100
AcDbSymbolTableRecord
100
AcDbLayerTableRecord
  2
Vrstva 2
 70
0
 62
7
  6
Continuous
370
0
390
2A0E
347
2A11
348
0
1001
AcCmTransparency
1071
33554687
  0
LAYER
  5
8
330
2A27
100
AcDbSymbolTableRecord
100
AcDbLayerTableRecord
  2
Vrstva 3
 70
0
 62
7
  6
Continuous
370
0
390
2A0E
347
2A11
348
0
1001
AcCmTransparency
1071
33554687
  0
LAYER
  5
9
330
2A27
100
AcDbSymbolTableRecord
100
AcDbLayerTableRecord
  2
Vrstva 4
 70
0
 62
7
  6
Continuous
370
0
390
2A0E
347
2A11
348
0
1001
AcCmTransparency
1071
33554687
  0
LAYER
  5
A
330
2A27
100
AcDbSymbolTableRecord
100
AcDbLayerTableRecord
  2
Vrstva 5
 70
0
 62
7
  6
Continuous
370
0
390
2A0E
347
2A11
348
0
1001
AcCmTransparency
1071
33554687
  0
LAYER
  5
B
330
2A27
100
AcDbSymbolTableRecord
100
AcDbLayerTableRecord
  2
Vrstva 6
 70
0
 62
7
  6
Continuous
370
0
390
2A0E
347
2A11
348
0
1001
AcCmTransparency
1071
33554687
  0
LAYER
  5
C
330
2A27
100
AcDbSymbolTableRecord
100
AcDbLayerTableRecord
  2
Vrstva 7
 70
0
 62
7
  6
Continuous
370
0
390
2A0E
347
2A11
348
0
1001
AcCmTransparency
1071
33554687
  0
LAYER
  5
D
330
2A27
100
AcDbSymbolTableRecord
100
AcDbLayerTableRecord
  2
Vrstva 8
 70
0
 62
7
  6
Continuous
370
0
390
2A0E
347
2A11
348
0
1001
AcCmTransparency
1071
33554687
  0
LAYER
  5
E
330
2A27
100
AcDbSymbolTableRecord
100
AcDbLayerTableRecord
  2
Vrstva 9
 70
0
 62
7
  6
Continuous
370
0
390
2A0E
347
2A11
348
0
1001
AcCmTransparency
1071
33554687
  0
LAYER
  5
F
330
2A27
100
AcDbSymbolTableRecord
100
AcDbLayerTableRecord
  2
Vrstva 10
 70
0
 62
7
  6
Continuous
370
0
390
2A0E
347
2A11
348
0
1001
AcCmTransparency
1071
33554687
  0
LAYER
  5
10
330
2A27
100
AcDbSymbolTableRecord
100
AcDbLayerTableRecord
  2
Vrstva 11
 70
0
 62
7
  6
Continuous
370
0
390
2A0E
347
2A11
348
0
1001
AcCmTransparency
1071
33554687
  0
LAYER
  5
11
330
2A27
100
AcDbSymbolTableRecord
100
AcDbLayerTableRecord
  2
Vrstva 12
 70
0
 62
7
  6
Continuous
370
0
390
2A0E
347
2A11
348
0
1001
AcCmTransparency
1071
33554687
  0
LAYER
  5
12
330
2A27
100
AcDbSymbolTableRecord
100
AcDbLayerTableRecord
  2
Vrstva 13
 70
0
 62
7
  6
Continuous
370
0
390
2A0E
347
2A11
348
0
1001
AcCmTransparency
1071
33554687
  0
LAYER
  5
13
330
2A27
100
AcDbSymbolTableRecord
100
AcDbLayerTableRecord
  2
Vrstva 14
 70
0
 62
7
  6
Continuous
370
0
390
2A0E
347
2A11
348
0
1001
AcCmTransparency
1071
33554687
  0
LAYER
  5
14
330
2A27
100
AcDbSymbolTableRecord
100
AcDbLayerTableRecord
  2
Vrstva 15
 70
0
 62
7
  6
Continuous
370
0
390
2A0E
347
2A11
348
0
1001
AcCmTransparency
1071
33554687
  0
LAYER
  5
15
330
2A27
100
AcDbSymbolTableRecord
100
AcDbLayerTableRecord
  2
Vrstva 16
 70
0
 62
7
  6
Continuous
370
0
390
2A0E
347
2A11
348
0
1001
AcCmTransparency
1071
33554687
  0
LAYER
  5
16
330
2A27
100
AcDbSymbolTableRecord
100
AcDbLayerTableRecord
  2
Vrstva 17
 70
0
 62
7
  6
Continuous
370
0
390
2A0E
347
2A11
348
0
1001
AcCmTransparency
1071
33554687
  0
LAYER
  5
17
330
2A27
100
AcDbSymbolTableRecord
100
AcDbLayerTableRecord
  2
Vrstva 18
 70
0
 62
7
  6
Continuous
370
0
390
2A0E
347
2A11
348
0
1001
AcCmTransparency
1071
33554687
  0
LAYER
  5
18
330
2A27
100
AcDbSymbolTableRecord
100
AcDbLayerTableRecord
  2
Vrstva 19
 70
0
 62
7
  6
Continuous
370
0
390
2A0E
347
2A11
348
0
1001
AcCmTransparency
1071
33554687
  0
LAYER
  5
19
330
2A27
100
AcDbSymbolTableRecord
100
AcDbLayerTableRecord
  2
Vrstva 20
 70
0
 62
7
  6
Continuous
370
0
390
2A0E
347
2A11
348
0
1001
AcCmTransparency
1071
33554687
  0
LAYER
  5
1A
330
2A27
100
AcDbSymbolTableRecord
100
AcDbLayerTableRecord
  2
Vrstva 21
 70
0
 62
7
  6
Continuous
370
0
390
2A0E
347
2A11
348
0
1001
AcCmTransparency
1071
33554687
  0
LAYER
  5
1B
330
2A27
100
AcDbSymbolTableRecord
100
AcDbLayerTableRecord
  2
Vrstva 22
 70
0
 62
7
  6
Continuous
370
0
390
2A0E
347
2A11
348
0
1001
AcCmTransparency
1071
33554687
  0
LAYER
  5
1C
330
2A27
100
AcDbSymbolTableRecord
100
AcDbLayerTableRecord
  2
Vrstva 23
 70
0
 62
7
  6
Continuous
370
0
390
2A0E
347
2A11
348
0
1001
AcCmTransparency
1071
33554687
  0
LAYER
  5
1D
330
2A27
100
AcDbSymbolTableRecord
100
AcDbLayerTableRecord
  2
Vrstva 24
 70
0
 62
7
  6
Continuous
370
0
390
2A0E
347
2A11
348
0
1001
AcCmTransparency
1071
33554687
  0
LAYER
  5
1E
330
2A27
100
AcDbSymbolTableRecord
100
AcDbLayerTableRecord
  2
Vrstva 25
 70
0
 62
7
  6
Continuous
370
0
390
2A0E
347
2A11
348
0
1001
AcCmTransparency
1071
33554687
  0
LAYER
  5
1F
330
2A27
100
AcDbSymbolTableRecord
100
AcDbLayerTableRecord
  2
Vrstva 26
 70
0
 62
7
  6
Continuous
370
0
390
2A0E
347
2A11
348
0
1001
AcCmTransparency
1071
33554687
  0
LAYER
  5
20
330
2A27
100
AcDbSymbolTableRecord
100
AcDbLayerTableRecord
  2
Vrstva 27
 70
0
 62
7
  6
Continuous
370
0
390
2A0E
347
2A11
348
0
1001
AcCmTransparency
1071
33554687
  0
LAYER
  5
21
330
2A27
100
AcDbSymbolTableRecord
100
AcDbLayerTableRecord
  2
Vrstva 28
 70
0
 62
7
  6
Continuous
370
0
390
2A0E
347
2A11
348
0
1001
AcCmTransparency
1071
33554687
  0
LAYER
  5
22
330
2A27
100
AcDbSymbolTableRecord
100
AcDbLayerTableRecord
  2
Vrstva 29
 70
0
 62
7
  6
Continuous
370
0
390
2A0E
347
2A11
348
0
1001
AcCmTransparency
1071
33554687
  0
LAYER
  5
23
330
2A27
100
AcDbSymbolTableRecord
100
AcDbLayerTableRecord
  2
Vrstva 30
 70
0
 62
7
  6
Continuous
370
0
390
2A0E
347
2A11
348
0
1001
AcCmTransparency
1071
33554687
  0
LAYER
  5
24
330
2A27
100
AcDbSymbolTableRecord
100
AcDbLayerTableRecord
  2
Vrstva 31
 70
0
 62
7
  6
Continuous
370
0
390
2A0E
347
2A11
348
0
1001
AcCmTransparency
1071
33554687
  0
LAYER
  5
25
330
2A27
100
AcDbSymbolTableRecord
100
AcDbLayerTableRecord
  2
Vrstva 32
 70
0
 62
7
  6
Continuous
370
0
390
2A0E
347
2A11
348
0
1001
AcCmTransparency
1071
33554687
  0
LAYER
  5
26
330
2A27
100
AcDbSymbolTableRecord
100
AcDbLayerTableRecord
  2
Vrstva 33
 70
0
 62
7
  6
Continuous
370
0
390
2A0E
347
2A11
348
0
1001
AcCmTransparency
1071
33554687
  0
LAYER
  5
27
330
2A27
100
AcDbSymbolTableRecord
100
AcDbLayerTableRecord
  2
Vrstva 34
 70
0
 62
7
  6
Continuous
370
0
390
2A0E
347
2A11
348
0
1001
AcCmTransparency
1071
33554687
  0
LAYER
  5
28
330
2A27
100
AcDbSymbolTableRecord
100
AcDbLayerTableRecord
  2
Vrstva 35
 70
0
 62
7
  6
Continuous
370
0
390
2A0E
347
2A11
348
0
1001
AcCmTransparency
1071
33554687
  0
LAYER
  5
29
330
2A27
100
AcDbSymbolTableRecord
100
AcDbLayerTableRecord
  2
Vrstva 36
 70
0
 62
7
  6
Continuous
370
0
390
2A0E
347
2A11
348
0
1001
AcCmTransparency
1071
33554687
  0
LAYER
  5
2A
330
2A27
100
AcDbSymbolTableRecord
100
AcDbLayerTableRecord
  2
Vrstva 37
 70
0
 62
7
  6
Continuous
370
0
390
2A0E
347
2A11
348
0
1001
AcCmTransparency
1071
33554687
  0
LAYER
  5
2B
330
2A27
100
AcDbSymbolTableRecord
100
AcDbLayerTableRecord
  2
Vrstva 38
 70
0
 62
7
  6
Continuous
370
0
390
2A0E
347
2A11
348
0
1001
AcCmTransparency
1071
33554687
  0
LAYER
  5
2C
330
2A27
100
AcDbSymbolTableRecord
100
AcDbLayerTableRecord
  2
Vrstva 39
 70
0
 62
7
  6
Continuous
370
0
390
2A0E
347
2A11
348
0
1001
AcCmTransparency
1071
33554687
  0
LAYER
  5
2D
330
2A27
100
AcDbSymbolTableRecord
100
AcDbLayerTableRecord
  2
Vrstva 40
 70
0
 62
7
  6
Continuous
370
0
390
2A0E
347
2A11
348
0
1001
AcCmTransparency
1071
33554687
  0
LAYER
  5
2E
330
2A27
100
AcDbSymbolTableRecord
100
AcDbLayerTableRecord
  2
Vrstva 41
 70
0
 62
7
  6
Continuous
370
0
390
2A0E
347
2A11
348
0
1001
AcCmTransparency
1071
33554687
  0
LAYER
  5
2F
330
2A27
100
AcDbSymbolTableRecord
100
AcDbLayerTableRecord
  2
Vrstva 42
 70
0
 62
7
  6
Continuous
370
0
390
2A0E
347
2A11
348
0
1001
AcCmTransparency
1071
33554687
  0
LAYER
  5
30
330
2A27
100
AcDbSymbolTableRecord
100
AcDbLayerTableRecord
  2
Vrstva 43
 70
0
 62
7
  6
Continuous
370
0
390
2A0E
347
2A11
348
0
1001
AcCmTransparency
1071
33554687
  0
LAYER
  5
31
330
2A27
100
AcDbSymbolTableRecord
100
AcDbLayerTableRecord
  2
Vrstva 44
 70
0
 62
7
  6
Continuous
370
0
390
2A0E
347
2A11
348
0
1001
AcCmTransparency
1071
33554687
  0
LAYER
  5
32
330
2A27
100
AcDbSymbolTableRecord
100
AcDbLayerTableRecord
  2
Vrstva 45
 70
0
 62
7
  6
Continuous
370
0
390
2A0E
347
2A11
348
0
1001
AcCmTransparency
1071
33554687
  0
LAYER
  5
33
330
2A27
100
AcDbSymbolTableRecord
100
AcDbLayerTableRecord
  2
Vrstva 46
 70
0
 62
7
  6
Continuous
370
0
390
2A0E
347
2A11
348
0
1001
AcCmTransparency
1071
33554687
  0
LAYER
  5
34
330
2A27
100
AcDbSymbolTableRecord
100
AcDbLayerTableRecord
  2
Vrstva 47
 70
0
 62
7
  6
Continuous
370
0
390
2A0E
347
2A11
348
0
1001
AcCmTransparency
1071
33554687
  0
LAYER
  5
35
330
2A27
100
AcDbSymbolTableRecord
100
AcDbLayerTableRecord
  2
Vrstva 48
 70
0
 62
7
  6
Continuous
370
0
390
2A0E
347
2A11
348
0
1001
AcCmTransparency
1071
33554687
  0
LAYER
  5
36
330
2A27
100
AcDbSymbolTableRecord
100
AcDbLayerTableRecord
  2
Vrstva 49
 70
0
 62
7
  6
Continuous
370
0
390
2A0E
347
2A11
348
0
1001
AcCmTransparency
1071
33554687
  0
LAYER
  5
37
330
2A27
100
AcDbSymbolTableRecord
100
AcDbLayerTableRecord
  2
Vrstva 50
 70
0
 62
7
  6
Continuous
370
0
390
2A0E
347
2A11
348
0
1001
AcCmTransparency
1071
33554687
  0
LAYER
  5
38
330
2A27
100
AcDbSymbolTableRecord
100
AcDbLayerTableRecord
  2
Vrstva 51
 70
0
 62
7
  6
Continuous
370
0
390
2A0E
347
2A11
348
0
1001
AcCmTransparency
1071
33554687
  0
LAYER
  5
39
330
2A27
100
AcDbSymbolTableRecord
100
AcDbLayerTableRecord
  2
Vrstva 52
 70
0
 62
7
  6
Continuous
370
0
390
2A0E
347
2A11
348
0
1001
AcCmTransparency
1071
33554687
  0
LAYER
  5
3A
330
2A27
100
AcDbSymbolTableRecord
100
AcDbLayerTableRecord
  2
Vrstva 53
 70
0
 62
7
  6
Continuous
370
0
390
2A0E
347
2A11
348
0
1001
AcCmTransparency
1071
33554687
  0
LAYER
  5
3B
330
2A27
100
AcDbSymbolTableRecord
100
AcDbLayerTableRecord
  2
Vrstva 54
 70
0
 62
7
  6
Continuous
370
0
390
2A0E
347
2A11
348
0
1001
AcCmTransparency
1071
33554687
  0
LAYER
  5
3C
330
2A27
100
AcDbSymbolTableRecord
100
AcDbLayerTableRecord
  2
Vrstva 55
 70
0
 62
7
  6
Continuous
370
0
390
2A0E
347
2A11
348
0
1001
AcCmTransparency
1071
33554687
  0
LAYER
  5
3D
330
2A27
100
AcDbSymbolTableRecord
100
AcDbLayerTableRecord
  2
Vrstva 56
 70
0
 62
7
  6
Continuous
370
0
390
2A0E
347
2A11
348
0
1001
AcCmTransparency
1071
33554687
  0
LAYER
  5
3E
330
2A27
100
AcDbSymbolTableRecord
100
AcDbLayerTableRecord
  2
Vrstva 57
 70
0
 62
7
  6
Continuous
370
0
390
2A0E
347
2A11
348
0
1001
AcCmTransparency
1071
33554687
  0
LAYER
  5
3F
330
2A27
100
AcDbSymbolTableRecord
100
AcDbLayerTableRecord
  2
Vrstva 58
 70
0
 62
7
  6
Continuous
370
0
390
2A0E
347
2A11
348
0
1001
AcCmTransparency
1071
33554687
  0
LAYER
  5
40
330
2A27
100
AcDbSymbolTableRecord
100
AcDbLayerTableRecord
  2
Vrstva 59
 70
0
 62
7
  6
Continuous
370
0
390
2A0E
347
2A11
348
0
1001
AcCmTransparency
1071
33554687
  0
LAYER
  5
41
330
2A27
100
AcDbSymbolTableRecord
100
AcDbLayerTableRecord
  2
Vrstva 60
 70
0
 62
7
  6
Continuous
370
0
390
2A0E
347
2A11
348
0
1001
AcCmTransparency
1071
33554687
  0
LAYER
  5
42
330
2A27
100
AcDbSymbolTableRecord
100
AcDbLayerTableRecord
  2
Vrstva 61
 70
0
 62
7
  6
Continuous
370
0
390
2A0E
347
2A11
348
0
1001
AcCmTransparency
1071
33554687
  0
LAYER
  5
43
330
2A27
100
AcDbSymbolTableRecord
100
AcDbLayerTableRecord
  2
Vrstva 62
 70
0
 62
7
  6
Continuous
370
0
390
2A0E
347
2A11
348
0
1001
AcCmTransparency
1071
33554687
  0
LAYER
  5
44
330
2A27
100
AcDbSymbolTableRecord
100
AcDbLayerTableRecord
  2
Vrstva 63
 70
0
 62
7
  6
Continuous
370
0
390
2A0E
347
2A11
348
0
1001
AcCmTransparency
1071
33554687
  0
LAYER
  5
E7
330
2A27
100
AcDbSymbolTableRecord
100
AcDbLayerTableRecord
  2
podrobných bodů polohopisu
 70
0
 62
7
  6
Continuous
370
0
390
2A0E
347
2A11
348
0
1001
AcCmTransparency
1071
33554687
  0
LAYER
  5
A1
330
2A27
100
AcDbSymbolTableRecord
100
AcDbLayerTableRecord
  2
body polohopisu
 70
0
 62
7
  6
Continuous
370
0
390
2A0E
347
2A11
348
0
1001
AcCmTransparency
1071
33554687
  0
LAYER
  5
12C
330
2A27
100
AcDbSymbolTableRecord
100
AcDbLayerTableRecord
  2
výška podrobných bodů polohopisu
 70
0
 62
7
  6
Continuous
370
0
390
2A0E
347
2A11
348
0
1001
AcCmTransparency
1071
33554687
  0
LAYER
  5
2AEA
330
2A27
100
AcDbSymbolTableRecord
100
AcDbLayerTableRecord
  2
Defpoints
 70
0
 62
7
  6
Continuous
290
0
370
-3
390
2A0E
347
2A11
  0
ENDTAB
  0
TABLE
  2
STYLE
  5
2A2A
330
0
100
AcDbSymbolTable
 70
2
  0
STYLE
  5
2A2B
330
2A2A
100
AcDbSymbolTableRecord
100
AcDbTextStyleTableRecord
  2
Standard
 70
0
 40
0.0
 41
1.0
 50
0.0
 71
0
 42
0.7
  3
txt
  4

  0
STYLE
  5
2A8B
330
2A2A
100
AcDbSymbolTableRecord
100
AcDbTextStyleTableRecord
  2
Style-cs_Working
 70
0
 40
0.0
 41
1.0
 50
0.0
 71
0
 42
0.7
  3
cs_Working.shx
  4

  0
ENDTAB
  0
TABLE
  2
VIEW
  5
2A30
330
0
100
AcDbSymbolTable
 70
0
  0
ENDTAB
  0
TABLE
  2
UCS
  5
2A31
330
0
100
AcDbSymbolTable
 70
1
  0
UCS
  5
5D
330
2A31
100
AcDbSymbolTableRecord
100
AcDbUCSTableRecord
  2
JTSK
 70
0
 10
0.0
 20
0.0
 30
0.0
 11
-1.0
 21
1e-16
 31
0.0
 12
-1e-16
 22
-1.0
 32
0.0
  0
ENDTAB
  0
TABLE
  2
APPID
  5
2A36
330
0
100
AcDbSymbolTable
 70
7
  0
APPID
  5
2A37
330
2A36
100
AcDbSymbolTableRecord
100
AcDbRegAppTableRecord
  2
ACAD
 70
0
  0
APPID
  5
2A26
330
2A36
100
AcDbSymbolTableRecord
100
AcDbRegAppTableRecord
  2
ACAD_PSEXT
 70
0
  0
APPID
  5
2A85
330
2A36
100
AcDbSymbolTableRecord
100
AcDbRegAppTableRecord
  2
AcadAnnoAV
 70
0
  0
APPID
  5
2A86
330
2A36
100
AcDbSymbolTableRecord
100
AcDbRegAppTableRecord
  2
AcCmTransparency
 70
0
  0
APPID
  5
2A8A
330
2A36
100
AcDbSymbolTableRecord
100
AcDbRegAppTableRecord
  2
AcadAnnotative
 70
0
  0
APPID
  5
2AEB
330
2A36
100
AcDbSymbolTableRecord
100
AcDbRegAppTableRecord
  2
HATCHBACKGROUNDCOLOR
 70
0
  0
APPID
  5
2AEC
330
2A36
100
AcDbSymbolTableRecord
100
AcDbRegAppTableRecord
  2
EZDXF
 70
0
  0
ENDTAB
  0
TABLE
  2
DIMSTYLE
  5
2A38
330
0
100
AcDbSymbolTable
 70
1
100
AcDbDimStyleTable
  0
DIMSTYLE
105
2A39
330
2A38
100
AcDbSymbolTableRecord
100
AcDbDimStyleTableRecord
  2
Standard
 70
0
 40
1.0
 41
2.5
 42
0.625
 43
3.75
 44
1.25
 45
0.0
 46
0.0
 47
0.0
 48
0.0
 49
2.5
140
2.5
141
2.5
142
0.0
143
0.03937007874
144
1.0
145
0.0
146
1.0
147
0.625
148
0.0
 69
0
 70
0
 71
0
 72
0
 73
0
 74
0
 75
0
 76
0
 77
1
 78
8
 79
3
170
0
171
3
172
1
173
0
174
0
175
0
176
0
177
0
178
0
179
2
271
2
272
2
273
2
274
3
275
0
276
0
277
2
278
44
279
0
280
0
281
0
282
0
283
0
284
8
285
0
286
0
288
0
289
3
290
0
340
2A2B
371
-2
372
-2
  0
ENDTAB
  0
TABLE
  2
BLOCK_RECORD
  5
2A08
330
0
100
AcDbSymbolTable
 70
19
  0
BLOCK_RECORD
  5
2A09
330
2A08
100
AcDbSymbolTableRecord
100
AcDbBlockTableRecord
  2
*Model_Space
340
2A1C
 70
0
280
1
281
0
  0
BLOCK_RECORD
  5
2A20
330
2A08
100
AcDbSymbolTableRecord
100
AcDbBlockTableRecord
  2
*Paper_Space
340
2A23
 70
0
280
1
281
0
  0
BLOCK_RECORD
  5
2A8C
330
2A08
100
AcDbSymbolTableRecord
100
AcDbBlockTableRecord
  2
TerminatorOpen_0.5
340
0
 70
0
280
1
281
0
  0
BLOCK_RECORD
  5
2A98
330
2A08
100
AcDbSymbolTableRecord
100
AcDbBlockTableRecord
  2
6.01A
340
0
 70
0
280
1
281
0
  0
BLOCK_RECORD
  5
2A9B
330
2A08
100
AcDbSymbolTableRecord
100
AcDbBlockTableRecord
  2
3.13
340
0
 70
0
280
1
281
0
  0
BLOCK_RECORD
  5
2A9E
330
2A08
100
AcDbSymbolTableRecord
100
AcDbBlockTableRecord
  2
6.14A
340
0
 70
0
280
1
281
0
  0
BLOCK_RECORD
  5
2AA1
330
2A08
100
AcDbSymbolTableRecord
100
AcDbBlockTableRecord
  2
6.14B
340
0
 70
0
280
1
281
0
  0
BLOCK_RECORD
  5
2AA4
330
2A08
100
AcDbSymbolTableRecord
100
AcDbBlockTableRecord
  2
8.11
340
0
 70
0
280
1
281
0
  0
BLOCK_RECORD
  5
2AA7
330
2A08
100
AcDbSymbolTableRecord
100
AcDbBlockTableRecord
  2
6.20
340
0
 70
0
280
1
281
0
  0
BLOCK_RECORD
  5
2AAA
330
2A08
100
AcDbSymbolTableRecord
100
AcDbBlockTableRecord
  2
3.14
340
0
 70
0
280
1
281
0
  0
BLOCK_RECORD
  5
2AAD
330
2A08
100
AcDbSymbolTableRecord
100
AcDbBlockTableRecord
  2
3.04
340
0
 70
0
280
1
281
0
  0
BLOCK_RECORD
  5
2AB2
330
2A08
100
AcDbSymbolTableRecord
100
AcDbBlockTableRecord
  2
6.01A_1
340
0
 70
0
280
1
281
0
  0
BLOCK_RECORD
  5
2AB5
330
2A08
100
AcDbSymbolTableRecord
100
AcDbBlockTableRecord
  2
6.14A_1
340
0
 70
0
280
1
281
0
  0
BLOCK_RECORD
  5
2AB8
330
2A08
100
AcDbSymbolTableRecord
100
AcDbBlockTableRecord
  2
6.14B_1
340
0
 70
0
280
1
281
0
  0
BLOCK_RECORD
  5
2ABB
330
2A08
100
AcDbSymbolTableRecord
100
AcDbBlockTableRecord
  2
8.11_1
340
0
 70
0
280
1
281
0
  0
BLOCK_RECORD
  5
2ABE
330
2A08
100
AcDbSymbolTableRecord
100
AcDbBlockTableRecord
  2
6.20_1
340
0
 70
0
280
1
281
0
  0
BLOCK_RECORD
  5
2AC1
330
2A08
100
AcDbSymbolTableRecord
100
AcDbBlockTableRecord
  2
3.13_1
340
0
 70
0
280
1
281
0
  0
BLOCK_RECORD
  5
2AC4
330
2A08
100
AcDbSymbolTableRecord
100
AcDbBlockTableRecord
  2
3.14_1
340
0
 70
0
280
1
281
0
  0
BLOCK_RECORD
  5
2AC7
330
2A08
100
AcDbSymbolTableRecord
100
AcDbBlockTableRecord
  2
3.04_1
340
0
 70
0
280
1
281
0
  0
ENDTAB
  0
ENDSEC
  0
SECTION
  2
BLOCKS
  0
BLOCK
  5
2A0A
330
2A09
100
AcDbEntity
  8
0
100
AcDbBlockBegin
  2
*Model_Space
 70
0
 10
0.0
 20
0.0
 30
0.0
  3
*Model_Space
  1

  0
ENDBLK
  5
2A1B
330
2A09
100
AcDbEntity
  8
0
100
AcDbBlockEnd
  0
BLOCK
  5
2A21
330
2A20
100
AcDbEntity
 67
1
  8
0
100
AcDbBlockBegin
  2
*Paper_Space
 70
0
 10
0.0
 20
0.0
 30
0.0
  3
*Paper_Space
  1

  0
ENDBLK
  5
2A22
330
2A20
100
AcDbEntity
 67
1
  8
0
100
AcDbBlockEnd
  0
BLOCK
  5
2A90
330
2A8C
100
AcDbEntity
  8
0
100
AcDbBlockBegin
  2
TerminatorOpen_0.5
 70
0
 10
0.0
 20
0.0
 30
0.0
  3
TerminatorOpen_0.5
  1

  0
LINE
  5
2A8D
330
2A8C
100
AcDbEntity
  8
0
  6
ByBlock
 62
0
370
-2
100
AcDbLine
 10
0.0
 20
0.0
 30
0.0
 11
-1.0
 21
0.0
 31
0.0
  0
LINE
  5
2A8E
330
2A8C
100
AcDbEntity
  8
0
  6
ByBlock
 62
0
370
-2
100
AcDbLine
 10
0.0
 20
0.0
 30
0.0
 11
-1.0
 21
0.25
 31
0.0
  0
LINE
  5
2A8F
330
2A8C
100
AcDbEntity
  8
0
  6
ByBlock
 62
0
370
-2
100
AcDbLine
 10
0.0
 20
0.0
 30
0.0
 11
-1.0
 21
-0.25
 31
0.0
  0
ENDBLK
  5
2A91
330
2A8C
100
AcDbEntity
  8
0
100
AcDbBlockEnd
  0
BLOCK
  5
2A99
330
2A98
100
AcDbEntity
  8
0
100
AcDbBlockBegin
  2
6.01A
 70
0
 10
0.0
 20
0.0
 30
0.0
  3
6.01A
  1

  0
CIRCLE
  5
27B1
330
2A98
100
AcDbEntity
  8
Vrstva 25
  6
Continuous
 62
12
370
0
100
AcDbCircle
 10
0.0
 20
0.0
 30
0.0
 40
0.25
  0
CIRCLE
  5
27B2
330
2A98
100
AcDbEntity
  8
Vrstva 25
  6
Continuous
 62
12
370
0
100
AcDbCircle
 10
0.0
 20
0.0
 30
0.0
 40
0.2
  0
CIRCLE
  5
27B3
330
2A98
100
AcDbEntity
  8
Vrstva 25
  6
Continuous
 62
12
370
0
100
AcDbCircle
 10
0.0
 20
0.0
 30
0.0
 40
0.15
  0
CIRCLE
  5
27B4
330
2A98
100
AcDbEntity
  8
Vrstva 25
  6
Continuous
 62
12
370
0
100
AcDbCircle
 10
0.0
 20
0.0
 30
0.0
 40
0.1
  0
CIRCLE
  5
27B5
330
2A98
100
AcDbEntity
  8
Vrstva 25
  6
Continuous
 62
12
370
0
100
AcDbCircle
 10
0.0
 20
0.0
 30
0.0
 40
0.05
  0
ENDBLK
  5
2A9A
330
2A98
100
AcDbEntity
  8
0
100
AcDbBlockEnd
  0
BLOCK
  5
2A9C
330
2A9B
100
AcDbEntity
  8
0
100
AcDbBlockBegin
  2
3.13
 70
0
 10
0.0
 20
0.0
 30
0.0
  3
3.13
  1

  0
ARC
  5
27CF
330
2A9B
100
AcDbEntity
  8
Vrstva 22
  6
Continuous
 62
3
370
0
100
AcDbCircle
 10
0.0
 20
0.5
 30
0.0
 40
0.5
210
0.0
220
0.0
230
-1.0
100
AcDbArc
 50
0.0
 51
180.0
  0
ARC
  5
27D0
330
2A9B
100
AcDbEntity
  8
Vrstva 22
  6
Continuous
 62
3
370
0
100
AcDbCircle
 10
-0.5
 20
0.0
 30
0.0
 40
0.5
210
0.0
220
0.0
230
-1.0
100
AcDbArc
 50
90.0
 51
270.0
  0
ARC
  5
27D1
330
2A9B
100
AcDbEntity
  8
Vrstva 22
  6
Continuous
 62
3
370
0
100
AcDbCircle
 10
0.0
 20
-0.5
 30
0.0
 40
0.5000000000000001
210
0.0
220
0.0
230
-1.0
100
AcDbArc
 50
180.0
 51
0.0
  0
ARC
  5
27D2
330
2A9B
100
AcDbEntity
  8
Vrstva 22
  6
Continuous
 62
3
370
0
100
AcDbCircle
 10
0.5
 20
0.0
 30
0.0
 40
0.5
210
0.0
220
0.0
230
-1.0
100
AcDbArc
 50
270.0
 51
90.0
  0
CIRCLE
  5
27D3
330
2A9B
100
AcDbEntity
  8
Vrstva 22
  6
Continuous
 62
3
370
0
100
AcDbCircle
 10
0.0
 20
0.0
 30
0.0
 40
0.05
  0
ENDBLK
  5
2A9D
330
2A9B
100
AcDbEntity
  8
0
100
AcDbBlockEnd
  0
BLOCK
  5
2A9F
330
2A9E
100
AcDbEntity
  8
0
100
AcDbBlockBegin
  2
6.14A
 70
0
 10
0.0
 20
0.0
 30
0.0
  3
6.14A
  1

  0
CIRCLE
  5
27E1
330
2A9E
100
AcDbEntity
  8
Vrstva 28
  6
Continuous
 62
32
370
0
100
AcDbCircle
 10
0.0
 20
0.0
 30
0.0
 40
0.25
  0
ENDBLK
  5
2AA0
330
2A9E
100
AcDbEntity
  8
0
100
AcDbBlockEnd
  0
BLOCK
  5
2AA2
330
2AA1
100
AcDbEntity
  8
0
100
AcDbBlockBegin
  2
6.14B
 70
0
 10
0.0
 20
0.0
 30
0.0
  3
6.14B
  1

  0
CIRCLE
  5
27E7
330
2AA1
100
AcDbEntity
  8
Vrstva 31
  6
Continuous
 62
172
370
0
100
AcDbCircle
 10
0.0
 20
0.0
 30
0.0
 40
0.25
  0
ENDBLK
  5
2AA3
330
2AA1
100
AcDbEntity
  8
0
100
AcDbBlockEnd
  0
BLOCK
  5
2AA5
330
2AA4
100
AcDbEntity
  8
0
100
AcDbBlockBegin
  2
8.11
 70
0
 10
0.0
 20
0.0
 30
0.0
  3
8.11
  1

  0
CIRCLE
  5
27EB
330
2AA4
100
AcDbEntity
  8
Vrstva 35
  6
Continuous
 62
32
370
0
100
AcDbCircle
 10
0.0
 20
0.0
 30
0.0
 40
0.375
  0
LINE
  5
27EC
330
2AA4
100
AcDbEntity
  8
Vrstva 35
  6
Continuous
 62
32
370
0
100
AcDbLine
 10
-0.375
 20
0.0
 30
0.0
 11
0.375
 21
0.0
 31
0.0
  0
ENDBLK
  5
2AA6
330
2AA4
100
AcDbEntity
  8
0
100
AcDbBlockEnd
  0
BLOCK
  5
2AA8
330
2AA7
100
AcDbEntity
  8
0
100
AcDbBlockBegin
  2
6.20
 70
0
 10
0.0
 20
0.0
 30
0.0
  3
6.20
  1

  0
CIRCLE
  5
27EE
330
2AA7
100
AcDbEntity
  8
Vrstva 27
  6
Continuous
 62
172
370
0
100
AcDbCircle
 10
0.0
 20
0.0
 30
0.0
 40
0.5000000000000001
  0
ENDBLK
  5
2AA9
330
2AA7
100
AcDbEntity
  8
0
100
AcDbBlockEnd
  0
BLOCK
  5
2AAB
330
2AAA
100
AcDbEntity
  8
0
100
AcDbBlockBegin
  2
3.14
 70
0
 10
0.0
 20
0.0
 30
0.0
  3
3.14
  1

  0
LWPOLYLINE
  5
27F0
330
2AAA
100
AcDbEntity
  8
Vrstva 36
  6
Continuous
 62
32
370
0
100
AcDbPolyline
 90
3
 70
128
 10
-0.5
 20
0.75
 10
0.0
 20
0.0
 10
0.5
 20
0.75
  0
CIRCLE
  5
27F1
330
2AAA
100
AcDbEntity
  8
Vrstva 36
  6
Continuous
 62
32
370
0
100
AcDbCircle
 10
-0.4502
 20
0.0502
 30
0.0
 40
0.05
  0
CIRCLE
  5
27F2
330
2AAA
100
AcDbEntity
  8
Vrstva 36
  6
Continuous
 62
32
370
0
100
AcDbCircle
 10
0.4492
 20
0.0502
 30
0.0
 40
0.05
  0
ENDBLK
  5
2AAC
330
2AAA
100
AcDbEntity
  8
0
100
AcDbBlockEnd
  0
BLOCK
  5
2AAE
330
2AAD
100
AcDbEntity
  8
0
100
AcDbBlockBegin
  2
3.04
 70
0
 10
0.0
 20
0.0
 30
0.0
  3
3.04
  1

  0
CIRCLE
  5
27FC
330
2AAD
100
AcDbEntity
  8
Vrstva 36
  6
Continuous
 62
32
370
0
100
AcDbCircle
 10
-0.0001
 20
0.0001
 30
0.0
 40
0.375
  0
LINE
  5
27FD
330
2AAD
100
AcDbEntity
  8
Vrstva 36
  6
Continuous
 62
32
370
0
100
AcDbLine
 10
0.0
 20
-0.375
 30
0.0
 11
0.875
 21
-0.375
 31
0.0
  0
ENDBLK
  5
2AAF
330
2AAD
100
AcDbEntity
  8
0
100
AcDbBlockEnd
  0
BLOCK
  5
2AB3
330
2AB2
100
AcDbEntity
  8
0
100
AcDbBlockBegin
  2
6.01A_1
 70
0
 10
0.0
 20
0.0
 30
0.0
  3
6.01A_1
  1

  0
CIRCLE
  5
29C6
330
2AB2
100
AcDbEntity
  8
Vrstva 25
  6
Continuous
 62
12
370
0
100
AcDbCircle
 10
0.0
 20
0.0
 30
0.0
 40
0.25
  0
CIRCLE
  5
29C7
330
2AB2
100
AcDbEntity
  8
Vrstva 25
  6
Continuous
 62
12
370
0
100
AcDbCircle
 10
0.0
 20
0.0
 30
0.0
 40
0.2
  0
CIRCLE
  5
29C8
330
2AB2
100
AcDbEntity
  8
Vrstva 25
  6
Continuous
 62
12
370
0
100
AcDbCircle
 10
0.0
 20
0.0
 30
0.0
 40
0.15
  0
CIRCLE
  5
29C9
330
2AB2
100
AcDbEntity
  8
Vrstva 25
  6
Continuous
 62
12
370
0
100
AcDbCircle
 10
0.0
 20
0.0
 30
0.0
 40
0.1
  0
CIRCLE
  5
29CA
330
2AB2
100
AcDbEntity
  8
Vrstva 25
  6
Continuous
 62
12
370
0
100
AcDbCircle
 10
0.0
 20
0.0
 30
0.0
 40
0.05
  0
ENDBLK
  5
2AB4
330
2AB2
100
AcDbEntity
  8
0
100
AcDbBlockEnd
  0
BLOCK
  5
2AB6
330
2AB5
100
AcDbEntity
  8
0
100
AcDbBlockBegin
  2
6.14A_1
 70
0
 10
0.0
 20
0.0
 30
0.0
  3
6.14A_1
  1

  0
CIRCLE
  5
29CD
330
2AB5
100
AcDbEntity
  8
Vrstva 28
  6
Continuous
 62
32
370
0
100
AcDbCircle
 10
0.0
 20
0.0
 30
0.0
 40
0.25
  0
ENDBLK
  5
2AB7
330
2AB5
100
AcDbEntity
  8
0
100
AcDbBlockEnd
  0
BLOCK
  5
2AB9
330
2AB8
100
AcDbEntity
  8
0
100
AcDbBlockBegin
  2
6.14B_1
 70
0
 10
0.0
 20
0.0
 30
0.0
  3
6.14B_1
  1

  0
CIRCLE
  5
29D0
330
2AB8
100
AcDbEntity
  8
Vrstva 31
  6
Continuous
 62
172
370
0
100
AcDbCircle
 10
0.0
 20
0.0
 30
0.0
 40
0.25
  0
ENDBLK
  5
2ABA
330
2AB8
100
AcDbEntity
  8
0
100
AcDbBlockEnd
  0
BLOCK
  5
2ABC
330
2ABB
100
AcDbEntity
  8
0
100
AcDbBlockBegin
  2
8.11_1
 70
0
 10
0.0
 20
0.0
 30
0.0
  3
8.11_1
  1

  0
CIRCLE
  5
29D3
330
2ABB
100
AcDbEntity
  8
Vrstva 35
  6
Continuous
 62
32
370
0
100
AcDbCircle
 10
0.0
 20
0.0
 30
0.0
 40
0.375
  0
LINE
  5
29D4
330
2ABB
100
AcDbEntity
  8
Vrstva 35
  6
Continuous
 62
32
370
0
100
AcDbLine
 10
-0.375
 20
0.0
 30
0.0
 11
0.375
 21
0.0
 31
0.0
  0
ENDBLK
  5
2ABD
330
2ABB
100
AcDbEntity
  8
0
100
AcDbBlockEnd
  0
BLOCK
  5
2ABF
330
2ABE
100
AcDbEntity
  8
0
100
AcDbBlockBegin
  2
6.20_1
 70
0
 10
0.0
 20
0.0
 30
0.0
  3
6.20_1
  1

  0
CIRCLE
  5
29D7
330
2ABE
100
AcDbEntity
  8
Vrstva 27
  6
Continuous
 62
172
370
0
100
AcDbCircle
 10
0.0
 20
0.0
 30
0.0
 40
0.5
  0
ENDBLK
  5
2AC0
330
2ABE
100
AcDbEntity
  8
0
100
AcDbBlockEnd
  0
BLOCK
  5
2AC2
330
2AC1
100
AcDbEntity
  8
0
100
AcDbBlockBegin
  2
3.13_1
 70
0
 10
0.0
 20
0.0
 30
0.0
  3
3.13_1
  1

  0
ARC
  5
29DA
330
2AC1
100
AcDbEntity
  8
Vrstva 22
  6
Continuous
 62
3
370
0
100
AcDbCircle
 10
0.0
 20
0.5
 30
0.0
 40
0.5
210
0.0
220
0.0
230
-1.0
100
AcDbArc
 50
0.0
 51
180.0
  0
ARC
  5
29DB
330
2AC1
100
AcDbEntity
  8
Vrstva 22
  6
Continuous
 62
3
370
0
100
AcDbCircle
 10
-0.5
 20
0.0
 30
0.0
 40
0.5
210
0.0
220
0.0
230
-1.0
100
AcDbArc
 50
90.0
 51
270.0
  0
ARC
  5
29DC
330
2AC1
100
AcDbEntity
  8
Vrstva 22
  6
Continuous
 62
3
370
0
100
AcDbCircle
 10
0.0
 20
-0.5
 30
0.0
 40
0.5
210
0.0
220
0.0
230
-1.0
100
AcDbArc
 50
180.0
 51
0.0
  0
ARC
  5
29DD
330
2AC1
100
AcDbEntity
  8
Vrstva 22
  6
Continuous
 62
3
370
0
100
AcDbCircle
 10
0.5
 20
0.0
 30
0.0
 40
0.5
210
0.0
220
0.0
230
-1.0
100
AcDbArc
 50
270.0
 51
90.0
  0
CIRCLE
  5
29DE
330
2AC1
100
AcDbEntity
  8
Vrstva 22
  6
Continuous
 62
3
370
0
100
AcDbCircle
 10
0.0
 20
0.0
 30
0.0
 40
0.05
  0
ENDBLK
  5
2AC3
330
2AC1
100
AcDbEntity
  8
0
100
AcDbBlockEnd
  0
BLOCK
  5
2AC5
330
2AC4
100
AcDbEntity
  8
0
100
AcDbBlockBegin
  2
3.14_1
 70
0
 10
0.0
 20
0.0
 30
0.0
  3
3.14_1
  1

  0
LWPOLYLINE
  5
29E1
330
2AC4
100
AcDbEntity
  8
Vrstva 36
  6
Continuous
 62
32
370
0
100
AcDbPolyline
 90
3
 70
128
 10
-0.5
 20
0.75
 10
0.0
 20
0.0
 10
0.5
 20
0.75
  0
CIRCLE
  5
29E2
330
2AC4
100
AcDbEntity
  8
Vrstva 36
  6
Continuous
 62
32
370
0
100
AcDbCircle
 10
-0.4502
 20
0.0502
 30
0.0
 40
0.05
  0
CIRCLE
  5
29E3
330
2AC4
100
AcDbEntity
  8
Vrstva 36
  6
Continuous
 62
32
370
0
100
AcDbCircle
 10
0.4492
 20
0.0502
 30
0.0
 40
0.05
  0
ENDBLK
  5
2AC6
330
2AC4
100
AcDbEntity
  8
0
100
AcDbBlockEnd
  0
BLOCK
  5
2AC8
330
2AC7
100
AcDbEntity
  8
0
100
AcDbBlockBegin
  2
3.04_1
 70
0
 10
0.0
 20
0.0
 30
0.0
  3
3.04_1
  1

  0
CIRCLE
  5
29E6
330
2AC7
100
AcDbEntity
  8
Vrstva 36
  6
Continuous
 62
32
370
0
100
AcDbCircle
 10
-0.0001
 20
0.0001
 30
0.0
 40
0.375
  0
LINE
  5
29E7
330
2AC7
100
AcDbEntity
  8
Vrstva 36
  6
Continuous
 62
32
370
0
100
AcDbLine
 10
0.0
 20
-0.375
 30
0.0
 11
0.875
 21
-0.375
 31
0.0
  0
ENDBLK
  5
2AC9
330
2AC7
100
AcDbEntity
  8
0
100
AcDbBlockEnd
  0
ENDSEC
  0
SECTION
  2
ENTITIES
  0
LWPOLYLINE
  5
272A
330
2A09
100
AcDbEntity
  8
Vrstva 10
  6
Continuous
 62
4
370
0
100
AcDbPolyline
 90
6
 70
128
 10
-565488.4
 20
-1187938.32
 10
-565492.42
 20
-1187934.86
 10
-565472.37
 20
-1187902.87
 10
-565466.48
 20
-1187893.43
 10
-565457.47
 20
-1187878.73
 10
-565454.689
 20
-1187874.265
  0
LWPOLYLINE
  5
272B
330
2A09
100
AcDbEntity
  8
Vrstva 10
  6
Continuous
 62
4
370
0
100
AcDbPolyline
 90
7
 70
128
 10
-565488.4
 20
-1187938.32
 10
-565482.09
 20
-1187927.75
 10
-565476.56
 20
-1187919.16
 10
-565468.05
 20
-1187905.45
 10
-565462.18
 20
-1187896.03
 10
-565453.26
 20
-1187881.9
 10
-565450.233
 20
-1187877.041
  0
LINE
  5
272C
330
2A09
100
AcDbEntity
  8
Vrstva 11
  6
Continuous
 62
7
370
0
100
AcDbLine
 10
-565482.09
 20
-1187927.75
 30
0.0
 11
-565480.617
 21
-1187928.675
 31
0.0
  0
LINE
  5
272D
330
2A09
100
AcDbEntity
  8
Vrstva 11
  6
Continuous
 62
7
370
0
100
AcDbLine
 10
-565466.48
 20
-1187906.22
 30
0.0
 11
-565448.845
 21
-1187877.905
 31
0.0
  0
LWPOLYLINE
  5
272E
330
2A09
100
AcDbEntity
  8
Vrstva 7
  6
Continuous
 62
5
370
0
100
AcDbPolyline
 90
3
 70
128
 10
-565501.41
 20
-1187927.4
 10
-565492.18
 20
-1187931.27
 10
-565488.9
 20
-1187926.19
  0
LWPOLYLINE
  5
272F
330
2A09
100
AcDbEntity
  8
Vrstva 7
  6
2.103
 62
212
370
0
 48
0.5
100
AcDbPolyline
 90
3
 70
128
 10
-565501.298
 20
-1187927.133
 10
-565492.292
 20
-1187930.909
 10
-565489.144
 20
-1187926.033
  0
LINE
  5
2730
330
2A09
100
AcDbEntity
  8
Vrstva 7
  6
Continuous
 62
5
370
0
100
AcDbLine
 10
-565488.38
 20
-1187925.14
 30
0.0
 11
-565487.11
 21
-1187923.21
 31
0.0
  0
LINE
  5
2731
330
2A09
100
AcDbEntity
  8
Vrstva 7
  6
2.103
 62
212
370
0
 48
0.5
100
AcDbLine
 10
-565488.622
 20
-1187924.981
 30
0.0
 11
-565487.352
 21
-1187923.051
 31
0.0
  0
LINE
  5
2732
330
2A09
100
AcDbEntity
  8
Vrstva 7
  6
Continuous
 62
5
370
0
100
AcDbLine
 10
-565485.18
 20
-1187920.05
 30
0.0
 11
-565476.22
 21
-1187905.86
 31
0.0
  0
LINE
  5
2733
330
2A09
100
AcDbEntity
  8
Vrstva 7
  6
2.103
 62
212
370
0
 48
0.5
100
AcDbLine
 10
-565485.425
 20
-1187919.895
 30
0.0
 11
-565476.465
 21
-1187905.705
 31
0.0
  0
LINE
  5
2734
330
2A09
100
AcDbEntity
  8
Vrstva 7
  6
Continuous
 62
5
370
0
100
AcDbLine
 10
-565485.18
 20
-1187920.05
 30
0.0
 11
-565485.425
 21
-1187919.895
 31
0.0
  0
LINE
  5
2735
330
2A09
100
AcDbEntity
  8
Vrstva 7
  6
Continuous
 62
5
370
0
100
AcDbLine
 10
-565476.22
 20
-1187905.86
 30
0.0
 11
-565476.465
 21
-1187905.705
 31
0.0
  0
LINE
  5
2736
330
2A09
100
AcDbEntity
  8
Vrstva 7
  6
Continuous
 62
5
370
0
100
AcDbLine
 10
-565474.06
 20
-1187902.39
 30
0.0
 11
-565469.8
 21
-1187895.68
 31
0.0
  0
LINE
  5
2737
330
2A09
100
AcDbEntity
  8
Vrstva 7
  6
2.103
 62
212
370
0
 48
0.5
100
AcDbLine
 10
-565474.305
 20
-1187902.235
 30
0.0
 11
-565470.045
 21
-1187895.525
 31
0.0
  0
LINE
  5
2738
330
2A09
100
AcDbEntity
  8
Vrstva 7
  6
Continuous
 62
5
370
0
100
AcDbLine
 10
-565474.06
 20
-1187902.39
 30
0.0
 11
-565474.305
 21
-1187902.235
 31
0.0
  0
LINE
  5
2739
330
2A09
100
AcDbEntity
  8
Vrstva 7
  6
Continuous
 62
5
370
0
100
AcDbLine
 10
-565469.16
 20
-1187894.59
 30
0.0
 11
-565467.88
 21
-1187892.42
 31
0.0
  0
LINE
  5
273A
330
2A09
100
AcDbEntity
  8
Vrstva 7
  6
2.103
 62
212
370
0
 48
0.5
100
AcDbLine
 10
-565469.41
 20
-1187894.443
 30
0.0
 11
-565468.13
 21
-1187892.273
 31
0.0
  0
LINE
  5
273B
330
2A09
100
AcDbEntity
  8
Vrstva 7
  6
Continuous
 62
5
370
0
100
AcDbLine
 10
-565467.88
 20
-1187892.42
 30
0.0
 11
-565468.13
 21
-1187892.273
 31
0.0
  0
LWPOLYLINE
  5
273C
330
2A09
100
AcDbEntity
  8
Vrstva 7
  6
Continuous
 62
5
370
0
100
AcDbPolyline
 90
3
 70
128
 10
-565466.16
 20
-1187889.83
 10
-565458.78
 20
-1187877.93
 10
-565461.08
 20
-1187876.57
  0
LWPOLYLINE
  5
273D
330
2A09
100
AcDbEntity
  8
Vrstva 7
  6
2.103
 62
212
370
0
 48
0.5
100
AcDbPolyline
 90
3
 70
128
 10
-565466.406
 20
-1187889.677
 10
-565459.183
 20
-1187878.029
 10
-565461.228
 20
-1187876.82
  0
LINE
  5
273E
330
2A09
100
AcDbEntity
  8
Vrstva 7
  6
Continuous
 62
5
370
0
100
AcDbLine
 10
-565466.16
 20
-1187889.83
 30
0.0
 11
-565466.406
 21
-1187889.677
 31
0.0
  0
LINE
  5
273F
330
2A09
100
AcDbEntity
  8
Vrstva 7
  6
Continuous
 62
5
370
0
100
AcDbLine
 10
-565461.08
 20
-1187876.57
 30
0.0
 11
-565461.228
 21
-1187876.82
 31
0.0
  0
LINE
  5
2740
330
2A09
100
AcDbEntity
  8
Vrstva 8
  6
Continuous
 62
14
370
30
100
AcDbLine
 10
-565488.9
 20
-1187926.19
 30
0.0
 11
-565488.38
 21
-1187925.14
 31
0.0
  0
LINE
  5
2741
330
2A09
100
AcDbEntity
  8
Vrstva 8
  6
Continuous
 62
14
370
30
100
AcDbLine
 10
-565487.11
 20
-1187923.21
 30
0.0
 11
-565485.18
 21
-1187920.05
 31
0.0
  0
LINE
  5
2742
330
2A09
100
AcDbEntity
  8
Vrstva 8
  6
Continuous
 62
14
370
30
100
AcDbLine
 10
-565476.22
 20
-1187905.86
 30
0.0
 11
-565474.06
 21
-1187902.39
 31
0.0
  0
LINE
  5
2743
330
2A09
100
AcDbEntity
  8
Vrstva 8
  6
Continuous
 62
14
370
30
100
AcDbLine
 10
-565469.8
 20
-1187895.68
 30
0.0
 11
-565469.16
 21
-1187894.59
 31
0.0
  0
LINE
  5
2744
330
2A09
100
AcDbEntity
  8
Vrstva 8
  6
Continuous
 62
14
370
30
100
AcDbLine
 10
-565467.88
 20
-1187892.42
 30
0.0
 11
-565466.16
 21
-1187889.83
 31
0.0
  0
LINE
  5
2745
330
2A09
100
AcDbEntity
  8
Vrstva 7
  6
Continuous
 62
5
370
0
100
AcDbLine
 10
-565487.11
 20
-1187923.21
 30
0.0
 11
-565494.19
 21
-1187918.89
 31
0.0
  0
LINE
  5
2746
330
2A09
100
AcDbEntity
  8
Vrstva 7
  6
2.163
 62
62
370
0
 48
0.5
100
AcDbLine
 10
-565494.117
 20
-1187918.77
 30
0.0
 11
-565487.037
 21
-1187923.09
 31
0.0
  0
LINE
  5
2747
330
2A09
100
AcDbEntity
  8
Vrstva 7
  6
Continuous
 62
5
370
0
100
AcDbLine
 10
-565485.18
 20
-1187920.05
 30
0.0
 11
-565492.15
 21
-1187915.67
 31
0.0
  0
LINE
  5
2748
330
2A09
100
AcDbEntity
  8
Vrstva 7
  6
2.163
 62
62
370
0
 48
0.5
100
AcDbLine
 10
-565492.076
 20
-1187915.551
 30
0.0
 11
-565485.106
 21
-1187919.931
 31
0.0
  0
LWPOLYLINE
  5
2749
330
2A09
100
AcDbEntity
  8
Vrstva 7
  6
Continuous
 62
5
370
0
100
AcDbPolyline
 90
3
 70
128
 10
-565488.9
 20
-1187926.19
 10
-565490.19
 20
-1187925.31
 10
-565491.23
 20
-1187924.78
  0
LWPOLYLINE
  5
274A
330
2A09
100
AcDbEntity
  8
Vrstva 7
  6
Continuous
 62
5
370
0
100
AcDbPolyline
 90
3
 70
128
 10
-565491.185
 20
-1187924.691
 10
-565490.139
 20
-1187925.224
 10
-565488.844
 20
-1187926.107
  0
LINE
  5
274B
330
2A09
100
AcDbEntity
  8
Vrstva 7
  6
Continuous
 62
5
370
0
100
AcDbLine
 10
-565491.23
 20
-1187924.78
 30
0.0
 11
-565491.185
 21
-1187924.691
 31
0.0
  0
LWPOLYLINE
  5
274C
330
2A09
100
AcDbEntity
  8
Vrstva 7
  6
Continuous
 62
5
370
0
100
AcDbPolyline
 90
3
 70
128
 10
-565488.38
 20
-1187925.14
 10
-565489.57
 20
-1187924.43
 10
-565490.67
 20
-1187923.76
  0
LWPOLYLINE
  5
274D
330
2A09
100
AcDbEntity
  8
Vrstva 7
  6
Continuous
 62
5
370
0
100
AcDbPolyline
 90
3
 70
128
 10
-565488.431
 20
-1187925.226
 10
-565489.622
 20
-1187924.516
 10
-565490.722
 20
-1187923.845
  0
LINE
  5
274E
330
2A09
100
AcDbEntity
  8
Vrstva 7
  6
Continuous
 62
5
370
0
100
AcDbLine
 10
-565490.67
 20
-1187923.76
 30
0.0
 11
-565490.722
 21
-1187923.845
 31
0.0
  0
LINE
  5
274F
330
2A09
100
AcDbEntity
  8
Vrstva 11
  6
Continuous
 62
7
370
0
100
AcDbLine
 10
-565490.19
 20
-1187925.31
 30
0.0
 11
-565489.57
 21
-1187924.43
 31
0.0
  0
LINE
  5
2750
330
2A09
100
AcDbEntity
  8
Vrstva 11
  6
Continuous
 62
7
370
0
100
AcDbLine
 10
-565491.23
 20
-1187924.78
 30
0.0
 11
-565490.67
 21
-1187923.76
 31
0.0
  0
LINE
  5
2751
330
2A09
100
AcDbEntity
  8
Vrstva 11
  6
Continuous
 62
7
370
0
100
AcDbLine
 10
-565490.537
 20
-1187925.133
 30
0.0
 11
-565489.937
 21
-1187924.207
 31
0.0
  0
LINE
  5
2752
330
2A09
100
AcDbEntity
  8
Vrstva 11
  6
Continuous
 62
7
370
0
100
AcDbLine
 10
-565490.883
 20
-1187924.957
 30
0.0
 11
-565490.303
 21
-1187923.983
 31
0.0
  0
LWPOLYLINE
  5
2753
330
2A09
100
AcDbEntity
  8
Vrstva 7
  6
Continuous
 62
5
370
0
100
AcDbPolyline
 90
3
 70
128
 10
-565469.8
 20
-1187895.68
 10
-565470.86
 20
-1187894.88
 10
-565471.73
 20
-1187894.37
  0
LWPOLYLINE
  5
2754
330
2A09
100
AcDbEntity
  8
Vrstva 7
  6
Continuous
 62
5
370
0
100
AcDbPolyline
 90
3
 70
128
 10
-565469.16
 20
-1187894.59
 10
-565470.21
 20
-1187893.91
 10
-565471.16
 20
-1187893.42
  0
LINE
  5
2755
330
2A09
100
AcDbEntity
  8
Vrstva 11
  6
Continuous
 62
7
370
0
100
AcDbLine
 10
-565470.86
 20
-1187894.88
 30
0.0
 11
-565470.21
 21
-1187893.91
 31
0.0
  0
LINE
  5
2756
330
2A09
100
AcDbEntity
  8
Vrstva 11
  6
Continuous
 62
7
370
0
100
AcDbLine
 10
-565471.73
 20
-1187894.37
 30
0.0
 11
-565471.16
 21
-1187893.42
 31
0.0
  0
LINE
  5
2757
330
2A09
100
AcDbEntity
  8
Vrstva 11
  6
Continuous
 62
7
370
0
100
AcDbLine
 10
-565471.15
 20
-1187894.71
 30
0.0
 11
-565470.527
 21
-1187893.747
 31
0.0
  0
LINE
  5
2758
330
2A09
100
AcDbEntity
  8
Vrstva 11
  6
Continuous
 62
7
370
0
100
AcDbLine
 10
-565471.44
 20
-1187894.54
 30
0.0
 11
-565470.843
 21
-1187893.583
 31
0.0
  0
LWPOLYLINE
  5
2759
330
2A09
100
AcDbEntity
  8
Vrstva 5
  6
Continuous
 62
32
370
0
100
AcDbPolyline
 90
5
 70
128
 10
-565503.956
 20
-1187925.814
 10
-565501.41
 20
-1187927.4
 10
-565498.52
 20
-1187922.97
 10
-565497.22
 20
-1187923.72
 10
-565496.61
 20
-1187922.87
  0
LINE
  5
275A
330
2A09
100
AcDbEntity
  8
Vrstva 6
  6
Continuous
 62
14
370
30
100
AcDbLine
 10
-565496.61
 20
-1187922.87
 30
0.0
 11
-565494.62
 21
-1187919.78
 31
0.0
  0
LWPOLYLINE
  5
275B
330
2A09
100
AcDbEntity
  8
Vrstva 5
  6
Continuous
 62
32
370
0
100
AcDbPolyline
 90
4
 70
128
 10
-565494.62
 20
-1187919.78
 10
-565494.19
 20
-1187918.89
 10
-565492.15
 20
-1187915.67
 10
-565494.696
 20
-1187914.084
  0
LINE
  5
275C
330
2A09
100
AcDbEntity
  8
Vrstva 5
  6
Continuous
 62
32
370
0
100
AcDbLine
 10
-565498.52
 20
-1187922.97
 30
0.0
 11
-565497.942
 21
-1187922.041
 31
0.0
  0
LINE
  5
275D
330
2A09
100
AcDbEntity
  8
Vrstva 5
  6
DGN Style 2
 62
32
370
0
100
AcDbLine
 10
-565497.942
 20
-1187922.041
 30
0.0
 11
-565496.001
 21
-1187918.921
 31
0.0
  0
LINE
  5
275E
330
2A09
100
AcDbEntity
  8
Vrstva 5
  6
Continuous
 62
32
370
0
100
AcDbLine
 10
-565496.001
 20
-1187918.921
 30
0.0
 11
-565495.64
 21
-1187918.34
 31
0.0
  0
LWPOLYLINE
  5
275F
330
2A09
100
AcDbEntity
  8
Vrstva 5
  6
Continuous
 62
32
370
0
100
AcDbPolyline
 90
4
 70
128
 10
-565498.33
 20
-1187922.664
 10
-565497.345
 20
-1187923.278
 10
-565496.958
 20
-1187922.655
 10
-565496.61
 20
-1187922.87
  0
LWPOLYLINE
  5
2760
330
2A09
100
AcDbEntity
  8
Vrstva 5
  6
Continuous
 62
32
370
0
100
AcDbPolyline
 90
4
 70
128
 10
-565495.64
 20
-1187918.34
 10
-565494.655
 20
-1187918.953
 10
-565495.017
 20
-1187919.534
 10
-565494.62
 20
-1187919.78
  0
LWPOLYLINE
  5
2761
330
2A09
100
AcDbEntity
  8
Vrstva 11
  6
Continuous
 62
7
370
0
100
AcDbPolyline
 90
4
 70
128
 10
-565496.61
 20
-1187922.87
 10
-565495.69
 20
-1187923.47
 10
-565493.67
 20
-1187920.31
 10
-565494.62
 20
-1187919.78
  0
LINE
  5
2762
330
2A09
100
AcDbEntity
  8
Vrstva 11
  6
Continuous
 62
7
370
0
100
AcDbLine
 10
-565496.38
 20
-1187923.02
 30
0.0
 11
-565494.383
 21
-1187919.913
 31
0.0
  0
LINE
  5
2763
330
2A09
100
AcDbEntity
  8
Vrstva 11
  6
Continuous
 62
7
370
0
100
AcDbLine
 10
-565496.15
 20
-1187923.17
 30
0.0
 11
-565494.145
 21
-1187920.045
 31
0.0
  0
LINE
  5
2764
330
2A09
100
AcDbEntity
  8
Vrstva 11
  6
Continuous
 62
7
370
0
100
AcDbLine
 10
-565495.92
 20
-1187923.32
 30
0.0
 11
-565493.907
 21
-1187920.177
 31
0.0
  0
LWPOLYLINE
  5
2765
330
2A09
100
AcDbEntity
  8
Vrstva 5
  6
Continuous
 62
32
370
0
100
AcDbPolyline
 90
4
 70
128
 10
-565484.666
 20
-1187895.434
 10
-565482.12
 20
-1187897.02
 10
-565479.194
 20
-1187892.398
 10
-565477.93
 20
-1187893.21
  0
LWPOLYLINE
  5
2766
330
2A09
100
AcDbEntity
  8
Vrstva 5
  6
Continuous
 62
32
370
0
100
AcDbPolyline
 90
4
 70
128
 10
-565472.89
 20
-1187885.1
 10
-565474.1
 20
-1187884.35
 10
-565470.62
 20
-1187878.8
 10
-565473.166
 20
-1187877.214
  0
LINE
  5
2767
330
2A09
100
AcDbEntity
  8
Vrstva 5
  6
Continuous
 62
32
370
0
100
AcDbLine
 10
-565479.194
 20
-1187892.398
 30
0.0
 11
-565478.606
 21
-1187891.469
 31
0.0
  0
LINE
  5
2768
330
2A09
100
AcDbEntity
  8
Vrstva 5
  6
DGN Style 2
 62
32
370
0
100
AcDbLine
 10
-565478.606
 20
-1187891.469
 30
0.0
 11
-565477.028
 21
-1187888.976
 31
0.0
  0
LINE
  5
2769
330
2A09
100
AcDbEntity
  8
Vrstva 5
  6
Continuous
 62
32
370
0
100
AcDbLine
 10
-565477.028
 20
-1187888.976
 30
0.0
 11
-565476.467
 21
-1187888.089
 31
0.0
  0
LWPOLYLINE
  5
276A
330
2A09
100
AcDbEntity
  8
Vrstva 5
  6
Continuous
 62
32
370
0
100
AcDbPolyline
 90
4
 70
128
 10
-565478.997
 20
-1187892.085
 10
-565478.105
 20
-1187892.641
 10
-565477.742
 20
-1187892.066
 10
-565477.365
 20
-1187892.3
  0
LWPOLYLINE
  5
276B
330
2A09
100
AcDbEntity
  8
Vrstva 5
  6
Continuous
 62
32
370
0
100
AcDbPolyline
 90
4
 70
128
 10
-565476.467
 20
-1187888.089
 10
-565475.575
 20
-1187888.644
 10
-565475.95
 20
-1187889.235
 10
-565475.596
 20
-1187889.455
  0
LINE
  5
276C
330
2A09
100
AcDbEntity
  8
Vrstva 5
  6
Continuous
 62
32
370
0
100
AcDbLine
 10
-565477.93
 20
-1187893.21
 30
0.0
 11
-565475.684
 21
-1187889.635
 31
0.0
  0
LINE
  5
276D
330
2A09
100
AcDbEntity
  8
Vrstva 6
  6
Continuous
 62
14
370
30
100
AcDbLine
 10
-565475.684
 20
-1187889.635
 30
0.0
 11
-565475.156
 21
-1187888.785
 31
0.0
  0
LINE
  5
276E
330
2A09
100
AcDbEntity
  8
Vrstva 5
  6
Continuous
 62
32
370
0
100
AcDbLine
 10
-565475.156
 20
-1187888.785
 30
0.0
 11
-565472.89
 21
-1187885.1
 31
0.0
  0
LWPOLYLINE
  5
276F
330
2A09
100
AcDbEntity
  8
Vrstva 11
  6
Continuous
 62
7
370
0
100
AcDbPolyline
 90
5
 70
128
 10
-565477.93
 20
-1187893.21
 10
-565476.94
 20
-1187893.93
 10
-565473.79
 20
-1187888.84
 10
-565471.9
 20
-1187885.82
 10
-565472.89
 20
-1187885.1
  0
LWPOLYLINE
  5
2770
330
2A09
100
AcDbEntity
  8
Vrstva 11
  6
Continuous
 62
7
370
0
100
AcDbPolyline
 90
4
 70
128
 10
-565477.768
 20
-1187892.95
 10
-565477.026
 20
-1187893.49
 10
-565472.309
 20
-1187885.9
 10
-565473.052
 20
-1187885.36
  0
LWPOLYLINE
  5
2771
330
2A09
100
AcDbEntity
  8
Vrstva 11
  6
Continuous
 62
7
370
0
100
AcDbPolyline
 90
4
 70
128
 10
-565477.607
 20
-1187892.69
 10
-565477.112
 20
-1187893.05
 10
-565472.718
 20
-1187885.98
 10
-565473.213
 20
-1187885.62
  0
LWPOLYLINE
  5
2772
330
2A09
100
AcDbEntity
  8
Vrstva 11
  6
Continuous
 62
7
370
0
100
AcDbPolyline
 90
4
 70
128
 10
-565477.445
 20
-1187892.43
 10
-565477.198
 20
-1187892.61
 10
-565473.127
 20
-1187886.06
 10
-565473.375
 20
-1187885.88
  0
LWPOLYLINE
  5
2773
330
2A09
100
AcDbEntity
  8
Vrstva 7
  6
Continuous
 62
5
370
0
100
AcDbPolyline
 90
3
 70
128
 10
-565480.617
 20
-1187928.675
 10
-565480.29
 20
-1187928.16
 10
-565474.91
 20
-1187919.69
  0
LWPOLYLINE
  5
2774
330
2A09
100
AcDbEntity
  8
Vrstva 7
  6
2.163
 62
62
370
0
 48
0.5
100
AcDbPolyline
 90
3
 70
128
 10
-565474.741
 20
-1187919.797
 10
-565480.121
 20
-1187928.267
 10
-565480.448
 20
-1187928.782
  0
LINE
  5
2775
330
2A09
100
AcDbEntity
  8
Vrstva 7
  6
Continuous
 62
5
370
0
100
AcDbLine
 10
-565480.29
 20
-1187928.16
 30
0.0
 11
-565474.39
 21
-1187931.9
 31
0.0
  0
LINE
  5
2776
330
2A09
100
AcDbEntity
  8
Vrstva 7
  6
2.163
 62
62
370
0
 48
0.5
100
AcDbLine
 10
-565480.183
 20
-1187927.991
 30
0.0
 11
-565474.283
 21
-1187931.731
 31
0.0
  0
LINE
  5
2777
330
2A09
100
AcDbEntity
  8
Vrstva 7
  6
Continuous
 62
5
370
0
100
AcDbLine
 10
-565474.39
 20
-1187931.9
 30
0.0
 11
-565474.283
 21
-1187931.731
 31
0.0
  0
LINE
  5
2778
330
2A09
100
AcDbEntity
  8
Vrstva 7
  6
Continuous
 62
5
370
0
100
AcDbLine
 10
-565474.91
 20
-1187919.69
 30
0.0
 11
-565467.96
 21
-1187924.43
 31
0.0
  0
LINE
  5
2779
330
2A09
100
AcDbEntity
  8
Vrstva 7
  6
2.163
 62
62
370
0
 48
0.5
100
AcDbLine
 10
-565468.073
 20
-1187924.595
 30
0.0
 11
-565475.023
 21
-1187919.855
 31
0.0
  0
LINE
  5
277A
330
2A09
100
AcDbEntity
  8
Vrstva 7
  6
2.163
 62
62
370
0
 48
0.5
100
AcDbLine
 10
-565473.27
 20
-1187932.67
 30
0.0
 11
-565467.96
 21
-1187924.43
 31
0.0
  0
LWPOLYLINE
  5
277B
330
2A09
100
AcDbEntity
  8
Vrstva 11
  6
Continuous
 62
7
370
0
100
AcDbPolyline
 90
5
 70
128
 10
-565474.47
 20
-1187934.21
 10
-565473.27
 20
-1187932.67
 10
-565470.08
 20
-1187934.65
 10
-565471.29
 20
-1187936.38
 10
-565474.47
 20
-1187934.21
  0
LINE
  5
277C
330
2A09
100
AcDbEntity
  8
Vrstva 11
  6
Continuous
 62
7
370
0
100
AcDbLine
 10
-565474.255
 20
-1187933.934
 30
0.0
 11
-565471.075
 21
-1187936.104
 31
0.0
  0
LINE
  5
277D
330
2A09
100
AcDbEntity
  8
Vrstva 11
  6
Continuous
 62
7
370
0
100
AcDbLine
 10
-565474.011
 20
-1187934.101
 30
0.0
 11
-565473.026
 21
-1187932.837
 31
0.0
  0
LINE
  5
277E
330
2A09
100
AcDbEntity
  8
Vrstva 11
  6
Continuous
 62
7
370
0
100
AcDbLine
 10
-565473.766
 20
-1187934.267
 30
0.0
 11
-565472.781
 21
-1187933.003
 31
0.0
  0
LINE
  5
277F
330
2A09
100
AcDbEntity
  8
Vrstva 11
  6
Continuous
 62
7
370
0
100
AcDbLine
 10
-565473.522
 20
-1187934.434
 30
0.0
 11
-565472.537
 21
-1187933.17
 31
0.0
  0
LINE
  5
2780
330
2A09
100
AcDbEntity
  8
Vrstva 11
  6
Continuous
 62
7
370
0
100
AcDbLine
 10
-565473.278
 20
-1187934.601
 30
0.0
 11
-565472.293
 21
-1187933.337
 31
0.0
  0
LINE
  5
2781
330
2A09
100
AcDbEntity
  8
Vrstva 11
  6
Continuous
 62
7
370
0
100
AcDbLine
 10
-565473.034
 20
-1187934.767
 30
0.0
 11
-565472.049
 21
-1187933.503
 31
0.0
  0
LINE
  5
2782
330
2A09
100
AcDbEntity
  8
Vrstva 11
  6
Continuous
 62
7
370
0
100
AcDbLine
 10
-565472.789
 20
-1187934.934
 30
0.0
 11
-565471.804
 21
-1187933.67
 31
0.0
  0
LINE
  5
2783
330
2A09
100
AcDbEntity
  8
Vrstva 11
  6
Continuous
 62
7
370
0
100
AcDbLine
 10
-565472.545
 20
-1187935.101
 30
0.0
 11
-565471.56
 21
-1187933.837
 31
0.0
  0
LINE
  5
2784
330
2A09
100
AcDbEntity
  8
Vrstva 8
  6
Continuous
 62
14
370
30
100
AcDbLine
 10
-565472.31
 20
-1187938.23
 30
0.0
 11
-565471.29
 21
-1187936.38
 31
0.0
  0
LINE
  5
2785
330
2A09
100
AcDbEntity
  8
Vrstva 7
  6
Continuous
 62
5
370
0
100
AcDbLine
 10
-565472.31
 20
-1187938.23
 30
0.0
 11
-565469.764
 21
-1187939.816
 31
0.0
  0
LINE
  5
2786
330
2A09
100
AcDbEntity
  8
Vrstva 7
  6
2.163
 62
62
370
0
 48
0.5
100
AcDbLine
 10
-565472.215
 20
-1187938.077
 30
0.0
 11
-565469.668
 21
-1187939.663
 31
0.0
  0
LINE
  5
2787
330
2A09
100
AcDbEntity
  8
Vrstva 7
  6
2.163
 62
62
370
0
 48
0.5
100
AcDbLine
 10
-565471.29
 20
-1187936.38
 30
0.0
 11
-565468.744
 21
-1187937.966
 31
0.0
  0
LINE
  5
2788
330
2A09
100
AcDbEntity
  8
Vrstva 5
  6
Continuous
 62
32
370
0
100
AcDbLine
 10
-565467.96
 20
-1187924.43
 30
0.0
 11
-565465.414
 21
-1187926.016
 31
0.0
  0
LINE
  5
2789
330
2A09
100
AcDbEntity
  8
Vrstva 7
  6
Continuous
 62
5
370
0
100
AcDbLine
 10
-565472.94
 20
-1187916.43
 30
0.0
 11
-565471.84
 21
-1187914.75
 31
0.0
  0
LINE
  5
278A
330
2A09
100
AcDbEntity
  8
Vrstva 7
  6
2.163
 62
62
370
0
 48
0.5
100
AcDbLine
 10
-565471.606
 20
-1187914.903
 30
0.0
 11
-565472.706
 21
-1187916.583
 31
0.0
  0
LINE
  5
278B
330
2A09
100
AcDbEntity
  8
Vrstva 7
  6
Continuous
 62
5
370
0
100
AcDbLine
 10
-565472.94
 20
-1187916.43
 30
0.0
 11
-565472.706
 21
-1187916.583
 31
0.0
  0
LINE
  5
278C
330
2A09
100
AcDbEntity
  8
Vrstva 7
  6
Continuous
 62
5
370
0
100
AcDbLine
 10
-565471.84
 20
-1187914.75
 30
0.0
 11
-565471.606
 21
-1187914.903
 31
0.0
  0
LWPOLYLINE
  5
278D
330
2A09
100
AcDbEntity
  8
Vrstva 7
  6
Continuous
 62
5
370
0
100
AcDbPolyline
 90
3
 70
128
 10
-565471.39
 20
-1187913.98
 10
-565466.48
 20
-1187906.22
 10
-565459.84
 20
-1187910.67
  0
LWPOLYLINE
  5
278E
330
2A09
100
AcDbEntity
  8
Vrstva 7
  6
2.163
 62
62
370
0
 48
0.5
100
AcDbPolyline
 90
3
 70
128
 10
-565459.996
 20
-1187910.903
 10
-565466.397
 20
-1187906.613
 10
-565471.153
 20
-1187914.13
  0
LINE
  5
278F
330
2A09
100
AcDbEntity
  8
Vrstva 7
  6
Continuous
 62
5
370
0
100
AcDbLine
 10
-565471.39
 20
-1187913.98
 30
0.0
 11
-565471.153
 21
-1187914.13
 31
0.0
  0
LINE
  5
2790
330
2A09
100
AcDbEntity
  8
Vrstva 7
  6
Continuous
 62
5
370
0
100
AcDbLine
 10
-565459.84
 20
-1187910.67
 30
0.0
 11
-565459.996
 21
-1187910.903
 31
0.0
  0
LINE
  5
2791
330
2A09
100
AcDbEntity
  8
Vrstva 7
  6
2.163
 62
62
370
0
 48
0.5
100
AcDbLine
 10
-565459.11
 20
-1187910.93
 30
0.0
 11
-565459.84
 21
-1187910.67
 31
0.0
  0
LWPOLYLINE
  5
2792
330
2A09
100
AcDbEntity
  8
Vrstva 5
  6
Continuous
 62
32
370
0
100
AcDbPolyline
 90
3
 70
128
 10
-565467.96
 20
-1187924.43
 10
-565465.61
 20
-1187920.98
 10
-565463.75
 20
-1187918.19
  0
LINE
  5
2793
330
2A09
100
AcDbEntity
  8
Vrstva 6
  6
Continuous
 62
14
370
30
100
AcDbLine
 10
-565463.75
 20
-1187918.19
 30
0.0
 11
-565462.91
 21
-1187916.82
 31
0.0
  0
LWPOLYLINE
  5
2794
330
2A09
100
AcDbEntity
  8
Vrstva 5
  6
Continuous
 62
32
370
0
100
AcDbPolyline
 90
4
 70
128
 10
-565462.91
 20
-1187916.82
 10
-565461.86
 20
-1187915.04
 10
-565459.11
 20
-1187910.93
 10
-565456.564
 20
-1187912.516
  0
LINE
  5
2795
330
2A09
100
AcDbEntity
  8
Vrstva 5
  6
Continuous
 62
32
370
0
100
AcDbLine
 10
-565465.61
 20
-1187920.98
 30
0.0
 11
-565464.96
 21
-1187921.41
 31
0.0
  0
LINE
  5
2796
330
2A09
100
AcDbEntity
  8
Vrstva 5
  6
DGN Style 2
 62
32
370
0
100
AcDbLine
 10
-565461.86
 20
-1187915.04
 30
0.0
 11
-565461.054
 21
-1187915.542
 31
0.0
  0
LINE
  5
2797
330
2A09
100
AcDbEntity
  8
Vrstva 5
  6
DGN Style 2
 62
32
370
0
100
AcDbLine
 10
-565464.96
 20
-1187921.41
 30
0.0
 11
-565463.09
 21
-1187918.601
 31
0.0
  0
LINE
  5
2798
330
2A09
100
AcDbEntity
  8
Vrstva 5
  6
DGN Style 2
 62
32
370
0
100
AcDbLine
 10
-565462.199
 20
-1187917.263
 30
0.0
 11
-565461.054
 21
-1187915.542
 31
0.0
  0
LWPOLYLINE
  5
2799
330
2A09
100
AcDbEntity
  8
Vrstva 11
  6
DGN Style 4
 62
7
370
0
100
AcDbPolyline
 90
4
 70
128
 10
-565463.75
 20
-1187918.19
 10
-565463.09
 20
-1187918.601
 10
-565462.199
 20
-1187917.263
 10
-565462.91
 20
-1187916.82
  0
LINE
  5
279A
330
2A09
100
AcDbEntity
  8
Vrstva 11
  6
DGN Style 4
 62
7
370
0
100
AcDbLine
 10
-565463.61
 20
-1187917.962
 30
0.0
 11
-565462.942
 21
-1187918.378
 31
0.0
  0
LINE
  5
279B
330
2A09
100
AcDbEntity
  8
Vrstva 11
  6
DGN Style 4
 62
7
370
0
100
AcDbLine
 10
-565463.47
 20
-1187917.733
 30
0.0
 11
-565462.793
 21
-1187918.155
 31
0.0
  0
LINE
  5
279C
330
2A09
100
AcDbEntity
  8
Vrstva 11
  6
DGN Style 4
 62
7
370
0
100
AcDbLine
 10
-565463.33
 20
-1187917.505
 30
0.0
 11
-565462.645
 21
-1187917.932
 31
0.0
  0
LINE
  5
279D
330
2A09
100
AcDbEntity
  8
Vrstva 11
  6
DGN Style 4
 62
7
370
0
100
AcDbLine
 10
-565463.19
 20
-1187917.277
 30
0.0
 11
-565462.496
 21
-1187917.709
 31
0.0
  0
LINE
  5
279E
330
2A09
100
AcDbEntity
  8
Vrstva 11
  6
DGN Style 4
 62
7
370
0
100
AcDbLine
 10
-565463.05
 20
-1187917.048
 30
0.0
 11
-565462.348
 21
-1187917.486
 31
0.0
  0
LINE
  5
279F
330
2A09
100
AcDbEntity
  8
Vrstva 8
  6
Continuous
 62
14
370
30
100
AcDbLine
 10
-565449.08
 20
-1187898.35
 30
0.0
 11
-565448.186
 21
-1187896.384
 31
0.0
  0
LINE
  5
27A0
330
2A09
100
AcDbEntity
  8
Vrstva 8
  6
Continuous
 62
14
370
30
100
AcDbLine
 10
-565448.186
 20
-1187896.384
 30
0.0
 11
-565447.039
 21
-1187893.86
 31
0.0
  0
LINE
  5
27A1
330
2A09
100
AcDbEntity
  8
Vrstva 7
  6
Continuous
 62
5
370
0
100
AcDbLine
 10
-565449.08
 20
-1187898.35
 30
0.0
 11
-565446.534
 21
-1187899.936
 31
0.0
  0
LINE
  5
27A2
330
2A09
100
AcDbEntity
  8
Vrstva 7
  6
2.163
 62
62
370
0
 48
0.5
100
AcDbLine
 10
-565448.869
 20
-1187898.01
 30
0.0
 11
-565446.322
 21
-1187899.596
 31
0.0
  0
LWPOLYLINE
  5
27A3
330
2A09
100
AcDbEntity
  8
Vrstva 5
  6
Continuous
 62
32
370
0
100
AcDbPolyline
 90
3
 70
128
 10
-565448.21
 20
-1187893.13
 10
-565447.039
 20
-1187893.86
 10
-565445.782
 20
-1187894.642
  0
LINE
  5
27A4
330
2A09
100
AcDbEntity
  8
Vrstva 5
  6
Continuous
 62
32
370
0
100
AcDbLine
 10
-565448.21
 20
-1187893.13
 30
0.0
 11
-565448.003
 21
-1187892.742
 31
0.0
  0
LINE
  5
27A5
330
2A09
100
AcDbEntity
  8
Vrstva 5
  6
DGN Style 2
 62
32
370
0
100
AcDbLine
 10
-565448.003
 20
-1187892.742
 30
0.0
 11
-565447.29
 21
-1187891.4
 31
0.0
  0
LINE
  5
27A6
330
2A09
100
AcDbEntity
  8
Vrstva 5
  6
Continuous
 62
32
370
0
100
AcDbLine
 10
-565447.29
 20
-1187891.4
 30
0.0
 11
-565441.5
 21
-1187882.48
 31
0.0
  0
LINE
  5
27A7
330
2A09
100
AcDbEntity
  8
Vrstva 5
  6
DGN Style 4
 62
32
370
0
100
AcDbLine
 10
-565448.003
 20
-1187892.742
 30
0.0
 11
-565446.161
 21
-1187893.889
 31
0.0
  0
LINE
  5
27A8
330
2A09
100
AcDbEntity
  8
Vrstva 5
  6
Continuous
 62
32
370
0
100
AcDbLine
 10
-565447.29
 20
-1187891.4
 30
0.0
 11
-565445.448
 21
-1187892.547
 31
0.0
  0
LINE
  5
27A9
330
2A09
100
AcDbEntity
  8
Vrstva 6
  6
Continuous
 62
14
370
30
100
AcDbLine
 10
-565446.161
 20
-1187893.889
 30
0.0
 11
-565445.448
 21
-1187892.547
 31
0.0
  0
LINE
  5
27AA
330
2A09
100
AcDbEntity
  8
Vrstva 9
  6
Continuous
 62
253
370
0
 48
0.5
100
AcDbLine
 10
-565447.844
 20
-1187892.441
 30
0.0
 11
-565446.002
 21
-1187893.589
 31
0.0
  0
LINE
  5
27AB
330
2A09
100
AcDbEntity
  8
Vrstva 11
  6
Continuous
 62
7
370
0
100
AcDbLine
 10
-565447.364
 20
-1187892.305
 30
0.0
 11
-565446.984
 21
-1187891.59
 31
0.0
  0
LINE
  5
27AC
330
2A09
100
AcDbEntity
  8
Vrstva 11
  6
Continuous
 62
7
370
0
100
AcDbLine
 10
-565447.059
 20
-1187892.495
 30
0.0
 11
-565446.679
 21
-1187891.781
 31
0.0
  0
LINE
  5
27AD
330
2A09
100
AcDbEntity
  8
Vrstva 11
  6
Continuous
 62
7
370
0
100
AcDbLine
 10
-565446.753
 20
-1187892.686
 30
0.0
 11
-565446.373
 21
-1187891.971
 31
0.0
  0
LINE
  5
27AE
330
2A09
100
AcDbEntity
  8
Vrstva 11
  6
Continuous
 62
7
370
0
100
AcDbLine
 10
-565446.448
 20
-1187892.876
 30
0.0
 11
-565446.068
 21
-1187892.161
 31
0.0
  0
LINE
  5
27AF
330
2A09
100
AcDbEntity
  8
Vrstva 11
  6
Continuous
 62
7
370
0
100
AcDbLine
 10
-565446.456
 20
-1187892.871
 30
0.0
 11
-565445.828
 21
-1187893.262
 31
0.0
  0
INSERT
  5
27B0
330
2A09
100
AcDbEntity
  8
Vrstva 25
  6
Continuous
 62
12
370
0
100
AcDbBlockReference
  2
6.01A
 10
-565478.37
 20
-1187934.95
 30
0.0
 50
58.084
  0
INSERT
  5
27B6
330
2A09
100
AcDbEntity
  8
Vrstva 25
  6
Continuous
 62
12
370
0
100
AcDbBlockReference
  2
6.01A
 10
-565460.69
 20
-1187909.44
 30
0.0
 50
58.084
  0
INSERT
  5
27BC
330
2A09
100
AcDbEntity
  8
Vrstva 25
  6
Continuous
 62
12
370
0
100
AcDbBlockReference
  2
6.01A
 10
-565485.77
 20
-1187917.71
 30
0.0
 50
58.084
  0
INSERT
  5
27C2
330
2A09
100
AcDbEntity
  8
Vrstva 25
  6
Continuous
 62
12
370
0
100
AcDbBlockReference
  2
6.01A
 10
-565473.79
 20
-1187897.52
 30
0.0
 50
58.084
  0
INSERT
  5
27C8
330
2A09
100
AcDbEntity
  8
Vrstva 25
  6
Continuous
 62
12
370
0
100
AcDbBlockReference
  2
6.01A
 10
-565461.08
 20
-1187876.57
 30
0.0
 50
58.084
  0
INSERT
  5
27CE
330
2A09
100
AcDbEntity
  8
Vrstva 22
  6
Continuous
 62
3
370
0
100
AcDbBlockReference
  2
3.13
 10
-565462.78
 20
-1187903.87
 30
0.0
 50
58.084
  0
INSERT
  5
27D4
330
2A09
100
AcDbEntity
  8
Vrstva 22
  6
Continuous
 62
3
370
0
100
AcDbBlockReference
  2
3.13
 10
-565460.81
 20
-1187900.94
 30
0.0
 50
58.084
  0
INSERT
  5
27DA
330
2A09
100
AcDbEntity
  8
Vrstva 22
  6
Continuous
 62
3
370
0
100
AcDbBlockReference
  2
3.13
 10
-565459.07
 20
-1187898.01
 30
0.0
 50
58.084
  0
INSERT
  5
27E0
330
2A09
100
AcDbEntity
  8
Vrstva 28
  6
Continuous
 62
32
370
0
100
AcDbBlockReference
  2
6.14A
 10
-565479.77
 20
-1187925.68
 30
0.0
 50
58.084
  0
INSERT
  5
27E2
330
2A09
100
AcDbEntity
  8
Vrstva 28
  6
Continuous
 62
32
370
0
100
AcDbBlockReference
  2
6.14A
 10
-565468.52
 20
-1187907.86
 30
0.0
 50
58.084
  0
INSERT
  5
27E4
330
2A09
100
AcDbEntity
  8
Vrstva 28
  6
Continuous
 62
32
370
0
100
AcDbBlockReference
  2
6.14A
 10
-565453.77
 20
-1187884.28
 30
0.0
 50
58.084
  0
INSERT
  5
27E6
330
2A09
100
AcDbEntity
  8
Vrstva 31
  6
Continuous
 62
172
370
0
100
AcDbBlockReference
  2
6.14B
 10
-565490.89
 20
-1187930.31
 30
0.0
 50
58.084
  0
INSERT
  5
27E8
330
2A09
100
AcDbEntity
  8
Vrstva 31
  6
Continuous
 62
172
370
0
100
AcDbBlockReference
  2
6.14B
 10
-565464.22
 20
-1187888.07
 30
0.0
 50
58.084
  0
INSERT
  5
27EA
330
2A09
100
AcDbEntity
  8
Vrstva 35
  6
Continuous
 62
32
370
0
100
AcDbBlockReference
  2
8.11
 10
-565452.55
 20
-1187906.73
 30
0.0
 50
58.084
  0
INSERT
  5
27ED
330
2A09
100
AcDbEntity
  8
Vrstva 27
  6
Continuous
 62
172
370
0
100
AcDbBlockReference
  2
6.20
 10
-565446.663
 20
-1187884.823
 30
0.0
 50
58.084
  0
INSERT
  5
27EF
330
2A09
100
AcDbEntity
  8
Vrstva 36
  6
Continuous
 62
32
370
0
100
AcDbBlockReference
  2
3.14
 10
-565493.723
 20
-1187925.192
 30
0.0
 50
58.084
  0
INSERT
  5
27F3
330
2A09
100
AcDbEntity
  8
Vrstva 36
  6
Continuous
 62
32
370
0
100
AcDbBlockReference
  2
3.14
 10
-565474.387
 20
-1187926.045
 30
0.0
 50
58.084
  0
INSERT
  5
27F7
330
2A09
100
AcDbEntity
  8
Vrstva 36
  6
Continuous
 62
32
370
0
100
AcDbBlockReference
  2
3.14
 10
-565467.115
 20
-1187915.317
 30
0.0
 50
58.084
  0
INSERT
  5
27FB
330
2A09
100
AcDbEntity
  8
Vrstva 36
  6
Continuous
 62
32
370
0
100
AcDbBlockReference
  2
3.04
 10
-565455.566
 20
-1187903.829
 30
0.0
 50
58.084
  0
TEXT
  5
27FE
330
2A09
100
AcDbEntity
  8
Vrstva 40
  6
Continuous
 62
12
370
0
100
AcDbText
 10
-565480.659776
 20
-1187915.150071
 30
0.0
 40
0.65
  1
chodník
 50
58.084
  7
Style-cs_Working
 72
1
 11
-565479.962
 21
-1187913.415
 31
0.0
100
AcDbText
 73
2
  0
TEXT
  5
27FF
330
2A09
100
AcDbEntity
  8
Vrstva 40
  6
Continuous
 62
12
370
0
100
AcDbText
 10
-565462.521776
 20
-1187886.017071
 30
0.0
 40
0.65
  1
chodník
 50
58.084
  7
Style-cs_Working
 72
1
 11
-565461.824
 21
-1187884.282
 31
0.0
100
AcDbText
 73
2
  0
TEXT
  5
2800
330
2A09
100
AcDbEntity
  8
Vrstva 40
  6
Continuous
 62
12
370
0
100
AcDbText
 10
-565478.456776
 20
-1187924.360071
 30
0.0
 40
0.65
  1
chodník
 50
58.084
  7
Style-cs_Working
 72
1
 11
-565477.759
 21
-1187922.625
 31
0.0
100
AcDbText
 73
2
  0
TEXT
  5
2801
330
2A09
100
AcDbEntity
  8
Vrstva 40
  6
Continuous
 62
12
370
0
100
AcDbText
 10
-565457.701776
 20
-1187891.146071
 30
0.0
 40
0.65
  1
chodník
 50
58.084
  7
Style-cs_Working
 72
1
 11
-565457.004
 21
-1187889.411
 31
0.0
100
AcDbText
 73
2
  0
TEXT
  5
2802
330
2A09
100
AcDbEntity
  8
Vrstva 40
  6
Continuous
 62
12
370
0
100
AcDbText
 10
-565469.469506
 20
-1187903.588123
 30
0.0
 40
0.65
  1
asf. cesta
 50
58.084
  7
Style-cs_Working
 72
1
 11
-565468.469
 21
-1187901.367
 31
0.0
100
AcDbText
 73
2
  0
TEXT
  5
2803
330
2A09
100
AcDbEntity
  8
Vrstva 40
  6
Continuous
 62
12
370
0
100
AcDbText
 10
-565487.496407
 20
-1187921.32978
 30
0.0
 40
0.65
  1
dl.
 50
58.084
  7
Style-cs_Working
 72
1
 11
-565487.535
 21
-1187920.777
 31
0.0
100
AcDbText
 73
2
  0
TEXT
  5
2804
330
2A09
100
AcDbEntity
  8
Vrstva 41
  6
Continuous
 62
52
370
0
100
AcDbText
 10
-565482.290886
 20
-1187888.687932
 30
0.0
 40
0.75
  1
Dřevovýroba
 50
58.084
  7
Style-cs_Working
 72
1
 11
-565480.891
 21
-1187885.731
 31
0.0
100
AcDbText
 73
2
  0
TEXT
  5
2805
330
2A09
100
AcDbEntity
  8
Vrstva 47
  6
Continuous
 62
174
370
0
100
AcDbText
 10
-565479.430364
 20
-1187888.492204
 30
0.0
 40
1.0
  1
1100
 50
58.084
  7
Style-cs_Working
 72
1
 11
-565479.024
 21
-1187886.894
 31
0.0
100
AcDbText
 73
2
  0
TEXT
  5
2806
330
2A09
100
AcDbEntity
  8
Vrstva 47
  6
Continuous
 62
174
370
0
100
AcDbText
 10
-565500.044076
 20
-1187921.101313
 30
0.0
 40
1.0
  1
1101
 50
58.084
  7
Style-cs_Working
 72
1
 11
-565499.751
 21
-1187919.685
 31
0.0
100
AcDbText
 73
2
  0
TEXT
  5
2807
330
2A09
100
AcDbEntity
  8
Vrstva 47
  6
Continuous
 62
174
370
0
100
AcDbText
 10
-565468.217313
 20
-1187930.403683
 30
0.0
 40
1.0
  1
990
 50
58.084
  7
Style-cs_Working
 72
1
 11
-565467.962
 21
-1187929.048
 31
0.0
100
AcDbText
 73
2
  0
TEXT
  5
2808
330
2A09
100
AcDbEntity
  8
Vrstva 47
  6
Continuous
 62
174
370
0
100
AcDbText
 10
-565461.400726
 20
-1187920.495473
 30
0.0
 40
1.0
  1
989
 50
58.084
  7
Style-cs_Working
 72
1
 11
-565461.158
 21
-1187919.16
 31
0.0
100
AcDbText
 73
2
  0
TEXT
  5
2809
330
2A09
100
AcDbEntity
  8
Vrstva 47
  6
Continuous
 62
174
370
0
100
AcDbText
 10
-565442.273313
 20
-1187889.775683
 30
0.0
 40
1.0
  1
487
 50
58.084
  7
Style-cs_Working
 72
1
 11
-565442.018
 21
-1187888.42
 31
0.0
100
AcDbText
 73
2
  0
LINE
  5
280A
330
2A09
100
AcDbEntity
  8
Vrstva 63
  6
Continuous
 62
7
370
0
100
AcDbLine
 10
-565481.973
 20
-1187912.162
 30
0.0
 11
-565480.912
 21
-1187912.823
 31
0.0
  0
LWPOLYLINE
  5
280B
330
2A09
100
AcDbEntity
  8
Vrstva 63
  6
Continuous
 62
7
370
0
100
AcDbPolyline
 90
3
 70
128
 10
-565481.092
 20
-1187912.581
 10
-565480.912
 20
-1187912.823
 10
-565481.208
 20
-1187912.768
  0
TEXT
  5
280C
330
2A09
100
AcDbEntity
  8
Vrstva 63
  6
Continuous
 62
7
370
0
100
AcDbText
 10
-565482.71444
 20
-1187912.40703
 30
0.0
 40
0.4
  1
0.29
 50
58.084
  7
Style-cs_Working
 72
1
 11
-565482.567
 21
-1187911.792
 31
0.0
100
AcDbText
 73
2
  0
LINE
  5
280D
330
2A09
100
AcDbEntity
  8
Vrstva 63
  6
Continuous
 62
7
370
0
100
AcDbLine
 10
-565463.743
 20
-1187883.087
 30
0.0
 11
-565462.682
 21
-1187883.748
 31
0.0
  0
LWPOLYLINE
  5
280E
330
2A09
100
AcDbEntity
  8
Vrstva 63
  6
Continuous
 62
7
370
0
100
AcDbPolyline
 90
3
 70
128
 10
-565462.862
 20
-1187883.506
 10
-565462.682
 20
-1187883.748
 10
-565462.978
 20
-1187883.693
  0
TEXT
  5
280F
330
2A09
100
AcDbEntity
  8
Vrstva 63
  6
Continuous
 62
7
370
0
100
AcDbText
 10
-565464.48444
 20
-1187883.33203
 30
0.0
 40
0.4
  1
0.29
 50
58.084
  7
Style-cs_Working
 72
1
 11
-565464.337
 21
-1187882.717
 31
0.0
100
AcDbText
 73
2
  0
LINE
  5
2810
330
2A09
100
AcDbEntity
  8
Vrstva 63
  6
Continuous
 62
7
370
0
100
AcDbLine
 10
-565491.813
 20
-1187927.937
 30
0.0
 11
-565490.752
 21
-1187928.598
 31
0.0
  0
LWPOLYLINE
  5
2811
330
2A09
100
AcDbEntity
  8
Vrstva 63
  6
Continuous
 62
7
370
0
100
AcDbPolyline
 90
3
 70
128
 10
-565490.932
 20
-1187928.356
 10
-565490.752
 20
-1187928.598
 10
-565491.048
 20
-1187928.543
  0
TEXT
  5
2812
330
2A09
100
AcDbEntity
  8
Vrstva 63
  6
Continuous
 62
7
370
0
100
AcDbText
 10
-565492.55444
 20
-1187928.18203
 30
0.0
 40
0.4
  1
0.29
 50
58.084
  7
Style-cs_Working
 72
1
 11
-565492.407
 21
-1187927.567
 31
0.0
100
AcDbText
 73
2
  0
LINE
  5
2813
330
2A09
100
AcDbEntity
  8
Vrstva 63
  6
Continuous
 62
7
370
0
100
AcDbLine
 10
-565496.002
 20
-1187928.062
 30
0.0
 11
-565496.663
 21
-1187929.123
 31
0.0
  0
LWPOLYLINE
  5
2814
330
2A09
100
AcDbEntity
  8
Vrstva 63
  6
Continuous
 62
7
370
0
100
AcDbPolyline
 90
3
 70
128
 10
-565496.421
 20
-1187928.943
 10
-565496.663
 20
-1187929.123
 10
-565496.608
 20
-1187928.827
  0
TEXT
  5
2815
330
2A09
100
AcDbEntity
  8
Vrstva 63
  6
Continuous
 62
7
370
0
100
AcDbText
 10
-565495.77944
 20
-1187928.08303
 30
0.0
 40
0.4
  1
0.29
 50
58.084
  7
Style-cs_Working
 72
1
 11
-565495.632
 21
-1187927.468
 31
0.0
100
AcDbText
 73
2
  0
LINE
  5
2816
330
2A09
100
AcDbEntity
  8
Vrstva 63
  6
Continuous
 62
7
370
0
100
AcDbLine
 10
-565459.137
 20
-1187875.977
 30
0.0
 11
-565459.798
 21
-1187877.038
 31
0.0
  0
LWPOLYLINE
  5
2817
330
2A09
100
AcDbEntity
  8
Vrstva 63
  6
Continuous
 62
7
370
0
100
AcDbPolyline
 90
3
 70
128
 10
-565459.556
 20
-1187876.858
 10
-565459.798
 20
-1187877.038
 10
-565459.743
 20
-1187876.742
  0
TEXT
  5
2818
330
2A09
100
AcDbEntity
  8
Vrstva 63
  6
Continuous
 62
7
370
0
100
AcDbText
 10
-565458.91444
 20
-1187875.99803
 30
0.0
 40
0.4
  1
0.29
 50
58.084
  7
Style-cs_Working
 72
1
 11
-565458.767
 21
-1187875.383
 31
0.0
100
AcDbText
 73
2
  0
LINE
  5
2819
330
2A09
100
AcDbEntity
  8
Vrstva 63
  6
Continuous
 62
7
370
0
100
AcDbLine
 10
-565491.236
 20
-1187919.154
 30
0.0
 11
-565491.791
 21
-1187920.045
 31
0.0
  0
LWPOLYLINE
  5
281A
330
2A09
100
AcDbEntity
  8
Vrstva 63
  6
Continuous
 62
7
370
0
100
AcDbPolyline
 90
3
 70
128
 10
-565491.55
 20
-1187919.865
 10
-565491.791
 20
-1187920.045
 10
-565491.736
 20
-1187919.749
  0
TEXT
  5
281B
330
2A09
100
AcDbEntity
  8
Vrstva 63
  6
Continuous
 62
7
370
0
100
AcDbText
 10
-565491.00337
 20
-1187919.157861
 30
0.0
 40
0.4
  1
0.14
 50
58.084
  7
Style-cs_Working
 72
1
 11
-565490.866
 21
-1187918.559
 31
0.0
100
AcDbText
 73
2
  0
LINE
  5
281C
330
2A09
100
AcDbEntity
  8
Vrstva 63
  6
Continuous
 62
7
370
0
100
AcDbLine
 10
-565488.079
 20
-1187919.756
 30
0.0
 11
-565487.524
 21
-1187918.865
 31
0.0
  0
LWPOLYLINE
  5
281D
330
2A09
100
AcDbEntity
  8
Vrstva 63
  6
Continuous
 62
7
370
0
100
AcDbPolyline
 90
3
 70
128
 10
-565487.765
 20
-1187919.045
 10
-565487.524
 20
-1187918.865
 10
-565487.579
 20
-1187919.161
  0
TEXT
  5
281E
330
2A09
100
AcDbEntity
  8
Vrstva 63
  6
Continuous
 62
7
370
0
100
AcDbText
 10
-565488.58637
 20
-1187920.949861
 30
0.0
 40
0.4
  1
0.14
 50
58.084
  7
Style-cs_Working
 72
1
 11
-565488.449
 21
-1187920.351
 31
0.0
100
AcDbText
 73
2
  0
LINE
  5
281F
330
2A09
100
AcDbEntity
  8
Vrstva 63
  6
Continuous
 62
7
370
0
100
AcDbLine
 10
-565491.662
 20
-1187926.573
 30
0.0
 11
-565490.842
 21
-1187925.257
 31
0.0
  0
LWPOLYLINE
  5
2820
330
2A09
100
AcDbEntity
  8
Vrstva 63
  6
Continuous
 62
7
370
0
100
AcDbPolyline
 90
3
 70
128
 10
-565491.084
 20
-1187925.437
 10
-565490.842
 20
-1187925.257
 10
-565490.897
 20
-1187925.553
  0
TEXT
  5
2821
330
2A09
100
AcDbEntity
  8
Vrstva 63
  6
Continuous
 62
7
370
0
100
AcDbText
 10
-565492.164335
 20
-1187927.757777
 30
0.0
 40
0.4
  1
0.10
 50
58.084
  7
Style-cs_Working
 72
1
 11
-565492.032
 21
-1187927.167
 31
0.0
100
AcDbText
 73
2
  0
LINE
  5
2822
330
2A09
100
AcDbEntity
  8
Vrstva 63
  6
Continuous
 62
7
370
0
100
AcDbLine
 10
-565489.168
 20
-1187922.567
 30
0.0
 11
-565489.988
 21
-1187923.883
 31
0.0
  0
LWPOLYLINE
  5
2823
330
2A09
100
AcDbEntity
  8
Vrstva 63
  6
Continuous
 62
7
370
0
100
AcDbPolyline
 90
3
 70
128
 10
-565489.746
 20
-1187923.703
 10
-565489.988
 20
-1187923.883
 10
-565489.933
 20
-1187923.587
  0
TEXT
  5
2824
330
2A09
100
AcDbEntity
  8
Vrstva 63
  6
Continuous
 62
7
370
0
100
AcDbText
 10
-565488.930335
 20
-1187922.563777
 30
0.0
 40
0.4
  1
0.10
 50
58.084
  7
Style-cs_Working
 72
1
 11
-565488.798
 21
-1187921.973
 31
0.0
100
AcDbText
 73
2
  0
LINE
  5
2825
330
2A09
100
AcDbEntity
  8
Vrstva 63
  6
Continuous
 62
7
370
0
100
AcDbLine
 10
-565498.145
 20
-1187922.367
 30
0.0
 11
-565497.16
 21
-1187922.98
 31
0.0
  0
LWPOLYLINE
  5
2826
330
2A09
100
AcDbEntity
  8
Vrstva 63
  6
Continuous
 62
7
370
0
100
AcDbPolyline
 90
3
 70
128
 10
-565497.34
 20
-1187922.739
 10
-565497.16
 20
-1187922.98
 10
-565497.456
 20
-1187922.926
  0
TEXT
  5
2827
330
2A09
100
AcDbEntity
  8
Vrstva 63
  6
Continuous
 62
7
370
0
100
AcDbText
 10
-565497.47416
 20
-1187922.518357
 30
0.0
 40
0.4
  1
1.16
 50
58.084
  7
Style-cs_Working
 72
1
 11
-565497.367
 21
-1187921.968
 31
0.0
100
AcDbText
 73
2
  0
LINE
  5
2828
330
2A09
100
AcDbEntity
  8
Vrstva 63
  6
Continuous
 62
7
370
0
100
AcDbLine
 10
-565495.825
 20
-1187918.637
 30
0.0
 11
-565494.84
 21
-1187919.25
 31
0.0
  0
LWPOLYLINE
  5
2829
330
2A09
100
AcDbEntity
  8
Vrstva 63
  6
Continuous
 62
7
370
0
100
AcDbPolyline
 90
3
 70
128
 10
-565495.02
 20
-1187919.009
 10
-565494.84
 20
-1187919.25
 10
-565495.136
 20
-1187919.196
  0
TEXT
  5
282A
330
2A09
100
AcDbEntity
  8
Vrstva 63
  6
Continuous
 62
7
370
0
100
AcDbText
 10
-565495.94616
 20
-1187920.062357
 30
0.0
 40
0.4
  1
1.16
 50
58.084
  7
Style-cs_Working
 72
1
 11
-565495.839
 21
-1187919.512
 31
0.0
100
AcDbText
 73
2
  0
TEXT
  5
282B
330
2A09
100
AcDbEntity
  8
Vrstva 63
  6
Continuous
 62
7
370
0
100
AcDbText
 10
-565496.26144
 20
-1187921.63003
 30
0.0
 40
0.4
  1
0.36
 50
58.084
  7
Style-cs_Working
 72
1
 11
-565496.114
 21
-1187921.015
 31
0.0
100
AcDbText
 73
2
  0
LINE
  5
282C
330
2A09
100
AcDbEntity
  8
Vrstva 63
  6
Continuous
 62
7
370
0
100
AcDbLine
 10
-565496.59
 20
-1187921.779
 30
0.0
 11
-565496.953
 21
-1187922.363
 31
0.0
  0
LWPOLYLINE
  5
282D
330
2A09
100
AcDbEntity
  8
Vrstva 63
  6
Continuous
 62
7
370
0
100
AcDbPolyline
 90
3
 70
128
 10
-565496.712
 20
-1187922.183
 10
-565496.953
 20
-1187922.363
 10
-565496.898
 20
-1187922.067
  0
LINE
  5
282E
330
2A09
100
AcDbEntity
  8
Vrstva 63
  6
Continuous
 62
7
370
0
100
AcDbLine
 10
-565495.639
 20
-1187920.251
 30
0.0
 11
-565495.276
 21
-1187919.667
 31
0.0
  0
LWPOLYLINE
  5
282F
330
2A09
100
AcDbEntity
  8
Vrstva 63
  6
Continuous
 62
7
370
0
100
AcDbPolyline
 90
3
 70
128
 10
-565495.517
 20
-1187919.847
 10
-565495.276
 20
-1187919.667
 10
-565495.33
 20
-1187919.963
  0
TEXT
  5
2830
330
2A09
100
AcDbEntity
  8
Vrstva 63
  6
Continuous
 62
7
370
0
100
AcDbText
 10
-565498.650886
 20
-1187922.440475
 30
0.0
 40
0.4
  1
0.73
 50
148.084
  7
Style-cs_Working
 72
1
 11
-565499.274
 21
-1187922.288
 31
0.0
100
AcDbText
 73
2
  0
TEXT
  5
2831
330
2A09
100
AcDbEntity
  8
Vrstva 63
  6
Continuous
 62
7
370
0
100
AcDbText
 10
-565495.553886
 20
-1187918.560475
 30
0.0
 40
0.4
  1
0.70
 50
148.084
  7
Style-cs_Working
 72
1
 11
-565496.177
 21
-1187918.408
 31
0.0
100
AcDbText
 73
2
  0
LINE
  5
2832
330
2A09
100
AcDbEntity
  8
Vrstva 63
  6
Continuous
 62
7
370
0
100
AcDbLine
 10
-565483.478
 20
-1187896.174
 30
0.0
 11
-565480.553
 21
-1187891.552
 31
0.0
  0
LWPOLYLINE
  5
2833
330
2A09
100
AcDbEntity
  8
Vrstva 63
  6
Continuous
 62
7
370
0
100
AcDbPolyline
 90
3
 70
128
 10
-565483.418
 20
-1187895.798
 10
-565483.478
 20
-1187896.174
 10
-565483.164
 20
-1187895.959
  0
TEXT
  5
2834
330
2A09
100
AcDbEntity
  8
Vrstva 63
  6
Continuous
 62
7
370
0
100
AcDbText
 10
-565480.983006
 20
-1187891.764987
 30
0.0
 40
0.4
  1
5.47
 50
57.667
  7
Style-cs_Working
 72
1
 11
-565480.826
 21
-1187891.143
 31
0.0
100
AcDbText
 73
2
  0
LINE
  5
2835
330
2A09
100
AcDbEntity
  8
Vrstva 63
  6
Continuous
 62
7
370
0
100
AcDbLine
 10
-565480.919
 20
-1187891.888
 30
0.0
 11
-565480.192
 21
-1187890.739
 31
0.0
  0
LINE
  5
2836
330
2A09
100
AcDbEntity
  8
Vrstva 63
  6
Continuous
 62
7
370
0
100
AcDbLine
 10
-565480.809
 20
-1187891.958
 30
0.0
 11
-565480.082
 21
-1187890.809
 31
0.0
  0
LINE
  5
2837
330
2A09
100
AcDbEntity
  8
Vrstva 63
  6
Continuous
 62
7
370
0
100
AcDbLine
 10
-565479.355
 20
-1187894.077
 30
0.0
 11
-565478.694
 21
-1187893.016
 31
0.0
  0
LWPOLYLINE
  5
2838
330
2A09
100
AcDbEntity
  8
Vrstva 63
  6
Continuous
 62
7
370
0
100
AcDbPolyline
 90
3
 70
128
 10
-565478.936
 20
-1187893.196
 10
-565478.694
 20
-1187893.016
 10
-565478.749
 20
-1187893.312
  0
TEXT
  5
2839
330
2A09
100
AcDbEntity
  8
Vrstva 63
  6
Continuous
 62
7
370
0
100
AcDbText
 10
-565479.857335
 20
-1187895.261777
 30
0.0
 40
0.4
  1
1.52
 50
58.084
  7
Style-cs_Working
 72
1
 11
-565479.725
 21
-1187894.671
 31
0.0
100
AcDbText
 73
2
  0
LINE
  5
283A
330
2A09
100
AcDbEntity
  8
Vrstva 63
  6
Continuous
 62
7
370
0
100
AcDbLine
 10
-565478.836
 20
-1187891.832
 30
0.0
 11
-565477.945
 21
-1187892.387
 31
0.0
  0
LWPOLYLINE
  5
283B
330
2A09
100
AcDbEntity
  8
Vrstva 63
  6
Continuous
 62
7
370
0
100
AcDbPolyline
 90
3
 70
128
 10
-565478.124
 20
-1187892.146
 10
-565477.945
 20
-1187892.387
 10
-565478.241
 20
-1187892.332
  0
TEXT
  5
283C
330
2A09
100
AcDbEntity
  8
Vrstva 63
  6
Continuous
 62
7
370
0
100
AcDbText
 10
-565478.147335
 20
-1187891.873777
 30
0.0
 40
0.4
  1
1.05
 50
58.084
  7
Style-cs_Working
 72
1
 11
-565478.015
 21
-1187891.283
 31
0.0
100
AcDbText
 73
2
  0
LINE
  5
283D
330
2A09
100
AcDbEntity
  8
Vrstva 63
  6
Continuous
 62
7
370
0
100
AcDbLine
 10
-565476.306
 20
-1187887.835
 30
0.0
 11
-565475.415
 21
-1187888.391
 31
0.0
  0
LWPOLYLINE
  5
283E
330
2A09
100
AcDbEntity
  8
Vrstva 63
  6
Continuous
 62
7
370
0
100
AcDbPolyline
 90
3
 70
128
 10
-565475.594
 20
-1187888.149
 10
-565475.415
 20
-1187888.391
 10
-565475.711
 20
-1187888.336
  0
TEXT
  5
283F
330
2A09
100
AcDbEntity
  8
Vrstva 63
  6
Continuous
 62
7
370
0
100
AcDbText
 10
-565475.564335
 20
-1187887.792777
 30
0.0
 40
0.4
  1
1.05
 50
58.084
  7
Style-cs_Working
 72
1
 11
-565475.432
 21
-1187887.202
 31
0.0
100
AcDbText
 73
2
  0
TEXT
  5
2840
330
2A09
100
AcDbEntity
  8
Vrstva 63
  6
Continuous
 62
7
370
0
100
AcDbText
 10
-565476.828475
 20
-1187891.379114
 30
0.0
 40
0.4
  1
0.42
 50
58.084
  7
Style-cs_Working
 72
1
 11
-565476.676
 21
-1187890.756
 31
0.0
100
AcDbText
 73
2
  0
LINE
  5
2841
330
2A09
100
AcDbEntity
  8
Vrstva 63
  6
Continuous
 62
7
370
0
100
AcDbLine
 10
-565477.211
 20
-1187891.601
 30
0.0
 11
-565477.465
 21
-1187892.003
 31
0.0
  0
LWPOLYLINE
  5
2842
330
2A09
100
AcDbEntity
  8
Vrstva 63
  6
Continuous
 62
7
370
0
100
AcDbPolyline
 90
3
 70
128
 10
-565477.222
 20
-1187891.825
 10
-565477.465
 20
-1187892.003
 10
-565477.408
 20
-1187891.707
  0
LINE
  5
2843
330
2A09
100
AcDbEntity
  8
Vrstva 63
  6
Continuous
 62
7
370
0
100
AcDbLine
 10
-565476.141
 20
-1187889.912
 30
0.0
 11
-565475.673
 21
-1187889.172
 31
0.0
  0
LWPOLYLINE
  5
2844
330
2A09
100
AcDbEntity
  8
Vrstva 63
  6
Continuous
 62
7
370
0
100
AcDbPolyline
 90
3
 70
128
 10
-565475.916
 20
-1187889.35
 10
-565475.673
 20
-1187889.172
 10
-565475.73
 20
-1187889.468
  0
TEXT
  5
2845
330
2A09
100
AcDbEntity
  8
Vrstva 63
  6
Continuous
 62
7
370
0
100
AcDbText
 10
-565479.15144
 20
-1187891.87103
 30
0.0
 40
0.4
  1
0.76
 50
58.084
  7
Style-cs_Working
 72
1
 11
-565479.004
 21
-1187891.256
 31
0.0
100
AcDbText
 73
2
  0
TEXT
  5
2846
330
2A09
100
AcDbEntity
  8
Vrstva 63
  6
Continuous
 62
7
370
0
100
AcDbText
 10
-565477.375475
 20
-1187889.065114
 30
0.0
 40
0.4
  1
0.77
 50
58.084
  7
Style-cs_Working
 72
1
 11
-565477.223
 21
-1187888.442
 31
0.0
100
AcDbText
 73
2
  0
LINE
  5
2847
330
2A09
100
AcDbEntity
  8
Vrstva 63
  6
Continuous
 62
7
370
0
100
AcDbLine
 10
-565474.367
 20
-1187884.772
 30
0.0
 11
-565473.157
 21
-1187885.522
 31
0.0
  0
LWPOLYLINE
  5
2848
330
2A09
100
AcDbEntity
  8
Vrstva 63
  6
Continuous
 62
7
370
0
100
AcDbPolyline
 90
3
 70
128
 10
-565473.337
 20
-1187885.281
 10
-565473.157
 20
-1187885.522
 10
-565473.453
 20
-1187885.468
  0
TEXT
  5
2849
330
2A09
100
AcDbEntity
  8
Vrstva 63
  6
Continuous
 62
7
370
0
100
AcDbText
 10
-565473.513886
 20
-1187885.891475
 30
0.0
 40
0.4
  1
0.90
 50
148.084
  7
Style-cs_Working
 72
1
 11
-565474.137
 21
-1187885.739
 31
0.0
100
AcDbText
 73
2
  0
LINE
  5
284A
330
2A09
100
AcDbEntity
  8
Vrstva 63
  6
Continuous
 62
7
370
0
100
AcDbLine
 10
-565471.593
 20
-1187884.193
 30
0.0
 11
-565472.261
 21
-1187885.249
 31
0.0
  0
LWPOLYLINE
  5
284B
330
2A09
100
AcDbEntity
  8
Vrstva 63
  6
Continuous
 62
7
370
0
100
AcDbPolyline
 90
3
 70
128
 10
-565472.019
 20
-1187885.071
 10
-565472.261
 20
-1187885.249
 10
-565472.204
 20
-1187884.953
  0
TEXT
  5
284C
330
2A09
100
AcDbEntity
  8
Vrstva 63
  6
Continuous
 62
7
370
0
100
AcDbText
 10
-565471.350335
 20
-1187884.191777
 30
0.0
 40
0.4
  1
1.25
 50
58.084
  7
Style-cs_Working
 72
1
 11
-565471.218
 21
-1187883.601
 31
0.0
100
AcDbText
 73
2
  0
LINE
  5
284D
330
2A09
100
AcDbEntity
  8
Vrstva 63
  6
Continuous
 62
7
370
0
100
AcDbLine
 10
-565473.196
 20
-1187889.21
 30
0.0
 11
-565471.306
 21
-1187886.19
 31
0.0
  0
LWPOLYLINE
  5
284E
330
2A09
100
AcDbEntity
  8
Vrstva 63
  6
Continuous
 62
7
370
0
100
AcDbPolyline
 90
3
 70
128
 10
-565472.883
 20
-1187888.993
 10
-565473.196
 20
-1187889.21
 10
-565473.137
 20
-1187888.834
  0
TEXT
  5
284F
330
2A09
100
AcDbEntity
  8
Vrstva 63
  6
Continuous
 62
7
370
0
100
AcDbText
 10
-565470.96676
 20
-1187886.873712
 30
0.0
 40
0.4
  1
3.66
 50
57.961
  7
Style-cs_Working
 72
1
 11
-565470.818
 21
-1187886.259
 31
0.0
100
AcDbText
 73
2
  0
LINE
  5
2850
330
2A09
100
AcDbEntity
  8
Vrstva 63
  6
Continuous
 62
7
370
0
100
AcDbLine
 10
-565471.45
 20
-1187886.666
 30
0.0
 11
-565470.729
 21
-1187885.513
 31
0.0
  0
LINE
  5
2851
330
2A09
100
AcDbEntity
  8
Vrstva 63
  6
Continuous
 62
7
370
0
100
AcDbLine
 10
-565471.56
 20
-1187886.597
 30
0.0
 11
-565470.839
 21
-1187885.444
 31
0.0
  0
LINE
  5
2852
330
2A09
100
AcDbEntity
  8
Vrstva 63
  6
Continuous
 62
7
370
0
100
AcDbLine
 10
-565476.346
 20
-1187894.3
 30
0.0
 11
-565475.747
 21
-1187893.354
 31
0.0
  0
LWPOLYLINE
  5
2853
330
2A09
100
AcDbEntity
  8
Vrstva 63
  6
Continuous
 62
7
370
0
100
AcDbPolyline
 90
3
 70
128
 10
-565476.032
 20
-1187894.085
 10
-565476.346
 20
-1187894.3
 10
-565476.285
 20
-1187893.924
  0
TEXT
  5
2854
330
2A09
100
AcDbEntity
  8
Vrstva 63
  6
Continuous
 62
7
370
0
100
AcDbText
 10
-565475.376257
 20
-1187893.98261
 30
0.0
 40
0.4
  1
1.12
 50
57.667
  7
Style-cs_Working
 72
1
 11
-565475.26
 21
-1187893.425
 31
0.0
100
AcDbText
 73
2
  0
LINE
  5
2855
330
2A09
100
AcDbEntity
  8
Vrstva 63
  6
Continuous
 62
7
370
0
100
AcDbLine
 10
-565475.894
 20
-1187893.829
 30
0.0
 11
-565475.166
 21
-1187892.68
 31
0.0
  0
LINE
  5
2856
330
2A09
100
AcDbEntity
  8
Vrstva 63
  6
Continuous
 62
7
370
0
100
AcDbLine
 10
-565476.004
 20
-1187893.759
 30
0.0
 11
-565475.276
 21
-1187892.61
 31
0.0
  0
TEXT
  5
2857
330
2A09
100
AcDbEntity
  8
Vrstva 63
  6
Continuous
 62
7
370
0
100
AcDbText
 10
-565480.497643
 20
-1187928.15416
 30
0.0
 40
0.4
  1
0.61
 50
148.084
  7
Style-cs_Working
 72
1
 11
-565481.048
 21
-1187928.047
 31
0.0
100
AcDbText
 73
2
  0
LINE
  5
2858
330
2A09
100
AcDbEntity
  8
Vrstva 63
  6
Continuous
 62
7
370
0
100
AcDbLine
 10
-565476.327
 20
-1187924.718
 30
0.0
 11
-565477.388
 21
-1187924.057
 31
0.0
  0
LWPOLYLINE
  5
2859
330
2A09
100
AcDbEntity
  8
Vrstva 63
  6
Continuous
 62
7
370
0
100
AcDbPolyline
 90
3
 70
128
 10
-565477.208
 20
-1187924.299
 10
-565477.388
 20
-1187924.057
 10
-565477.092
 20
-1187924.112
  0
TEXT
  5
285A
330
2A09
100
AcDbEntity
  8
Vrstva 63
  6
Continuous
 62
7
370
0
100
AcDbText
 10
-565475.885475
 20
-1187925.711114
 30
0.0
 40
0.4
  1
0.20
 50
58.084
  7
Style-cs_Working
 72
1
 11
-565475.733
 21
-1187925.088
 31
0.0
100
AcDbText
 73
2
  0
LINE
  5
285B
330
2A09
100
AcDbEntity
  8
Vrstva 63
  6
Continuous
 62
7
370
0
100
AcDbLine
 10
-565476.547
 20
-1187928.757
 30
0.0
 11
-565477.208
 21
-1187929.818
 31
0.0
  0
LWPOLYLINE
  5
285C
330
2A09
100
AcDbEntity
  8
Vrstva 63
  6
Continuous
 62
7
370
0
100
AcDbPolyline
 90
3
 70
128
 10
-565476.966
 20
-1187929.638
 10
-565477.208
 20
-1187929.818
 10
-565477.153
 20
-1187929.522
  0
TEXT
  5
285D
330
2A09
100
AcDbEntity
  8
Vrstva 63
  6
Continuous
 62
7
370
0
100
AcDbText
 10
-565476.329475
 20
-1187928.786114
 30
0.0
 40
0.4
  1
0.20
 50
58.084
  7
Style-cs_Working
 72
1
 11
-565476.177
 21
-1187928.163
 31
0.0
100
AcDbText
 73
2
  0
LINE
  5
285E
330
2A09
100
AcDbEntity
  8
Vrstva 63
  6
Continuous
 62
7
370
0
100
AcDbLine
 10
-565472.228
 20
-1187923.333
 30
0.0
 11
-565471.567
 21
-1187922.272
 31
0.0
  0
LWPOLYLINE
  5
285F
330
2A09
100
AcDbEntity
  8
Vrstva 63
  6
Continuous
 62
7
370
0
100
AcDbPolyline
 90
3
 70
128
 10
-565471.809
 20
-1187922.452
 10
-565471.567
 20
-1187922.272
 10
-565471.622
 20
-1187922.568
  0
TEXT
  5
2860
330
2A09
100
AcDbEntity
  8
Vrstva 63
  6
Continuous
 62
7
370
0
100
AcDbText
 10
-565472.750475
 20
-1187924.550114
 30
0.0
 40
0.4
  1
0.20
 50
58.084
  7
Style-cs_Working
 72
1
 11
-565472.598
 21
-1187923.927
 31
0.0
100
AcDbText
 73
2
  0
LINE
  5
2861
330
2A09
100
AcDbEntity
  8
Vrstva 63
  6
Continuous
 62
7
370
0
100
AcDbLine
 10
-565473.673
 20
-1187936.568
 30
0.0
 11
-565473.012
 21
-1187935.507
 31
0.0
  0
LWPOLYLINE
  5
2862
330
2A09
100
AcDbEntity
  8
Vrstva 63
  6
Continuous
 62
7
370
0
100
AcDbPolyline
 90
3
 70
128
 10
-565473.254
 20
-1187935.687
 10
-565473.012
 20
-1187935.507
 10
-565473.067
 20
-1187935.803
  0
TEXT
  5
2863
330
2A09
100
AcDbEntity
  8
Vrstva 63
  6
Continuous
 62
7
370
0
100
AcDbText
 10
-565474.195475
 20
-1187937.785114
 30
0.0
 40
0.4
  1
0.35
 50
58.084
  7
Style-cs_Working
 72
1
 11
-565474.043
 21
-1187937.162
 31
0.0
100
AcDbText
 73
2
  0
LINE
  5
2864
330
2A09
100
AcDbEntity
  8
Vrstva 63
  6
Continuous
 62
7
370
0
100
AcDbLine
 10
-565472.9
 20
-1187932.076
 30
0.0
 11
-565471.19
 21
-1187933.243
 31
0.0
  0
LWPOLYLINE
  5
2865
330
2A09
100
AcDbEntity
  8
Vrstva 63
  6
Continuous
 62
7
370
0
100
AcDbPolyline
 90
3
 70
128
 10
-565472.526
 20
-1187932.149
 10
-565472.9
 20
-1187932.076
 10
-565472.695
 20
-1187932.397
  0
TEXT
  5
2866
330
2A09
100
AcDbEntity
  8
Vrstva 63
  6
Continuous
 62
7
370
0
100
AcDbText
 10
-565471.387204
 20
-1187932.80564
 30
0.0
 40
0.4
  1
2.07
 50
325.691
  7
Style-cs_Working
 72
1
 11
-565470.771
 21
-1187932.984
 31
0.0
100
AcDbText
 73
2
  0
LINE
  5
2867
330
2A09
100
AcDbEntity
  8
Vrstva 63
  6
Continuous
 62
7
370
0
100
AcDbLine
 10
-565471.513
 20
-1187932.865
 30
0.0
 11
-565470.39
 21
-1187933.631
 31
0.0
  0
LINE
  5
2868
330
2A09
100
AcDbEntity
  8
Vrstva 63
  6
Continuous
 62
7
370
0
100
AcDbLine
 10
-565471.587
 20
-1187932.972
 30
0.0
 11
-565470.463
 21
-1187933.739
 31
0.0
  0
LINE
  5
2869
330
2A09
100
AcDbEntity
  8
Vrstva 63
  6
Continuous
 62
7
370
0
100
AcDbLine
 10
-565472.266
 20
-1187931.057
 30
0.0
 11
-565469.076
 21
-1187933.037
 31
0.0
  0
LWPOLYLINE
  5
286A
330
2A09
100
AcDbEntity
  8
Vrstva 63
  6
Continuous
 62
7
370
0
100
AcDbPolyline
 90
3
 70
128
 10
-565471.889
 20
-1187931.114
 10
-565472.266
 20
-1187931.057
 10
-565472.047
 20
-1187931.369
  0
TEXT
  5
286B
330
2A09
100
AcDbEntity
  8
Vrstva 63
  6
Continuous
 62
7
370
0
100
AcDbText
 10
-565469.299442
 20
-1187932.60347
 30
0.0
 40
0.4
  1
3.74
 50
328.173
  7
Style-cs_Working
 72
1
 11
-565468.668
 21
-1187932.76
 31
0.0
100
AcDbText
 73
2
  0
LINE
  5
286C
330
2A09
100
AcDbEntity
  8
Vrstva 63
  6
Continuous
 62
7
370
0
100
AcDbLine
 10
-565469.415
 20
-1187932.674
 30
0.0
 11
-565468.259
 21
-1187933.391
 31
0.0
  0
LINE
  5
286D
330
2A09
100
AcDbEntity
  8
Vrstva 63
  6
Continuous
 62
7
370
0
100
AcDbLine
 10
-565469.483
 20
-1187932.784
 30
0.0
 11
-565468.328
 21
-1187933.501
 31
0.0
  0
LINE
  5
286E
330
2A09
100
AcDbEntity
  8
Vrstva 63
  6
Continuous
 62
7
370
0
100
AcDbLine
 10
-565471.83
 20
-1187940.296
 30
0.0
 11
-565471.169
 21
-1187939.235
 31
0.0
  0
LWPOLYLINE
  5
286F
330
2A09
100
AcDbEntity
  8
Vrstva 63
  6
Continuous
 62
7
370
0
100
AcDbPolyline
 90
3
 70
128
 10
-565471.41
 20
-1187939.415
 10
-565471.169
 20
-1187939.235
 10
-565471.224
 20
-1187939.531
  0
TEXT
  5
2870
330
2A09
100
AcDbEntity
  8
Vrstva 63
  6
Continuous
 62
7
370
0
100
AcDbText
 10
-565472.332335
 20
-1187941.480777
 30
0.0
 40
0.4
  1
0.18
 50
58.084
  7
Style-cs_Working
 72
1
 11
-565472.2
 21
-1187940.89
 31
0.0
100
AcDbText
 73
2
  0
LINE
  5
2871
330
2A09
100
AcDbEntity
  8
Vrstva 63
  6
Continuous
 62
7
370
0
100
AcDbLine
 10
-565473.811
 20
-1187917.547
 30
0.0
 11
-565474.921
 21
-1187919.33
 31
0.0
  0
LWPOLYLINE
  5
2872
330
2A09
100
AcDbEntity
  8
Vrstva 63
  6
Continuous
 62
7
370
0
100
AcDbPolyline
 90
3
 70
128
 10
-565474.68
 20
-1187919.15
 10
-565474.921
 20
-1187919.33
 10
-565474.867
 20
-1187919.034
  0
TEXT
  5
2873
330
2A09
100
AcDbEntity
  8
Vrstva 63
  6
Continuous
 62
7
370
0
100
AcDbText
 10
-565473.593475
 20
-1187917.576114
 30
0.0
 40
0.4
  1
0.28
 50
58.084
  7
Style-cs_Working
 72
1
 11
-565473.441
 21
-1187916.953
 31
0.0
100
AcDbText
 73
2
  0
LINE
  5
2874
330
2A09
100
AcDbEntity
  8
Vrstva 63
  6
Continuous
 62
7
370
0
100
AcDbLine
 10
-565471.117
 20
-1187916.383
 30
0.0
 11
-565472.178
 21
-1187915.722
 31
0.0
  0
LWPOLYLINE
  5
2875
330
2A09
100
AcDbEntity
  8
Vrstva 63
  6
Continuous
 62
7
370
0
100
AcDbPolyline
 90
3
 70
128
 10
-565471.998
 20
-1187915.964
 10
-565472.178
 20
-1187915.722
 10
-565471.882
 20
-1187915.777
  0
TEXT
  5
2876
330
2A09
100
AcDbEntity
  8
Vrstva 63
  6
Continuous
 62
7
370
0
100
AcDbText
 10
-565470.675475
 20
-1187917.376114
 30
0.0
 40
0.4
  1
0.28
 50
58.084
  7
Style-cs_Working
 72
1
 11
-565470.523
 21
-1187916.753
 31
0.0
100
AcDbText
 73
2
  0
LINE
  5
2877
330
2A09
100
AcDbEntity
  8
Vrstva 63
  6
Continuous
 62
7
370
0
100
AcDbLine
 10
-565467.662
 20
-1187910.893
 30
0.0
 11
-565468.723
 21
-1187910.232
 31
0.0
  0
LWPOLYLINE
  5
2878
330
2A09
100
AcDbEntity
  8
Vrstva 63
  6
Continuous
 62
7
370
0
100
AcDbPolyline
 90
3
 70
128
 10
-565468.543
 20
-1187910.474
 10
-565468.723
 20
-1187910.232
 10
-565468.427
 20
-1187910.287
  0
TEXT
  5
2879
330
2A09
100
AcDbEntity
  8
Vrstva 63
  6
Continuous
 62
7
370
0
100
AcDbText
 10
-565467.220475
 20
-1187911.886114
 30
0.0
 40
0.4
  1
0.28
 50
58.084
  7
Style-cs_Working
 72
1
 11
-565467.068
 21
-1187911.263
 31
0.0
100
AcDbText
 73
2
  0
LINE
  5
287A
330
2A09
100
AcDbEntity
  8
Vrstva 63
  6
Continuous
 62
7
370
0
100
AcDbLine
 10
-565463.953
 20
-1187909.718
 30
0.0
 11
-565463.292
 21
-1187908.657
 31
0.0
  0
LWPOLYLINE
  5
287B
330
2A09
100
AcDbEntity
  8
Vrstva 63
  6
Continuous
 62
7
370
0
100
AcDbPolyline
 90
3
 70
128
 10
-565463.534
 20
-1187908.837
 10
-565463.292
 20
-1187908.657
 10
-565463.347
 20
-1187908.953
  0
TEXT
  5
287C
330
2A09
100
AcDbEntity
  8
Vrstva 63
  6
Continuous
 62
7
370
0
100
AcDbText
 10
-565464.475475
 20
-1187910.935114
 30
0.0
 40
0.4
  1
0.27
 50
58.084
  7
Style-cs_Working
 72
1
 11
-565464.323
 21
-1187910.312
 31
0.0
100
AcDbText
 73
2
  0
LINE
  5
287D
330
2A09
100
AcDbEntity
  8
Vrstva 63
  6
Continuous
 62
7
370
0
100
AcDbLine
 10
-565460.261
 20
-1187914.269
 30
0.0
 11
-565460.921
 21
-1187915.33
 31
0.0
  0
LWPOLYLINE
  5
287E
330
2A09
100
AcDbEntity
  8
Vrstva 63
  6
Continuous
 62
7
370
0
100
AcDbPolyline
 90
3
 70
128
 10
-565460.68
 20
-1187915.151
 10
-565460.921
 20
-1187915.33
 10
-565460.867
 20
-1187915.034
  0
TEXT
  5
287F
330
2A09
100
AcDbEntity
  8
Vrstva 63
  6
Continuous
 62
7
370
0
100
AcDbText
 10
-565460.043475
 20
-1187914.298114
 30
0.0
 40
0.4
  1
0.95
 50
58.084
  7
Style-cs_Working
 72
1
 11
-565459.891
 21
-1187913.675
 31
0.0
100
AcDbText
 73
2
  0
LINE
  5
2880
330
2A09
100
AcDbEntity
  8
Vrstva 63
  6
Continuous
 62
7
370
0
100
AcDbLine
 10
-565449.483
 20
-1187892.337
 30
0.0
 11
-565448.422
 21
-1187892.998
 31
0.0
  0
LWPOLYLINE
  5
2881
330
2A09
100
AcDbEntity
  8
Vrstva 63
  6
Continuous
 62
7
370
0
100
AcDbPolyline
 90
3
 70
128
 10
-565448.602
 20
-1187892.756
 10
-565448.422
 20
-1187892.998
 10
-565448.718
 20
-1187892.943
  0
TEXT
  5
2882
330
2A09
100
AcDbEntity
  8
Vrstva 63
  6
Continuous
 62
7
370
0
100
AcDbText
 10
-565450.23451
 20
-1187892.598198
 30
0.0
 40
0.4
  1
0.44
 50
58.084
  7
Style-cs_Working
 72
1
 11
-565450.077
 21
-1187891.967
 31
0.0
100
AcDbText
 73
2
  0
LINE
  5
2883
330
2A09
100
AcDbEntity
  8
Vrstva 63
  6
Continuous
 62
7
370
0
100
AcDbLine
 10
-565449.663
 20
-1187895.464
 30
0.0
 11
-565448.186
 21
-1187896.384
 31
0.0
  0
LWPOLYLINE
  5
2884
330
2A09
100
AcDbEntity
  8
Vrstva 63
  6
Continuous
 62
7
370
0
100
AcDbPolyline
 90
3
 70
128
 10
-565449.287
 20
-1187895.521
 10
-565449.663
 20
-1187895.464
 10
-565449.446
 20
-1187895.776
  0
TEXT
  5
2885
330
2A09
100
AcDbEntity
  8
Vrstva 63
  6
Continuous
 62
7
370
0
100
AcDbText
 10
-565448.368777
 20
-1187895.974665
 30
0.0
 40
0.4
  1
1.38
 50
328.084
  7
Style-cs_Working
 72
1
 11
-565447.778
 21
-1187896.107
 31
0.0
100
AcDbText
 73
2
  0
LINE
  5
2886
330
2A09
100
AcDbEntity
  8
Vrstva 63
  6
Continuous
 62
7
370
0
100
AcDbLine
 10
-565448.525
 20
-1187896.02
 30
0.0
 11
-565447.37
 21
-1187896.739
 31
0.0
  0
LINE
  5
2887
330
2A09
100
AcDbEntity
  8
Vrstva 63
  6
Continuous
 62
7
370
0
100
AcDbLine
 10
-565448.594
 20
-1187896.13
 30
0.0
 11
-565447.439
 21
-1187896.849
 31
0.0
  0
LINE
  5
2888
330
2A09
100
AcDbEntity
  8
Vrstva 63
  6
Continuous
 62
7
370
0
100
AcDbLine
 10
-565449.589
 20
-1187898.033
 30
0.0
 11
-565448.695
 21
-1187896.066
 31
0.0
  0
LWPOLYLINE
  5
2889
330
2A09
100
AcDbEntity
  8
Vrstva 63
  6
Continuous
 62
7
370
0
100
AcDbPolyline
 90
3
 70
128
 10
-565449.581
 20
-1187897.652
 10
-565449.589
 20
-1187898.033
 10
-565449.308
 20
-1187897.776
  0
TEXT
  5
288A
330
2A09
100
AcDbEntity
  8
Vrstva 63
  6
Continuous
 62
7
370
0
100
AcDbText
 10
-565449.072476
 20
-1187896.292297
 30
0.0
 40
0.4
  1
2.16
 50
65.553
  7
Style-cs_Working
 72
1
 11
-565449.022
 21
-1187895.698
 31
0.0
100
AcDbText
 73
2
  0
LINE
  5
288B
330
2A09
100
AcDbEntity
  8
Vrstva 63
  6
Continuous
 62
7
370
0
100
AcDbLine
 10
-565449.012
 20
-1187896.45
 30
0.0
 11
-565448.45
 21
-1187895.212
 31
0.0
  0
LINE
  5
288C
330
2A09
100
AcDbEntity
  8
Vrstva 63
  6
Continuous
 62
7
370
0
100
AcDbLine
 10
-565448.894
 20
-1187896.503
 30
0.0
 11
-565448.331
 21
-1187895.265
 31
0.0
  0
LINE
  5
288D
330
2A09
100
AcDbEntity
  8
Vrstva 63
  6
Continuous
 62
7
370
0
100
AcDbLine
 10
-565446.973
 20
-1187890.891
 30
0.0
 11
-565445.759
 21
-1187891.647
 31
0.0
  0
LWPOLYLINE
  5
288E
330
2A09
100
AcDbEntity
  8
Vrstva 63
  6
Continuous
 62
7
370
0
100
AcDbPolyline
 90
3
 70
128
 10
-565446.596
 20
-1187890.948
 10
-565446.973
 20
-1187890.891
 10
-565446.755
 20
-1187891.203
  0
TEXT
  5
288F
330
2A09
100
AcDbEntity
  8
Vrstva 63
  6
Continuous
 62
7
370
0
100
AcDbText
 10
-565445.941777
 20
-1187891.237665
 30
0.0
 40
0.4
  1
1.43
 50
328.084
  7
Style-cs_Working
 72
1
 11
-565445.351
 21
-1187891.37
 31
0.0
100
AcDbText
 73
2
  0
LINE
  5
2890
330
2A09
100
AcDbEntity
  8
Vrstva 63
  6
Continuous
 62
7
370
0
100
AcDbLine
 10
-565446.098
 20
-1187891.283
 30
0.0
 11
-565444.943
 21
-1187892.002
 31
0.0
  0
LINE
  5
2891
330
2A09
100
AcDbEntity
  8
Vrstva 63
  6
Continuous
 62
7
370
0
100
AcDbLine
 10
-565446.166
 20
-1187891.393
 30
0.0
 11
-565445.012
 21
-1187892.112
 31
0.0
  0
LINE
  5
2892
330
2A09
100
AcDbEntity
  8
Vrstva 63
  6
Continuous
 62
7
370
0
100
AcDbLine
 10
-565446.497
 20
-1187890.127
 30
0.0
 11
-565444.655
 21
-1187891.274
 31
0.0
  0
LWPOLYLINE
  5
2893
330
2A09
100
AcDbEntity
  8
Vrstva 63
  6
Continuous
 62
7
370
0
100
AcDbPolyline
 90
3
 70
128
 10
-565446.121
 20
-1187890.184
 10
-565446.497
 20
-1187890.127
 10
-565446.279
 20
-1187890.439
  0
TEXT
  5
2894
330
2A09
100
AcDbEntity
  8
Vrstva 63
  6
Continuous
 62
7
370
0
100
AcDbText
 10
-565444.837777
 20
-1187890.865665
 30
0.0
 40
0.4
  1
2.17
 50
328.084
  7
Style-cs_Working
 72
1
 11
-565444.247
 21
-1187890.998
 31
0.0
100
AcDbText
 73
2
  0
LINE
  5
2895
330
2A09
100
AcDbEntity
  8
Vrstva 63
  6
Continuous
 62
7
370
0
100
AcDbLine
 10
-565444.994
 20
-1187890.91
 30
0.0
 11
-565443.839
 21
-1187891.629
 31
0.0
  0
LINE
  5
2896
330
2A09
100
AcDbEntity
  8
Vrstva 63
  6
Continuous
 62
7
370
0
100
AcDbLine
 10
-565445.062
 20
-1187891.02
 30
0.0
 11
-565443.908
 21
-1187891.739
 31
0.0
  0
LINE
  5
2897
330
2A09
100
AcDbEntity
  8
Vrstva 63
  6
Continuous
 62
7
370
0
100
AcDbLine
 10
-565446.721
 20
-1187893.35
 30
0.0
 11
-565445.465
 21
-1187894.133
 31
0.0
  0
LWPOLYLINE
  5
2898
330
2A09
100
AcDbEntity
  8
Vrstva 63
  6
Continuous
 62
7
370
0
100
AcDbPolyline
 90
3
 70
128
 10
-565446.345
 20
-1187893.408
 10
-565446.721
 20
-1187893.35
 10
-565446.504
 20
-1187893.663
  0
TEXT
  5
2899
330
2A09
100
AcDbEntity
  8
Vrstva 63
  6
Continuous
 62
7
370
0
100
AcDbText
 10
-565445.647777
 20
-1187893.723665
 30
0.0
 40
0.4
  1
1.48
 50
328.084
  7
Style-cs_Working
 72
1
 11
-565445.057
 21
-1187893.856
 31
0.0
100
AcDbText
 73
2
  0
LINE
  5
289A
330
2A09
100
AcDbEntity
  8
Vrstva 63
  6
Continuous
 62
7
370
0
100
AcDbLine
 10
-565445.804
 20
-1187893.769
 30
0.0
 11
-565444.649
 21
-1187894.488
 31
0.0
  0
LINE
  5
289B
330
2A09
100
AcDbEntity
  8
Vrstva 63
  6
Continuous
 62
7
370
0
100
AcDbLine
 10
-565445.873
 20
-1187893.879
 30
0.0
 11
-565444.718
 21
-1187894.598
 31
0.0
  0
LINE
  5
289C
330
2A09
100
AcDbEntity
  8
Vrstva 63
  6
Continuous
 62
7
370
0
100
AcDbLine
 10
-565448.175
 20
-1187900.681
 30
0.0
 11
-565447.515
 21
-1187899.62
 31
0.0
  0
LWPOLYLINE
  5
289D
330
2A09
100
AcDbEntity
  8
Vrstva 63
  6
Continuous
 62
7
370
0
100
AcDbPolyline
 90
3
 70
128
 10
-565447.756
 20
-1187899.799
 10
-565447.515
 20
-1187899.62
 10
-565447.569
 20
-1187899.915
  0
TEXT
  5
289E
330
2A09
100
AcDbEntity
  8
Vrstva 63
  6
Continuous
 62
7
370
0
100
AcDbText
 10
-565448.697475
 20
-1187901.898114
 30
0.0
 40
0.4
  1
0.40
 50
58.084
  7
Style-cs_Working
 72
1
 11
-565448.545
 21
-1187901.275
 31
0.0
100
AcDbText
 73
2
  0
LINE
  5
289F
330
2A09
100
AcDbEntity
  8
Vrstva 63
  6
DGN Style 2
 62
7
370
0
100
AcDbLine
 10
-565448.21
 20
-1187893.13
 30
0.0
 11
-565446.663
 21
-1187884.823
 31
0.0
  0
TEXT
  5
28A0
330
2A09
100
AcDbEntity
  8
Vrstva 63
  6
Continuous
 62
7
370
0
100
AcDbText
 10
-565447.775936
 20
-1187889.347833
 30
0.0
 40
0.4
  1
8.45
 50
79.454
  7
Style-cs_Working
 72
1
 11
-565447.861
 21
-1187888.712
 31
0.0
100
AcDbText
 73
2
  0
LINE
  5
28A1
330
2A09
100
AcDbEntity
  8
Vrstva 63
  6
DGN Style 2
 62
7
370
0
100
AcDbLine
 10
-565441.5
 20
-1187882.48
 30
0.0
 11
-565446.663
 21
-1187884.823
 31
0.0
  0
TEXT
  5
28A2
330
2A09
100
AcDbEntity
  8
Vrstva 63
  6
Continuous
 62
7
370
0
100
AcDbText
 10
-565444.978425
 20
-1187883.820975
 30
0.0
 40
0.4
  1
5.67
 50
24.405
  7
Style-cs_Working
 72
1
 11
-565444.506
 21
-1187883.387
 31
0.0
100
AcDbText
 73
2
  0
LINE
  5
28A3
330
2A09
100
AcDbEntity
  8
Vrstva 63
  6
Continuous
 62
7
370
0
100
AcDbLine
 10
-565486.145
 20
-1187921.63
 30
0.0
 11
-565486.909
 21
-1187921.154
 31
0.0
  0
LINE
  5
28A4
330
2A09
100
AcDbEntity
  8
Vrstva 63
  6
Continuous
 62
7
370
0
100
AcDbLine
 10
-565486.909
 20
-1187921.154
 30
0.0
 11
-565487.304
 21
-1187920.235
 31
0.0
  0
LWPOLYLINE
  5
28A5
330
2A09
100
AcDbEntity
  8
Vrstva 63
  6
Continuous
 62
7
370
0
100
AcDbPolyline
 90
3
 70
128
 10
-565487.294
 20
-1187920.536
 10
-565487.304
 20
-1187920.235
 10
-565487.092
 20
-1187920.449
  0
LINE
  5
28A6
330
2A09
100
AcDbEntity
  8
Vrstva 63
  6
Continuous
 62
7
370
0
100
AcDbLine
 10
-565486.909
 20
-1187921.154
 30
0.0
 11
-565487.907
 21
-1187921.211
 31
0.0
  0
LWPOLYLINE
  5
28A7
330
2A09
100
AcDbEntity
  8
Vrstva 63
  6
Continuous
 62
7
370
0
100
AcDbPolyline
 90
3
 70
128
 10
-565487.622
 20
-1187921.305
 10
-565487.907
 20
-1187921.211
 10
-565487.634
 20
-1187921.085
  0
LINE
  5
28A8
330
2A09
100
AcDbEntity
  8
Vrstva 63
  6
Continuous
 62
7
370
0
100
AcDbLine
 10
-565475.14
 20
-1187904.125
 30
0.0
 11
-565475.904
 21
-1187903.649
 31
0.0
  0
LINE
  5
28A9
330
2A09
100
AcDbEntity
  8
Vrstva 63
  6
Continuous
 62
7
370
0
100
AcDbLine
 10
-565475.904
 20
-1187903.649
 30
0.0
 11
-565476.296
 21
-1187902.729
 31
0.0
  0
LWPOLYLINE
  5
28AA
330
2A09
100
AcDbEntity
  8
Vrstva 63
  6
Continuous
 62
7
370
0
100
AcDbPolyline
 90
3
 70
128
 10
-565476.288
 20
-1187903.03
 10
-565476.296
 20
-1187902.729
 10
-565476.085
 20
-1187902.944
  0
LINE
  5
28AB
330
2A09
100
AcDbEntity
  8
Vrstva 63
  6
Continuous
 62
7
370
0
100
AcDbLine
 10
-565475.904
 20
-1187903.649
 30
0.0
 11
-565476.902
 21
-1187903.703
 31
0.0
  0
LWPOLYLINE
  5
28AC
330
2A09
100
AcDbEntity
  8
Vrstva 63
  6
Continuous
 62
7
370
0
100
AcDbPolyline
 90
3
 70
128
 10
-565476.617
 20
-1187903.798
 10
-565476.902
 20
-1187903.703
 10
-565476.629
 20
-1187903.578
  0
LINE
  5
28AD
330
2A09
100
AcDbEntity
  8
Vrstva 63
  6
Continuous
 62
7
370
0
100
AcDbLine
 10
-565469.48
 20
-1187895.135
 30
0.0
 11
-565469.938
 21
-1187894.85
 31
0.0
  0
LINE
  5
28AE
330
2A09
100
AcDbEntity
  8
Vrstva 63
  6
Continuous
 62
7
370
0
100
AcDbLine
 10
-565469.938
 20
-1187894.85
 30
0.0
 11
-565470.178
 21
-1187894.3
 31
0.0
  0
LWPOLYLINE
  5
28AF
330
2A09
100
AcDbEntity
  8
Vrstva 63
  6
Continuous
 62
7
370
0
100
AcDbPolyline
 90
3
 70
128
 10
-565470.167
 20
-1187894.6
 10
-565470.178
 20
-1187894.3
 10
-565469.966
 20
-1187894.512
  0
LINE
  5
28B0
330
2A09
100
AcDbEntity
  8
Vrstva 63
  6
Continuous
 62
7
370
0
100
AcDbLine
 10
-565469.938
 20
-1187894.85
 30
0.0
 11
-565470.537
 21
-1187894.887
 31
0.0
  0
LWPOLYLINE
  5
28B1
330
2A09
100
AcDbEntity
  8
Vrstva 63
  6
Continuous
 62
7
370
0
100
AcDbPolyline
 90
3
 70
128
 10
-565470.251
 20
-1187894.979
 10
-565470.537
 20
-1187894.887
 10
-565470.265
 20
-1187894.76
  0
LINE
  5
28B2
330
2A09
100
AcDbEntity
  8
Vrstva 63
  6
Continuous
 62
7
370
0
100
AcDbLine
 10
-565467.02
 20
-1187891.125
 30
0.0
 11
-565467.784
 21
-1187890.649
 31
0.0
  0
LINE
  5
28B3
330
2A09
100
AcDbEntity
  8
Vrstva 63
  6
Continuous
 62
7
370
0
100
AcDbLine
 10
-565467.784
 20
-1187890.649
 30
0.0
 11
-565468.167
 21
-1187889.726
 31
0.0
  0
LWPOLYLINE
  5
28B4
330
2A09
100
AcDbEntity
  8
Vrstva 63
  6
Continuous
 62
7
370
0
100
AcDbPolyline
 90
3
 70
128
 10
-565468.162
 20
-1187890.026
 10
-565468.167
 20
-1187889.726
 10
-565467.958
 20
-1187889.942
  0
LINE
  5
28B5
330
2A09
100
AcDbEntity
  8
Vrstva 63
  6
Continuous
 62
7
370
0
100
AcDbLine
 10
-565467.784
 20
-1187890.649
 30
0.0
 11
-565468.783
 21
-1187890.693
 31
0.0
  0
LWPOLYLINE
  5
28B6
330
2A09
100
AcDbEntity
  8
Vrstva 63
  6
Continuous
 62
7
370
0
100
AcDbPolyline
 90
3
 70
128
 10
-565468.498
 20
-1187890.791
 10
-565468.783
 20
-1187890.693
 10
-565468.508
 20
-1187890.571
  0
LINE
  5
28B7
330
2A09
100
AcDbEntity
  8
Vrstva 63
  6
Continuous
 62
7
370
0
100
AcDbLine
 10
-565471.8
 20
-1187937.305
 30
0.0
 11
-565471.036
 21
-1187937.781
 31
0.0
  0
LINE
  5
28B8
330
2A09
100
AcDbEntity
  8
Vrstva 63
  6
Continuous
 62
7
370
0
100
AcDbLine
 10
-565471.036
 20
-1187937.781
 30
0.0
 11
-565470.039
 21
-1187937.71
 31
0.0
  0
LWPOLYLINE
  5
28B9
330
2A09
100
AcDbEntity
  8
Vrstva 63
  6
Continuous
 62
7
370
0
100
AcDbPolyline
 90
3
 70
128
 10
-565470.326
 20
-1187937.62
 10
-565470.039
 20
-1187937.71
 10
-565470.31
 20
-1187937.839
  0
LINE
  5
28BA
330
2A09
100
AcDbEntity
  8
Vrstva 63
  6
Continuous
 62
7
370
0
100
AcDbLine
 10
-565471.036
 20
-1187937.781
 30
0.0
 11
-565470.628
 21
-1187938.694
 31
0.0
  0
LWPOLYLINE
  5
28BB
330
2A09
100
AcDbEntity
  8
Vrstva 63
  6
Continuous
 62
7
370
0
100
AcDbPolyline
 90
3
 70
128
 10
-565470.642
 20
-1187938.393
 10
-565470.628
 20
-1187938.694
 10
-565470.842
 20
-1187938.483
  0
LINE
  5
28BC
330
2A09
100
AcDbEntity
  8
Vrstva 63
  6
Continuous
 62
7
370
0
100
AcDbLine
 10
-565448.633
 20
-1187897.367
 30
0.0
 11
-565447.869
 21
-1187897.843
 31
0.0
  0
LINE
  5
28BD
330
2A09
100
AcDbEntity
  8
Vrstva 63
  6
Continuous
 62
7
370
0
100
AcDbLine
 10
-565447.869
 20
-1187897.843
 30
0.0
 11
-565446.874
 21
-1187897.748
 31
0.0
  0
LWPOLYLINE
  5
28BE
330
2A09
100
AcDbEntity
  8
Vrstva 63
  6
Continuous
 62
7
370
0
100
AcDbPolyline
 90
3
 70
128
 10
-565447.163
 20
-1187897.665
 10
-565446.874
 20
-1187897.748
 10
-565447.142
 20
-1187897.884
  0
LINE
  5
28BF
330
2A09
100
AcDbEntity
  8
Vrstva 63
  6
Continuous
 62
7
370
0
100
AcDbLine
 10
-565447.869
 20
-1187897.843
 30
0.0
 11
-565447.437
 21
-1187898.744
 31
0.0
  0
LWPOLYLINE
  5
28C0
330
2A09
100
AcDbEntity
  8
Vrstva 63
  6
Continuous
 62
7
370
0
100
AcDbPolyline
 90
3
 70
128
 10
-565447.459
 20
-1187898.444
 10
-565447.437
 20
-1187898.744
 10
-565447.657
 20
-1187898.539
  0
LINE
  5
28C1
330
2A09
100
AcDbEntity
  8
Vrstva 63
  6
Continuous
 62
7
370
0
100
AcDbLine
 10
-565447.612
 20
-1187895.122
 30
0.0
 11
-565446.848
 21
-1187895.597
 31
0.0
  0
LINE
  5
28C2
330
2A09
100
AcDbEntity
  8
Vrstva 63
  6
Continuous
 62
7
370
0
100
AcDbLine
 10
-565446.848
 20
-1187895.597
 30
0.0
 11
-565445.853
 21
-1187895.502
 31
0.0
  0
LWPOLYLINE
  5
28C3
330
2A09
100
AcDbEntity
  8
Vrstva 63
  6
Continuous
 62
7
370
0
100
AcDbPolyline
 90
3
 70
128
 10
-565446.142
 20
-1187895.42
 10
-565445.853
 20
-1187895.502
 10
-565446.121
 20
-1187895.639
  0
LINE
  5
28C4
330
2A09
100
AcDbEntity
  8
Vrstva 63
  6
Continuous
 62
7
370
0
100
AcDbLine
 10
-565446.848
 20
-1187895.597
 30
0.0
 11
-565446.416
 21
-1187896.499
 31
0.0
  0
LWPOLYLINE
  5
28C5
330
2A09
100
AcDbEntity
  8
Vrstva 63
  6
Continuous
 62
7
370
0
100
AcDbPolyline
 90
3
 70
128
 10
-565446.438
 20
-1187896.199
 10
-565446.416
 20
-1187896.499
 10
-565446.636
 20
-1187896.294
  0
INSERT
  5
28C6
330
2A09
100
AcDbEntity
  8
Vrstva 35
  6
Continuous
 62
32
370
0
100
AcDbBlockReference
  2
8.11
 10
-565487.374
 20
-1187906.549
 30
0.0
 50
58.084
  0
POINT
  5
28C9
330
2A09
100
AcDbEntity
  8
Vrstva 58
  6
Continuous
 62
7
370
30
100
AcDbPoint
 10
-565501.41
 20
-1187927.4
 30
0.0
  0
TEXT
  5
28CA
330
2A09
100
AcDbEntity
  8
Vrstva 59
  6
Continuous
 62
32
370
0
100
AcDbText
 10
-565501.405382
 20
-1187927.108507
 30
0.0
 40
0.75
  1
1
 50
58.084
  7
Style-cs_Working
 11
-565502.042
 21
-1187926.712
 31
0.0
100
AcDbText
 73
3
  0
POINT
  5
28CB
330
2A09
100
AcDbEntity
  8
Vrstva 58
  6
Continuous
 62
7
370
30
100
AcDbPoint
 10
-565492.18
 20
-1187931.27
 30
0.0
  0
TEXT
  5
28CC
330
2A09
100
AcDbEntity
  8
Vrstva 59
  6
Continuous
 62
32
370
0
100
AcDbText
 10
-565492.175382
 20
-1187930.978507
 30
0.0
 40
0.75
  1
2
 50
58.084
  7
Style-cs_Working
 11
-565492.812
 21
-1187930.582
 31
0.0
100
AcDbText
 73
3
  0
POINT
  5
28CD
330
2A09
100
AcDbEntity
  8
Vrstva 58
  6
Continuous
 62
7
370
30
100
AcDbPoint
 10
-565480.29
 20
-1187928.16
 30
0.0
  0
TEXT
  5
28CE
330
2A09
100
AcDbEntity
  8
Vrstva 59
  6
Continuous
 62
32
370
0
100
AcDbText
 10
-565480.285382
 20
-1187927.868507
 30
0.0
 40
0.75
  1
3
 50
58.084
  7
Style-cs_Working
 11
-565480.922
 21
-1187927.472
 31
0.0
100
AcDbText
 73
3
  0
POINT
  5
28CF
330
2A09
100
AcDbEntity
  8
Vrstva 58
  6
Continuous
 62
7
370
30
100
AcDbPoint
 10
-565474.47
 20
-1187934.21
 30
0.0
  0
TEXT
  5
28D0
330
2A09
100
AcDbEntity
  8
Vrstva 59
  6
Continuous
 62
32
370
0
100
AcDbText
 10
-565474.465382
 20
-1187933.918507
 30
0.0
 40
0.75
  1
4
 50
58.084
  7
Style-cs_Working
 11
-565475.102
 21
-1187933.522
 31
0.0
100
AcDbText
 73
3
  0
POINT
  5
28D1
330
2A09
100
AcDbEntity
  8
Vrstva 58
  6
Continuous
 62
7
370
30
100
AcDbPoint
 10
-565458.78
 20
-1187877.93
 30
0.0
  0
TEXT
  5
28D2
330
2A09
100
AcDbEntity
  8
Vrstva 59
  6
Continuous
 62
32
370
0
100
AcDbText
 10
-565458.775382
 20
-1187877.638507
 30
0.0
 40
0.75
  1
14
 50
58.084
  7
Style-cs_Working
 11
-565459.412
 21
-1187877.242
 31
0.0
100
AcDbText
 73
3
  0
POINT
  5
28D3
330
2A09
100
AcDbEntity
  8
Vrstva 58
  6
Continuous
 62
7
370
30
100
AcDbPoint
 10
-565488.4
 20
-1187938.32
 30
0.0
  0
TEXT
  5
28D4
330
2A09
100
AcDbEntity
  8
Vrstva 59
  6
Continuous
 62
32
370
0
100
AcDbText
 10
-565488.395382
 20
-1187938.028507
 30
0.0
 40
0.75
  1
15
 50
58.084
  7
Style-cs_Working
 11
-565489.032
 21
-1187937.632
 31
0.0
100
AcDbText
 73
3
  0
POINT
  5
28D5
330
2A09
100
AcDbEntity
  8
Vrstva 58
  6
Continuous
 62
7
370
30
100
AcDbPoint
 10
-565482.09
 20
-1187927.75
 30
0.0
  0
TEXT
  5
28D6
330
2A09
100
AcDbEntity
  8
Vrstva 59
  6
Continuous
 62
32
370
0
100
AcDbText
 10
-565482.085382
 20
-1187927.458507
 30
0.0
 40
0.75
  1
16
 50
58.084
  7
Style-cs_Working
 11
-565482.722
 21
-1187927.062
 31
0.0
100
AcDbText
 73
3
  0
POINT
  5
28D7
330
2A09
100
AcDbEntity
  8
Vrstva 58
  6
Continuous
 62
7
370
30
100
AcDbPoint
 10
-565478.37
 20
-1187934.95
 30
0.0
  0
TEXT
  5
28D8
330
2A09
100
AcDbEntity
  8
Vrstva 59
  6
Continuous
 62
32
370
0
100
AcDbText
 10
-565478.365382
 20
-1187934.658507
 30
0.0
 40
0.75
  1
17
 50
58.084
  7
Style-cs_Working
 11
-565479.002
 21
-1187934.262
 31
0.0
100
AcDbText
 73
3
  0
POINT
  5
28D9
330
2A09
100
AcDbEntity
  8
Vrstva 58
  6
Continuous
 62
7
370
30
100
AcDbPoint
 10
-565474.39
 20
-1187931.9
 30
0.0
  0
TEXT
  5
28DA
330
2A09
100
AcDbEntity
  8
Vrstva 59
  6
Continuous
 62
32
370
0
100
AcDbText
 10
-565474.385382
 20
-1187931.608507
 30
0.0
 40
0.75
  1
18
 50
58.084
  7
Style-cs_Working
 11
-565475.022
 21
-1187931.212
 31
0.0
100
AcDbText
 73
3
  0
POINT
  5
28DB
330
2A09
100
AcDbEntity
  8
Vrstva 58
  6
Continuous
 62
7
370
30
100
AcDbPoint
 10
-565473.27
 20
-1187932.67
 30
0.0
  0
TEXT
  5
28DC
330
2A09
100
AcDbEntity
  8
Vrstva 59
  6
Continuous
 62
32
370
0
100
AcDbText
 10
-565473.265382
 20
-1187932.378507
 30
0.0
 40
0.75
  1
19
 50
58.084
  7
Style-cs_Working
 11
-565473.902
 21
-1187931.982
 31
0.0
100
AcDbText
 73
3
  0
POINT
  5
28DD
330
2A09
100
AcDbEntity
  8
Vrstva 58
  6
Continuous
 62
7
370
30
100
AcDbPoint
 10
-565467.96
 20
-1187924.43
 30
0.0
  0
TEXT
  5
28DE
330
2A09
100
AcDbEntity
  8
Vrstva 59
  6
Continuous
 62
32
370
0
100
AcDbText
 10
-565467.955382
 20
-1187924.138507
 30
0.0
 40
0.75
  1
20
 50
58.084
  7
Style-cs_Working
 11
-565468.592
 21
-1187923.742
 31
0.0
100
AcDbText
 73
3
  0
POINT
  5
28DF
330
2A09
100
AcDbEntity
  8
Vrstva 58
  6
Continuous
 62
7
370
30
100
AcDbPoint
 10
-565465.61
 20
-1187920.98
 30
0.0
  0
TEXT
  5
28E0
330
2A09
100
AcDbEntity
  8
Vrstva 59
  6
Continuous
 62
32
370
0
100
AcDbText
 10
-565465.605382
 20
-1187920.688507
 30
0.0
 40
0.75
  1
21
 50
58.084
  7
Style-cs_Working
 11
-565466.242
 21
-1187920.292
 31
0.0
100
AcDbText
 73
3
  0
POINT
  5
28E1
330
2A09
100
AcDbEntity
  8
Vrstva 58
  6
Continuous
 62
7
370
30
100
AcDbPoint
 10
-565464.96
 20
-1187921.41
 30
0.0
  0
TEXT
  5
28E2
330
2A09
100
AcDbEntity
  8
Vrstva 59
  6
Continuous
 62
32
370
0
100
AcDbText
 10
-565464.955382
 20
-1187921.118507
 30
0.0
 40
0.75
  1
22
 50
58.084
  7
Style-cs_Working
 11
-565465.592
 21
-1187920.722
 31
0.0
100
AcDbText
 73
3
  0
POINT
  5
28E3
330
2A09
100
AcDbEntity
  8
Vrstva 58
  6
Continuous
 62
7
370
30
100
AcDbPoint
 10
-565463.75
 20
-1187918.19
 30
0.0
  0
TEXT
  5
28E4
330
2A09
100
AcDbEntity
  8
Vrstva 59
  6
Continuous
 62
32
370
0
100
AcDbText
 10
-565463.745382
 20
-1187917.898507
 30
0.0
 40
0.75
  1
23
 50
58.084
  7
Style-cs_Working
 11
-565464.382
 21
-1187917.502
 31
0.0
100
AcDbText
 73
3
  0
POINT
  5
28E5
330
2A09
100
AcDbEntity
  8
Vrstva 58
  6
Continuous
 62
7
370
30
100
AcDbPoint
 10
-565462.91
 20
-1187916.82
 30
0.0
  0
TEXT
  5
28E6
330
2A09
100
AcDbEntity
  8
Vrstva 59
  6
Continuous
 62
32
370
0
100
AcDbText
 10
-565462.905382
 20
-1187916.528507
 30
0.0
 40
0.75
  1
24
 50
58.084
  7
Style-cs_Working
 11
-565463.542
 21
-1187916.132
 31
0.0
100
AcDbText
 73
3
  0
POINT
  5
28E7
330
2A09
100
AcDbEntity
  8
Vrstva 58
  6
Continuous
 62
7
370
30
100
AcDbPoint
 10
-565461.86
 20
-1187915.04
 30
0.0
  0
TEXT
  5
28E8
330
2A09
100
AcDbEntity
  8
Vrstva 59
  6
Continuous
 62
32
370
0
100
AcDbText
 10
-565461.855382
 20
-1187914.748507
 30
0.0
 40
0.75
  1
25
 50
58.084
  7
Style-cs_Working
 11
-565462.492
 21
-1187914.352
 31
0.0
100
AcDbText
 73
3
  0
POINT
  5
28E9
330
2A09
100
AcDbEntity
  8
Vrstva 58
  6
Continuous
 62
7
370
30
100
AcDbPoint
 10
-565459.11
 20
-1187910.93
 30
0.0
  0
TEXT
  5
28EA
330
2A09
100
AcDbEntity
  8
Vrstva 59
  6
Continuous
 62
32
370
0
100
AcDbText
 10
-565459.105382
 20
-1187910.638507
 30
0.0
 40
0.75
  1
26
 50
58.084
  7
Style-cs_Working
 11
-565459.742
 21
-1187910.242
 31
0.0
100
AcDbText
 73
3
  0
POINT
  5
28EB
330
2A09
100
AcDbEntity
  8
Vrstva 58
  6
Continuous
 62
7
370
30
100
AcDbPoint
 10
-565459.84
 20
-1187910.67
 30
0.0
  0
TEXT
  5
28EC
330
2A09
100
AcDbEntity
  8
Vrstva 59
  6
Continuous
 62
32
370
0
100
AcDbText
 10
-565459.835382
 20
-1187910.378507
 30
0.0
 40
0.75
  1
27
 50
58.084
  7
Style-cs_Working
 11
-565460.472
 21
-1187909.982
 31
0.0
100
AcDbText
 73
3
  0
POINT
  5
28ED
330
2A09
100
AcDbEntity
  8
Vrstva 58
  6
Continuous
 62
7
370
30
100
AcDbPoint
 10
-565460.69
 20
-1187909.44
 30
0.0
  0
TEXT
  5
28EE
330
2A09
100
AcDbEntity
  8
Vrstva 59
  6
Continuous
 62
32
370
0
100
AcDbText
 10
-565460.685382
 20
-1187909.148507
 30
0.0
 40
0.75
  1
29
 50
58.084
  7
Style-cs_Working
 11
-565461.322
 21
-1187908.752
 31
0.0
100
AcDbText
 73
3
  0
POINT
  5
28EF
330
2A09
100
AcDbEntity
  8
Vrstva 58
  6
Continuous
 62
7
370
30
100
AcDbPoint
 10
-565466.48
 20
-1187906.22
 30
0.0
  0
TEXT
  5
28F0
330
2A09
100
AcDbEntity
  8
Vrstva 59
  6
Continuous
 62
32
370
0
100
AcDbText
 10
-565466.475382
 20
-1187905.928507
 30
0.0
 40
0.75
  1
30
 50
58.084
  7
Style-cs_Working
 11
-565467.112
 21
-1187905.532
 31
0.0
100
AcDbText
 73
3
  0
POINT
  5
28F1
330
2A09
100
AcDbEntity
  8
Vrstva 58
  6
Continuous
 62
7
370
30
100
AcDbPoint
 10
-565468.05
 20
-1187905.45
 30
0.0
  0
TEXT
  5
28F2
330
2A09
100
AcDbEntity
  8
Vrstva 59
  6
Continuous
 62
32
370
0
100
AcDbText
 10
-565468.045382
 20
-1187905.158507
 30
0.0
 40
0.75
  1
31
 50
58.084
  7
Style-cs_Working
 11
-565468.682
 21
-1187904.762
 31
0.0
100
AcDbText
 73
3
  0
POINT
  5
28F3
330
2A09
100
AcDbEntity
  8
Vrstva 58
  6
Continuous
 62
7
370
30
100
AcDbPoint
 10
-565471.39
 20
-1187913.98
 30
0.0
  0
TEXT
  5
28F4
330
2A09
100
AcDbEntity
  8
Vrstva 59
  6
Continuous
 62
32
370
0
100
AcDbText
 10
-565471.385382
 20
-1187913.688507
 30
0.0
 40
0.75
  1
32
 50
58.084
  7
Style-cs_Working
 11
-565472.022
 21
-1187913.292
 31
0.0
100
AcDbText
 73
3
  0
POINT
  5
28F5
330
2A09
100
AcDbEntity
  8
Vrstva 58
  6
Continuous
 62
7
370
30
100
AcDbPoint
 10
-565471.84
 20
-1187914.75
 30
0.0
  0
TEXT
  5
28F6
330
2A09
100
AcDbEntity
  8
Vrstva 59
  6
Continuous
 62
32
370
0
100
AcDbText
 10
-565470.944382
 20
-1187915.013507
 30
0.0
 40
0.75
  1
33
 50
58.084
  7
Style-cs_Working
 11
-565471.581
 21
-1187914.617
 31
0.0
100
AcDbText
 73
3
  0
POINT
  5
28F7
330
2A09
100
AcDbEntity
  8
Vrstva 58
  6
Continuous
 62
7
370
30
100
AcDbPoint
 10
-565472.94
 20
-1187916.43
 30
0.0
  0
TEXT
  5
28F8
330
2A09
100
AcDbEntity
  8
Vrstva 59
  6
Continuous
 62
32
370
0
100
AcDbText
 10
-565472.935382
 20
-1187916.138507
 30
0.0
 40
0.75
  1
34
 50
58.084
  7
Style-cs_Working
 11
-565473.572
 21
-1187915.742
 31
0.0
100
AcDbText
 73
3
  0
POINT
  5
28F9
330
2A09
100
AcDbEntity
  8
Vrstva 58
  6
Continuous
 62
7
370
30
100
AcDbPoint
 10
-565474.91
 20
-1187919.69
 30
0.0
  0
TEXT
  5
28FA
330
2A09
100
AcDbEntity
  8
Vrstva 59
  6
Continuous
 62
32
370
0
100
AcDbText
 10
-565474.905382
 20
-1187919.398507
 30
0.0
 40
0.75
  1
35
 50
58.084
  7
Style-cs_Working
 11
-565475.542
 21
-1187919.002
 31
0.0
100
AcDbText
 73
3
  0
POINT
  5
28FB
330
2A09
100
AcDbEntity
  8
Vrstva 58
  6
Continuous
 62
7
370
30
100
AcDbPoint
 10
-565476.56
 20
-1187919.16
 30
0.0
  0
TEXT
  5
28FC
330
2A09
100
AcDbEntity
  8
Vrstva 59
  6
Continuous
 62
32
370
0
100
AcDbText
 10
-565476.555382
 20
-1187918.868507
 30
0.0
 40
0.75
  1
36
 50
58.084
  7
Style-cs_Working
 11
-565477.192
 21
-1187918.472
 31
0.0
100
AcDbText
 73
3
  0
POINT
  5
28FD
330
2A09
100
AcDbEntity
  8
Vrstva 58
  6
Continuous
 62
7
370
30
100
AcDbPoint
 10
-565476.22
 20
-1187905.86
 30
0.0
  0
TEXT
  5
28FE
330
2A09
100
AcDbEntity
  8
Vrstva 59
  6
Continuous
 62
32
370
0
100
AcDbText
 10
-565476.215382
 20
-1187905.568507
 30
0.0
 40
0.75
  1
37
 50
58.084
  7
Style-cs_Working
 11
-565476.852
 21
-1187905.172
 31
0.0
100
AcDbText
 73
3
  0
POINT
  5
28FF
330
2A09
100
AcDbEntity
  8
Vrstva 58
  6
Continuous
 62
7
370
30
100
AcDbPoint
 10
-565474.06
 20
-1187902.39
 30
0.0
  0
TEXT
  5
2900
330
2A09
100
AcDbEntity
  8
Vrstva 59
  6
Continuous
 62
32
370
0
100
AcDbText
 10
-565474.055382
 20
-1187902.098507
 30
0.0
 40
0.75
  1
38
 50
58.084
  7
Style-cs_Working
 11
-565474.692
 21
-1187901.702
 31
0.0
100
AcDbText
 73
3
  0
POINT
  5
2901
330
2A09
100
AcDbEntity
  8
Vrstva 58
  6
Continuous
 62
7
370
30
100
AcDbPoint
 10
-565472.37
 20
-1187902.87
 30
0.0
  0
TEXT
  5
2902
330
2A09
100
AcDbEntity
  8
Vrstva 59
  6
Continuous
 62
32
370
0
100
AcDbText
 10
-565472.365382
 20
-1187902.578507
 30
0.0
 40
0.75
  1
39
 50
58.084
  7
Style-cs_Working
 11
-565473.002
 21
-1187902.182
 31
0.0
100
AcDbText
 73
3
  0
POINT
  5
2903
330
2A09
100
AcDbEntity
  8
Vrstva 58
  6
Continuous
 62
7
370
30
100
AcDbPoint
 10
-565485.18
 20
-1187920.05
 30
0.0
  0
TEXT
  5
2904
330
2A09
100
AcDbEntity
  8
Vrstva 59
  6
Continuous
 62
32
370
0
100
AcDbText
 10
-565485.175382
 20
-1187919.758507
 30
0.0
 40
0.75
  1
40
 50
58.084
  7
Style-cs_Working
 11
-565485.812
 21
-1187919.362
 31
0.0
100
AcDbText
 73
3
  0
POINT
  5
2905
330
2A09
100
AcDbEntity
  8
Vrstva 58
  6
Continuous
 62
7
370
30
100
AcDbPoint
 10
-565487.11
 20
-1187923.21
 30
0.0
  0
TEXT
  5
2906
330
2A09
100
AcDbEntity
  8
Vrstva 59
  6
Continuous
 62
32
370
0
100
AcDbText
 10
-565487.105382
 20
-1187922.918507
 30
0.0
 40
0.75
  1
41
 50
58.084
  7
Style-cs_Working
 11
-565487.742
 21
-1187922.522
 31
0.0
100
AcDbText
 73
3
  0
POINT
  5
2907
330
2A09
100
AcDbEntity
  8
Vrstva 58
  6
Continuous
 62
7
370
30
100
AcDbPoint
 10
-565488.38
 20
-1187925.14
 30
0.0
  0
TEXT
  5
2908
330
2A09
100
AcDbEntity
  8
Vrstva 59
  6
Continuous
 62
32
370
0
100
AcDbText
 10
-565488.375382
 20
-1187924.848507
 30
0.0
 40
0.75
  1
42
 50
58.084
  7
Style-cs_Working
 11
-565489.012
 21
-1187924.452
 31
0.0
100
AcDbText
 73
3
  0
POINT
  5
2909
330
2A09
100
AcDbEntity
  8
Vrstva 58
  6
Continuous
 62
7
370
30
100
AcDbPoint
 10
-565488.9
 20
-1187926.19
 30
0.0
  0
TEXT
  5
290A
330
2A09
100
AcDbEntity
  8
Vrstva 59
  6
Continuous
 62
32
370
0
100
AcDbText
 10
-565488.004382
 20
-1187926.453507
 30
0.0
 40
0.75
  1
43
 50
58.084
  7
Style-cs_Working
 11
-565488.641
 21
-1187926.057
 31
0.0
100
AcDbText
 73
3
  0
POINT
  5
290B
330
2A09
100
AcDbEntity
  8
Vrstva 58
  6
Continuous
 62
7
370
30
100
AcDbPoint
 10
-565485.77
 20
-1187917.71
 30
0.0
  0
TEXT
  5
290C
330
2A09
100
AcDbEntity
  8
Vrstva 59
  6
Continuous
 62
32
370
0
100
AcDbText
 10
-565485.765382
 20
-1187917.418507
 30
0.0
 40
0.75
  1
44
 50
58.084
  7
Style-cs_Working
 11
-565486.402
 21
-1187917.022
 31
0.0
100
AcDbText
 73
3
  0
POINT
  5
290D
330
2A09
100
AcDbEntity
  8
Vrstva 58
  6
Continuous
 62
7
370
30
100
AcDbPoint
 10
-565472.89
 20
-1187885.1
 30
0.0
  0
TEXT
  5
290E
330
2A09
100
AcDbEntity
  8
Vrstva 59
  6
Continuous
 62
32
370
0
100
AcDbText
 10
-565472.885382
 20
-1187884.808507
 30
0.0
 40
0.75
  1
45
 50
58.084
  7
Style-cs_Working
 11
-565473.522
 21
-1187884.412
 31
0.0
100
AcDbText
 73
3
  0
POINT
  5
290F
330
2A09
100
AcDbEntity
  8
Vrstva 58
  6
Continuous
 62
7
370
30
100
AcDbPoint
 10
-565474.1
 20
-1187884.35
 30
0.0
  0
TEXT
  5
2910
330
2A09
100
AcDbEntity
  8
Vrstva 59
  6
Continuous
 62
32
370
0
100
AcDbText
 10
-565474.095382
 20
-1187884.058507
 30
0.0
 40
0.75
  1
46
 50
58.084
  7
Style-cs_Working
 11
-565474.732
 21
-1187883.662
 31
0.0
100
AcDbText
 73
3
  0
POINT
  5
2911
330
2A09
100
AcDbEntity
  8
Vrstva 58
  6
Continuous
 62
7
370
30
100
AcDbPoint
 10
-565470.62
 20
-1187878.8
 30
0.0
  0
TEXT
  5
2912
330
2A09
100
AcDbEntity
  8
Vrstva 59
  6
Continuous
 62
32
370
0
100
AcDbText
 10
-565470.615382
 20
-1187878.508507
 30
0.0
 40
0.75
  1
47
 50
58.084
  7
Style-cs_Working
 11
-565471.252
 21
-1187878.112
 31
0.0
100
AcDbText
 73
3
  0
POINT
  5
2913
330
2A09
100
AcDbEntity
  8
Vrstva 58
  6
Continuous
 62
7
370
30
100
AcDbPoint
 10
-565461.08
 20
-1187876.57
 30
0.0
  0
TEXT
  5
2914
330
2A09
100
AcDbEntity
  8
Vrstva 59
  6
Continuous
 62
32
370
0
100
AcDbText
 10
-565461.075382
 20
-1187876.278507
 30
0.0
 40
0.75
  1
48
 50
58.084
  7
Style-cs_Working
 11
-565461.712
 21
-1187875.882
 31
0.0
100
AcDbText
 73
3
  0
POINT
  5
2915
330
2A09
100
AcDbEntity
  8
Vrstva 58
  6
Continuous
 62
7
370
30
100
AcDbPoint
 10
-565473.79
 20
-1187897.52
 30
0.0
  0
TEXT
  5
2916
330
2A09
100
AcDbEntity
  8
Vrstva 59
  6
Continuous
 62
32
370
0
100
AcDbText
 10
-565473.785382
 20
-1187897.228507
 30
0.0
 40
0.75
  1
49
 50
58.084
  7
Style-cs_Working
 11
-565474.422
 21
-1187896.832
 31
0.0
100
AcDbText
 73
3
  0
POINT
  5
2917
330
2A09
100
AcDbEntity
  8
Vrstva 58
  6
Continuous
 62
7
370
30
100
AcDbPoint
 10
-565469.8
 20
-1187895.68
 30
0.0
  0
TEXT
  5
2918
330
2A09
100
AcDbEntity
  8
Vrstva 59
  6
Continuous
 62
32
370
0
100
AcDbText
 10
-565469.795382
 20
-1187895.388507
 30
0.0
 40
0.75
  1
50
 50
58.084
  7
Style-cs_Working
 11
-565470.432
 21
-1187894.992
 31
0.0
100
AcDbText
 73
3
  0
POINT
  5
2919
330
2A09
100
AcDbEntity
  8
Vrstva 58
  6
Continuous
 62
7
370
30
100
AcDbPoint
 10
-565469.16
 20
-1187894.59
 30
0.0
  0
TEXT
  5
291A
330
2A09
100
AcDbEntity
  8
Vrstva 59
  6
Continuous
 62
32
370
0
100
AcDbText
 10
-565468.264382
 20
-1187894.853507
 30
0.0
 40
0.75
  1
51
 50
58.084
  7
Style-cs_Working
 11
-565468.901
 21
-1187894.457
 31
0.0
100
AcDbText
 73
3
  0
POINT
  5
291B
330
2A09
100
AcDbEntity
  8
Vrstva 58
  6
Continuous
 62
7
370
30
100
AcDbPoint
 10
-565470.86
 20
-1187894.88
 30
0.0
  0
TEXT
  5
291C
330
2A09
100
AcDbEntity
  8
Vrstva 59
  6
Continuous
 62
32
370
0
100
AcDbText
 10
-565470.855382
 20
-1187894.588507
 30
0.0
 40
0.75
  1
52
 50
58.084
  7
Style-cs_Working
 11
-565471.492
 21
-1187894.192
 31
0.0
100
AcDbText
 73
3
  0
POINT
  5
291D
330
2A09
100
AcDbEntity
  8
Vrstva 58
  6
Continuous
 62
7
370
30
100
AcDbPoint
 10
-565471.73
 20
-1187894.37
 30
0.0
  0
TEXT
  5
291E
330
2A09
100
AcDbEntity
  8
Vrstva 59
  6
Continuous
 62
32
370
0
100
AcDbText
 10
-565471.725382
 20
-1187894.078507
 30
0.0
 40
0.75
  1
53
 50
58.084
  7
Style-cs_Working
 11
-565472.362
 21
-1187893.682
 31
0.0
100
AcDbText
 73
3
  0
POINT
  5
291F
330
2A09
100
AcDbEntity
  8
Vrstva 58
  6
Continuous
 62
7
370
30
100
AcDbPoint
 10
-565471.16
 20
-1187893.42
 30
0.0
  0
TEXT
  5
2920
330
2A09
100
AcDbEntity
  8
Vrstva 59
  6
Continuous
 62
32
370
0
100
AcDbText
 10
-565471.791382
 20
-1187892.731507
 30
0.0
 40
0.75
  1
54
 50
58.084
  7
Style-cs_Working
 11
-565472.428
 21
-1187892.335
 31
0.0
100
AcDbText
 73
3
  0
POINT
  5
2921
330
2A09
100
AcDbEntity
  8
Vrstva 58
  6
Continuous
 62
7
370
30
100
AcDbPoint
 10
-565470.21
 20
-1187893.91
 30
0.0
  0
TEXT
  5
2922
330
2A09
100
AcDbEntity
  8
Vrstva 59
  6
Continuous
 62
32
370
0
100
AcDbText
 10
-565469.314382
 20
-1187894.173507
 30
0.0
 40
0.75
  1
55
 50
58.084
  7
Style-cs_Working
 11
-565469.951
 21
-1187893.777
 31
0.0
100
AcDbText
 73
3
  0
POINT
  5
2923
330
2A09
100
AcDbEntity
  8
Vrstva 58
  6
Continuous
 62
7
370
30
100
AcDbPoint
 10
-565467.88
 20
-1187892.42
 30
0.0
  0
TEXT
  5
2924
330
2A09
100
AcDbEntity
  8
Vrstva 59
  6
Continuous
 62
32
370
0
100
AcDbText
 10
-565467.875382
 20
-1187892.128507
 30
0.0
 40
0.75
  1
56
 50
58.084
  7
Style-cs_Working
 11
-565468.512
 21
-1187891.732
 31
0.0
100
AcDbText
 73
3
  0
POINT
  5
2925
330
2A09
100
AcDbEntity
  8
Vrstva 58
  6
Continuous
 62
7
370
30
100
AcDbPoint
 10
-565466.16
 20
-1187889.83
 30
0.0
  0
TEXT
  5
2926
330
2A09
100
AcDbEntity
  8
Vrstva 59
  6
Continuous
 62
32
370
0
100
AcDbText
 10
-565466.155382
 20
-1187889.538507
 30
0.0
 40
0.75
  1
57
 50
58.084
  7
Style-cs_Working
 11
-565466.792
 21
-1187889.142
 31
0.0
100
AcDbText
 73
3
  0
POINT
  5
2927
330
2A09
100
AcDbEntity
  8
Vrstva 58
  6
Continuous
 62
7
370
30
100
AcDbPoint
 10
-565457.47
 20
-1187878.73
 30
0.0
  0
TEXT
  5
2928
330
2A09
100
AcDbEntity
  8
Vrstva 59
  6
Continuous
 62
32
370
0
100
AcDbText
 10
-565457.465382
 20
-1187878.438507
 30
0.0
 40
0.75
  1
58
 50
58.084
  7
Style-cs_Working
 11
-565458.102
 21
-1187878.042
 31
0.0
100
AcDbText
 73
3
  0
POINT
  5
2929
330
2A09
100
AcDbEntity
  8
Vrstva 58
  6
Continuous
 62
7
370
30
100
AcDbPoint
 10
-565453.26
 20
-1187881.9
 30
0.0
  0
TEXT
  5
292A
330
2A09
100
AcDbEntity
  8
Vrstva 59
  6
Continuous
 62
32
370
0
100
AcDbText
 10
-565453.255382
 20
-1187881.608507
 30
0.0
 40
0.75
  1
59
 50
58.084
  7
Style-cs_Working
 11
-565453.892
 21
-1187881.212
 31
0.0
100
AcDbText
 73
3
  0
POINT
  5
292B
330
2A09
100
AcDbEntity
  8
Vrstva 58
  6
Continuous
 62
7
370
30
100
AcDbPoint
 10
-565462.18
 20
-1187896.03
 30
0.0
  0
TEXT
  5
292C
330
2A09
100
AcDbEntity
  8
Vrstva 59
  6
Continuous
 62
32
370
0
100
AcDbText
 10
-565462.175382
 20
-1187895.738507
 30
0.0
 40
0.75
  1
60
 50
58.084
  7
Style-cs_Working
 11
-565462.812
 21
-1187895.342
 31
0.0
100
AcDbText
 73
3
  0
POINT
  5
292D
330
2A09
100
AcDbEntity
  8
Vrstva 58
  6
Continuous
 62
7
370
30
100
AcDbPoint
 10
-565466.48
 20
-1187893.43
 30
0.0
  0
TEXT
  5
292E
330
2A09
100
AcDbEntity
  8
Vrstva 59
  6
Continuous
 62
32
370
0
100
AcDbText
 10
-565466.475382
 20
-1187893.138507
 30
0.0
 40
0.75
  1
61
 50
58.084
  7
Style-cs_Working
 11
-565467.112
 21
-1187892.742
 31
0.0
100
AcDbText
 73
3
  0
POINT
  5
292F
330
2A09
100
AcDbEntity
  8
Vrstva 58
  6
Continuous
 62
7
370
30
100
AcDbPoint
 10
-565449.08
 20
-1187898.35
 30
0.0
  0
TEXT
  5
2930
330
2A09
100
AcDbEntity
  8
Vrstva 59
  6
Continuous
 62
32
370
0
100
AcDbText
 10
-565449.075382
 20
-1187898.058507
 30
0.0
 40
0.75
  1
62
 50
58.084
  7
Style-cs_Working
 11
-565449.712
 21
-1187897.662
 31
0.0
100
AcDbText
 73
3
  0
POINT
  5
2931
330
2A09
100
AcDbEntity
  8
Vrstva 58
  6
Continuous
 62
7
370
30
100
AcDbPoint
 10
-565448.21
 20
-1187893.13
 30
0.0
  0
TEXT
  5
2932
330
2A09
100
AcDbEntity
  8
Vrstva 59
  6
Continuous
 62
32
370
0
100
AcDbText
 10
-565448.205382
 20
-1187892.838507
 30
0.0
 40
0.75
  1
63
 50
58.084
  7
Style-cs_Working
 11
-565448.842
 21
-1187892.442
 31
0.0
100
AcDbText
 73
3
  0
POINT
  5
2933
330
2A09
100
AcDbEntity
  8
Vrstva 58
  6
Continuous
 62
7
370
30
100
AcDbPoint
 10
-565447.29
 20
-1187891.4
 30
0.0
  0
TEXT
  5
2934
330
2A09
100
AcDbEntity
  8
Vrstva 59
  6
Continuous
 62
32
370
0
100
AcDbText
 10
-565447.285382
 20
-1187891.108507
 30
0.0
 40
0.75
  1
64
 50
58.084
  7
Style-cs_Working
 11
-565447.922
 21
-1187890.712
 31
0.0
100
AcDbText
 73
3
  0
POINT
  5
2935
330
2A09
100
AcDbEntity
  8
Vrstva 58
  6
Continuous
 62
7
370
30
100
AcDbPoint
 10
-565441.5
 20
-1187882.48
 30
0.0
  0
TEXT
  5
2936
330
2A09
100
AcDbEntity
  8
Vrstva 59
  6
Continuous
 62
32
370
0
100
AcDbText
 10
-565441.495382
 20
-1187882.188507
 30
0.0
 40
0.75
  1
65
 50
58.084
  7
Style-cs_Working
 11
-565442.132
 21
-1187881.792
 31
0.0
100
AcDbText
 73
3
  0
POINT
  5
2937
330
2A09
100
AcDbEntity
  8
Vrstva 58
  6
Continuous
 62
7
370
30
100
AcDbPoint
 10
-565470.08
 20
-1187934.65
 30
0.0
  0
TEXT
  5
2938
330
2A09
100
AcDbEntity
  8
Vrstva 59
  6
Continuous
 62
32
370
0
100
AcDbText
 10
-565470.075382
 20
-1187934.358507
 30
0.0
 40
0.75
  1
66
 50
58.084
  7
Style-cs_Working
 11
-565470.712
 21
-1187933.962
 31
0.0
100
AcDbText
 73
3
  0
POINT
  5
2939
330
2A09
100
AcDbEntity
  8
Vrstva 58
  6
Continuous
 62
7
370
30
100
AcDbPoint
 10
-565471.29
 20
-1187936.38
 30
0.0
  0
TEXT
  5
293A
330
2A09
100
AcDbEntity
  8
Vrstva 59
  6
Continuous
 62
32
370
0
100
AcDbText
 10
-565471.285382
 20
-1187936.088507
 30
0.0
 40
0.75
  1
67
 50
58.084
  7
Style-cs_Working
 11
-565471.922
 21
-1187935.692
 31
0.0
100
AcDbText
 73
3
  0
POINT
  5
293B
330
2A09
100
AcDbEntity
  8
Vrstva 58
  6
Continuous
 62
7
370
30
100
AcDbPoint
 10
-565472.31
 20
-1187938.23
 30
0.0
  0
TEXT
  5
293C
330
2A09
100
AcDbEntity
  8
Vrstva 59
  6
Continuous
 62
32
370
0
100
AcDbText
 10
-565472.305382
 20
-1187937.938507
 30
0.0
 40
0.75
  1
68
 50
58.084
  7
Style-cs_Working
 11
-565472.942
 21
-1187937.542
 31
0.0
100
AcDbText
 73
3
  0
POINT
  5
293D
330
2A09
100
AcDbEntity
  8
Vrstva 58
  6
Continuous
 62
7
370
30
100
AcDbPoint
 10
-565492.42
 20
-1187934.86
 30
0.0
  0
TEXT
  5
293E
330
2A09
100
AcDbEntity
  8
Vrstva 59
  6
Continuous
 62
32
370
0
100
AcDbText
 10
-565492.415382
 20
-1187934.568507
 30
0.0
 40
0.75
  1
69
 50
58.084
  7
Style-cs_Working
 11
-565493.052
 21
-1187934.172
 31
0.0
100
AcDbText
 73
3
  0
POINT
  5
293F
330
2A09
100
AcDbEntity
  8
Vrstva 58
  6
Continuous
 62
7
370
30
100
AcDbPoint
 10
-565498.52
 20
-1187922.97
 30
0.0
  0
TEXT
  5
2940
330
2A09
100
AcDbEntity
  8
Vrstva 59
  6
Continuous
 62
32
370
0
100
AcDbText
 10
-565498.515382
 20
-1187922.678507
 30
0.0
 40
0.75
  1
70
 50
58.084
  7
Style-cs_Working
 11
-565499.152
 21
-1187922.282
 31
0.0
100
AcDbText
 73
3
  0
POINT
  5
2941
330
2A09
100
AcDbEntity
  8
Vrstva 58
  6
Continuous
 62
7
370
30
100
AcDbPoint
 10
-565497.22
 20
-1187923.72
 30
0.0
  0
TEXT
  5
2942
330
2A09
100
AcDbEntity
  8
Vrstva 59
  6
Continuous
 62
32
370
0
100
AcDbText
 10
-565497.215382
 20
-1187923.428507
 30
0.0
 40
0.75
  1
71
 50
58.084
  7
Style-cs_Working
 11
-565497.852
 21
-1187923.032
 31
0.0
100
AcDbText
 73
3
  0
POINT
  5
2943
330
2A09
100
AcDbEntity
  8
Vrstva 58
  6
Continuous
 62
7
370
30
100
AcDbPoint
 10
-565495.69
 20
-1187923.47
 30
0.0
  0
TEXT
  5
2944
330
2A09
100
AcDbEntity
  8
Vrstva 59
  6
Continuous
 62
32
370
0
100
AcDbText
 10
-565495.685382
 20
-1187923.178507
 30
0.0
 40
0.75
  1
72
 50
58.084
  7
Style-cs_Working
 11
-565496.322
 21
-1187922.782
 31
0.0
100
AcDbText
 73
3
  0
POINT
  5
2945
330
2A09
100
AcDbEntity
  8
Vrstva 58
  6
Continuous
 62
7
370
30
100
AcDbPoint
 10
-565496.61
 20
-1187922.87
 30
0.0
  0
TEXT
  5
2946
330
2A09
100
AcDbEntity
  8
Vrstva 59
  6
Continuous
 62
32
370
0
100
AcDbText
 10
-565496.652382
 20
-1187924.640507
 30
0.0
 40
0.75
  1
73
 50
58.084
  7
Style-cs_Working
 11
-565497.289
 21
-1187924.244
 31
0.0
100
AcDbText
 73
3
  0
POINT
  5
2947
330
2A09
100
AcDbEntity
  8
Vrstva 58
  6
Continuous
 62
7
370
30
100
AcDbPoint
 10
-565495.64
 20
-1187918.34
 30
0.0
  0
TEXT
  5
2948
330
2A09
100
AcDbEntity
  8
Vrstva 59
  6
Continuous
 62
32
370
0
100
AcDbText
 10
-565495.635382
 20
-1187918.048507
 30
0.0
 40
0.75
  1
74
 50
58.084
  7
Style-cs_Working
 11
-565496.272
 21
-1187917.652
 31
0.0
100
AcDbText
 73
3
  0
POINT
  5
2949
330
2A09
100
AcDbEntity
  8
Vrstva 58
  6
Continuous
 62
7
370
30
100
AcDbPoint
 10
-565494.62
 20
-1187919.78
 30
0.0
  0
TEXT
  5
294A
330
2A09
100
AcDbEntity
  8
Vrstva 59
  6
Continuous
 62
32
370
0
100
AcDbText
 10
-565494.615382
 20
-1187919.488507
 30
0.0
 40
0.75
  1
75
 50
58.084
  7
Style-cs_Working
 11
-565495.252
 21
-1187919.092
 31
0.0
100
AcDbText
 73
3
  0
POINT
  5
294B
330
2A09
100
AcDbEntity
  8
Vrstva 58
  6
Continuous
 62
7
370
30
100
AcDbPoint
 10
-565493.67
 20
-1187920.31
 30
0.0
  0
TEXT
  5
294C
330
2A09
100
AcDbEntity
  8
Vrstva 59
  6
Continuous
 62
32
370
0
100
AcDbText
 10
-565493.665382
 20
-1187920.018507
 30
0.0
 40
0.75
  1
76
 50
58.084
  7
Style-cs_Working
 11
-565494.302
 21
-1187919.622
 31
0.0
100
AcDbText
 73
3
  0
POINT
  5
294D
330
2A09
100
AcDbEntity
  8
Vrstva 58
  6
Continuous
 62
7
370
30
100
AcDbPoint
 10
-565494.19
 20
-1187918.89
 30
0.0
  0
TEXT
  5
294E
330
2A09
100
AcDbEntity
  8
Vrstva 59
  6
Continuous
 62
32
370
0
100
AcDbText
 10
-565494.821382
 20
-1187918.201507
 30
0.0
 40
0.75
  1
77
 50
58.084
  7
Style-cs_Working
 11
-565495.458
 21
-1187917.805
 31
0.0
100
AcDbText
 73
3
  0
POINT
  5
294F
330
2A09
100
AcDbEntity
  8
Vrstva 58
  6
Continuous
 62
7
370
30
100
AcDbPoint
 10
-565492.15
 20
-1187915.67
 30
0.0
  0
TEXT
  5
2950
330
2A09
100
AcDbEntity
  8
Vrstva 59
  6
Continuous
 62
32
370
0
100
AcDbText
 10
-565492.145382
 20
-1187915.378507
 30
0.0
 40
0.75
  1
78
 50
58.084
  7
Style-cs_Working
 11
-565492.782
 21
-1187914.982
 31
0.0
100
AcDbText
 73
3
  0
POINT
  5
2951
330
2A09
100
AcDbEntity
  8
Vrstva 58
  6
Continuous
 62
7
370
30
100
AcDbPoint
 10
-565491.23
 20
-1187924.78
 30
0.0
  0
TEXT
  5
2952
330
2A09
100
AcDbEntity
  8
Vrstva 59
  6
Continuous
 62
32
370
0
100
AcDbText
 10
-565491.225382
 20
-1187924.488507
 30
0.0
 40
0.75
  1
79
 50
58.084
  7
Style-cs_Working
 11
-565491.862
 21
-1187924.092
 31
0.0
100
AcDbText
 73
3
  0
POINT
  5
2953
330
2A09
100
AcDbEntity
  8
Vrstva 58
  6
Continuous
 62
7
370
30
100
AcDbPoint
 10
-565490.67
 20
-1187923.76
 30
0.0
  0
TEXT
  5
2954
330
2A09
100
AcDbEntity
  8
Vrstva 59
  6
Continuous
 62
32
370
0
100
AcDbText
 10
-565489.774382
 20
-1187924.023507
 30
0.0
 40
0.75
  1
80
 50
58.084
  7
Style-cs_Working
 11
-565490.411
 21
-1187923.627
 31
0.0
100
AcDbText
 73
3
  0
POINT
  5
2955
330
2A09
100
AcDbEntity
  8
Vrstva 58
  6
Continuous
 62
7
370
30
100
AcDbPoint
 10
-565489.57
 20
-1187924.43
 30
0.0
  0
TEXT
  5
2956
330
2A09
100
AcDbEntity
  8
Vrstva 59
  6
Continuous
 62
32
370
0
100
AcDbText
 10
-565490.503382
 20
-1187925.645507
 30
0.0
 40
0.75
  1
81
 50
58.084
  7
Style-cs_Working
 11
-565491.14
 21
-1187925.249
 31
0.0
100
AcDbText
 73
3
  0
POINT
  5
2957
330
2A09
100
AcDbEntity
  8
Vrstva 58
  6
Continuous
 62
7
370
30
100
AcDbPoint
 10
-565490.19
 20
-1187925.31
 30
0.0
  0
TEXT
  5
2958
330
2A09
100
AcDbEntity
  8
Vrstva 59
  6
Continuous
 62
32
370
0
100
AcDbText
 10
-565490.232382
 20
-1187927.080507
 30
0.0
 40
0.75
  1
82
 50
58.084
  7
Style-cs_Working
 11
-565490.869
 21
-1187926.684
 31
0.0
100
AcDbText
 73
3
  0
POINT
  5
2959
330
2A09
100
AcDbEntity
  8
Vrstva 58
  6
Continuous
 62
7
370
30
100
AcDbPoint
 10
-565482.12
 20
-1187897.02
 30
0.0
  0
TEXT
  5
295A
330
2A09
100
AcDbEntity
  8
Vrstva 59
  6
Continuous
 62
32
370
0
100
AcDbText
 10
-565482.115382
 20
-1187896.728507
 30
0.0
 40
0.75
  1
83
 50
58.084
  7
Style-cs_Working
 11
-565482.752
 21
-1187896.332
 31
0.0
100
AcDbText
 73
3
  0
POINT
  5
295B
330
2A09
100
AcDbEntity
  8
Vrstva 58
  6
Continuous
 62
7
370
30
100
AcDbPoint
 10
-565477.93
 20
-1187893.21
 30
0.0
  0
TEXT
  5
295C
330
2A09
100
AcDbEntity
  8
Vrstva 59
  6
Continuous
 62
32
370
0
100
AcDbText
 10
-565477.925382
 20
-1187892.918507
 30
0.0
 40
0.75
  1
84
 50
58.084
  7
Style-cs_Working
 11
-565478.562
 21
-1187892.522
 31
0.0
100
AcDbText
 73
3
  0
POINT
  5
295D
330
2A09
100
AcDbEntity
  8
Vrstva 58
  6
Continuous
 62
7
370
30
100
AcDbPoint
 10
-565476.94
 20
-1187893.93
 30
0.0
  0
TEXT
  5
295E
330
2A09
100
AcDbEntity
  8
Vrstva 59
  6
Continuous
 62
32
370
0
100
AcDbText
 10
-565476.935382
 20
-1187893.638507
 30
0.0
 40
0.75
  1
85
 50
58.084
  7
Style-cs_Working
 11
-565477.572
 21
-1187893.242
 31
0.0
100
AcDbText
 73
3
  0
POINT
  5
295F
330
2A09
100
AcDbEntity
  8
Vrstva 58
  6
Continuous
 62
7
370
30
100
AcDbPoint
 10
-565473.79
 20
-1187888.84
 30
0.0
  0
TEXT
  5
2960
330
2A09
100
AcDbEntity
  8
Vrstva 59
  6
Continuous
 62
32
370
0
100
AcDbText
 10
-565473.785382
 20
-1187888.548507
 30
0.0
 40
0.75
  1
86
 50
58.084
  7
Style-cs_Working
 11
-565474.422
 21
-1187888.152
 31
0.0
100
AcDbText
 73
3
  0
POINT
  5
2961
330
2A09
100
AcDbEntity
  8
Vrstva 58
  6
Continuous
 62
7
370
30
100
AcDbPoint
 10
-565475.42
 20
-1187889.21
 30
0.0
  0
TEXT
  5
2962
330
2A09
100
AcDbEntity
  8
Vrstva 59
  6
Continuous
 62
32
370
0
100
AcDbText
 10
-565475.415382
 20
-1187888.918507
 30
0.0
 40
0.75
  1
87
 50
58.084
  7
Style-cs_Working
 11
-565476.052
 21
-1187888.522
 31
0.0
100
AcDbText
 73
3
  0
POINT
  5
2963
330
2A09
100
AcDbEntity
  8
Vrstva 58
  6
Continuous
 62
7
370
30
100
AcDbPoint
 10
-565462.78
 20
-1187903.87
 30
0.0
  0
TEXT
  5
2964
330
2A09
100
AcDbEntity
  8
Vrstva 59
  6
Continuous
 62
32
370
0
100
AcDbText
 10
-565462.775382
 20
-1187903.578507
 30
0.0
 40
0.75
  1
91
 50
58.084
  7
Style-cs_Working
 11
-565463.412
 21
-1187903.182
 31
0.0
100
AcDbText
 73
3
  0
POINT
  5
2965
330
2A09
100
AcDbEntity
  8
Vrstva 58
  6
Continuous
 62
7
370
30
100
AcDbPoint
 10
-565460.81
 20
-1187900.94
 30
0.0
  0
TEXT
  5
2966
330
2A09
100
AcDbEntity
  8
Vrstva 59
  6
Continuous
 62
32
370
0
100
AcDbText
 10
-565460.805382
 20
-1187900.648507
 30
0.0
 40
0.75
  1
92
 50
58.084
  7
Style-cs_Working
 11
-565461.442
 21
-1187900.252
 31
0.0
100
AcDbText
 73
3
  0
POINT
  5
2967
330
2A09
100
AcDbEntity
  8
Vrstva 58
  6
Continuous
 62
7
370
30
100
AcDbPoint
 10
-565459.07
 20
-1187898.01
 30
0.0
  0
TEXT
  5
2968
330
2A09
100
AcDbEntity
  8
Vrstva 59
  6
Continuous
 62
32
370
0
100
AcDbText
 10
-565459.065382
 20
-1187897.718507
 30
0.0
 40
0.75
  1
93
 50
58.084
  7
Style-cs_Working
 11
-565459.702
 21
-1187897.322
 31
0.0
100
AcDbText
 73
3
  0
POINT
  5
2969
330
2A09
100
AcDbEntity
  8
Vrstva 58
  6
Continuous
 62
7
370
30
100
AcDbPoint
 10
-565452.55
 20
-1187906.73
 30
0.0
  0
TEXT
  5
296A
330
2A09
100
AcDbEntity
  8
Vrstva 59
  6
Continuous
 62
32
370
0
100
AcDbText
 10
-565452.545382
 20
-1187906.438507
 30
0.0
 40
0.75
  1
94
 50
58.084
  7
Style-cs_Working
 11
-565453.182
 21
-1187906.042
 31
0.0
100
AcDbText
 73
3
  0
POINT
  5
296B
330
2A09
100
AcDbEntity
  8
Vrstva 58
  6
Continuous
 62
7
370
30
100
AcDbPoint
 10
-565453.77
 20
-1187884.28
 30
0.0
  0
TEXT
  5
296C
330
2A09
100
AcDbEntity
  8
Vrstva 59
  6
Continuous
 62
32
370
0
100
AcDbText
 10
-565453.765382
 20
-1187883.988507
 30
0.0
 40
0.75
  1
95
 50
58.084
  7
Style-cs_Working
 11
-565454.402
 21
-1187883.592
 31
0.0
100
AcDbText
 73
3
  0
POINT
  5
296D
330
2A09
100
AcDbEntity
  8
Vrstva 58
  6
Continuous
 62
7
370
30
100
AcDbPoint
 10
-565464.22
 20
-1187888.07
 30
0.0
  0
TEXT
  5
296E
330
2A09
100
AcDbEntity
  8
Vrstva 59
  6
Continuous
 62
32
370
0
100
AcDbText
 10
-565464.215382
 20
-1187887.778507
 30
0.0
 40
0.75
  1
96
 50
58.084
  7
Style-cs_Working
 11
-565464.852
 21
-1187887.382
 31
0.0
100
AcDbText
 73
3
  0
POINT
  5
296F
330
2A09
100
AcDbEntity
  8
Vrstva 58
  6
Continuous
 62
7
370
30
100
AcDbPoint
 10
-565490.89
 20
-1187930.31
 30
0.0
  0
TEXT
  5
2970
330
2A09
100
AcDbEntity
  8
Vrstva 59
  6
Continuous
 62
32
370
0
100
AcDbText
 10
-565490.885382
 20
-1187930.018507
 30
0.0
 40
0.75
  1
97
 50
58.084
  7
Style-cs_Working
 11
-565491.522
 21
-1187929.622
 31
0.0
100
AcDbText
 73
3
  0
POINT
  5
2971
330
2A09
100
AcDbEntity
  8
Vrstva 58
  6
Continuous
 62
7
370
30
100
AcDbPoint
 10
-565479.77
 20
-1187925.68
 30
0.0
  0
TEXT
  5
2972
330
2A09
100
AcDbEntity
  8
Vrstva 59
  6
Continuous
 62
32
370
0
100
AcDbText
 10
-565479.765382
 20
-1187925.388507
 30
0.0
 40
0.75
  1
98
 50
58.084
  7
Style-cs_Working
 11
-565480.402
 21
-1187924.992
 31
0.0
100
AcDbText
 73
3
  0
POINT
  5
2973
330
2A09
100
AcDbEntity
  8
Vrstva 58
  6
Continuous
 62
7
370
30
100
AcDbPoint
 10
-565468.52
 20
-1187907.86
 30
0.0
  0
TEXT
  5
2974
330
2A09
100
AcDbEntity
  8
Vrstva 59
  6
Continuous
 62
32
370
0
100
AcDbText
 10
-565468.515382
 20
-1187907.568507
 30
0.0
 40
0.75
  1
99
 50
58.084
  7
Style-cs_Working
 11
-565469.152
 21
-1187907.172
 31
0.0
100
AcDbText
 73
3
  0
VIEWPORT
  5
2975
330
2A20
100
AcDbEntity
 67
1
  8
Vrstva 1
  6
Continuous
 62
7
370
0
100
AcDbViewport
 10
-565472.352277
 20
-1187906.082161
 30
0.0
 40
90.696843
 41
89.480929
 68
-1
 69
1
 12
-1307312.016325
 22
-147713.640128
 13
0.0
 23
0.0
 14
0.0
 24
0.0
 15
0.0
 25
0.0
 16
0.0
 26
0.0
 36
1.0
 17
0.0
 27
0.0
 37
0.0
 42
50.0
 43
0.0
 44
0.0
 45
89.480929
 50
0.0
 51
301.90208
 72
100
 90
32768
  1

281
0
 71
1
 74
1
110
0.0
120
0.0
130
0.0
111
1.0
121
0.0
131
0.0
112
0.0
122
1.0
132
0.0
 79
0
146
0.0
170
0
 61
5
348
2A34
282
1
141
0.0
142
0.0
 63
250
421
3355443
  0
LWPOLYLINE
  5
29C2
330
2A20
100
AcDbEntity
 67
1
  8
Vrstva 11
  6
Continuous
 62
5
370
0
100
AcDbPolyline
 90
5
 70
128
 10
-565523.723
 20
-1187974.591
 10
-565375.223
 20
-1187974.591
 10
-565375.223
 20
-1187869.591
 10
-565523.723
 20
-1187869.591
 10
-565523.723
 20
-1187974.591
  0
TEXT
  5
29C3
330
2A20
100
AcDbEntity
 67
1
  8
Vrstva 49
  6
Continuous
 62
32
370
0
100
AcDbText
 10
-565520.723
 20
-1187873.341
 30
0.0
 40
1.5
  1
Účelová mapa – zadání 13 – Včelák (kresba 1:500 podle měřického náčrtu, tisk 1:250, otočeno podél ulice)
  7
Style-cs_Working
 11
-565520.723
 21
-1187872.591
 31
0.0
100
AcDbText
 73
2
  0
TEXT
  5
29C4
330
2A20
100
AcDbEntity
 67
1
  8
Vrstva 41
  6
Continuous
 62
52
370
0
100
AcDbText
 10
-565520.723
 20
-1187932.012
 30
0.0
 40
0.75
  1
VYSVĚTLIVKY
  7
Style-cs_Working
 11
-565520.723
 21
-1187931.637
 31
0.0
100
AcDbText
 73
2
  0
INSERT
  5
29C5
330
2A20
100
AcDbEntity
 67
1
  8
Vrstva 25
  6
Continuous
 62
12
370
0
100
AcDbBlockReference
  2
6.01A_1
 10
-565516.723
 20
-1187934.137
 30
0.0
  0
TEXT
  5
29CB
330
2A20
100
AcDbEntity
 67
1
  8
Vrstva 41
  6
Continuous
 62
52
370
0
100
AcDbText
 10
-565510.723
 20
-1187934.512
 30
0.0
 40
0.75
  1
sloup betonový
  7
Style-cs_Working
 11
-565510.723
 21
-1187934.137
 31
0.0
100
AcDbText
 73
2
  0
INSERT
  5
29CC
330
2A20
100
AcDbEntity
 67
1
  8
Vrstva 28
  6
Continuous
 62
32
370
0
100
AcDbBlockReference
  2
6.14A_1
 10
-565516.723
 20
-1187936.637
 30
0.0
  0
TEXT
  5
29CE
330
2A20
100
AcDbEntity
 67
1
  8
Vrstva 41
  6
Continuous
 62
52
370
0
100
AcDbText
 10
-565510.723
 20
-1187937.012
 30
0.0
 40
0.75
  1
šoupě vodovodní
  7
Style-cs_Working
 11
-565510.723
 21
-1187936.637
 31
0.0
100
AcDbText
 73
2
  0
INSERT
  5
29CF
330
2A20
100
AcDbEntity
 67
1
  8
Vrstva 31
  6
Continuous
 62
172
370
0
100
AcDbBlockReference
  2
6.14B_1
 10
-565516.723
 20
-1187939.137
 30
0.0
  0
TEXT
  5
29D1
330
2A20
100
AcDbEntity
 67
1
  8
Vrstva 41
  6
Continuous
 62
52
370
0
100
AcDbText
 10
-565510.723
 20
-1187939.512
 30
0.0
 40
0.75
  1
šoupě plynovodní
  7
Style-cs_Working
 11
-565510.723
 21
-1187939.137
 31
0.0
100
AcDbText
 73
2
  0
INSERT
  5
29D2
330
2A20
100
AcDbEntity
 67
1
  8
Vrstva 35
  6
Continuous
 62
32
370
0
100
AcDbBlockReference
  2
8.11_1
 10
-565516.723
 20
-1187941.637
 30
0.0
  0
TEXT
  5
29D5
330
2A20
100
AcDbEntity
 67
1
  8
Vrstva 41
  6
Continuous
 62
52
370
0
100
AcDbText
 10
-565510.723
 20
-1187942.012
 30
0.0
 40
0.75
  1
studna
  7
Style-cs_Working
 11
-565510.723
 21
-1187941.637
 31
0.0
100
AcDbText
 73
2
  0
INSERT
  5
29D6
330
2A20
100
AcDbEntity
 67
1
  8
Vrstva 27
  6
Continuous
 62
172
370
0
100
AcDbBlockReference
  2
6.20_1
 10
-565516.723
 20
-1187944.137
 30
0.0
  0
TEXT
  5
29D8
330
2A20
100
AcDbEntity
 67
1
  8
Vrstva 41
  6
Continuous
 62
52
370
0
100
AcDbText
 10
-565510.723
 20
-1187944.512
 30
0.0
 40
0.75
  1
šachta kanalizační
  7
Style-cs_Working
 11
-565510.723
 21
-1187944.137
 31
0.0
100
AcDbText
 73
2
  0
INSERT
  5
29D9
330
2A20
100
AcDbEntity
 67
1
  8
Vrstva 22
  6
Continuous
 62
3
370
0
100
AcDbBlockReference
  2
3.13_1
 10
-565516.723
 20
-1187946.637
 30
0.0
  0
TEXT
  5
29DF
330
2A20
100
AcDbEntity
 67
1
  8
Vrstva 41
  6
Continuous
 62
52
370
0
100
AcDbText
 10
-565510.723
 20
-1187947.012
 30
0.0
 40
0.75
  1
strom nerozlišený
  7
Style-cs_Working
 11
-565510.723
 21
-1187946.637
 31
0.0
100
AcDbText
 73
2
  0
INSERT
  5
29E0
330
2A20
100
AcDbEntity
 67
1
  8
Vrstva 36
  6
Continuous
 62
32
370
0
100
AcDbBlockReference
  2
3.14_1
 10
-565479.723
 20
-1187934.137
 30
0.0
  0
TEXT
  5
29E4
330
2A20
100
AcDbEntity
 67
1
  8
Vrstva 41
  6
Continuous
 62
52
370
0
100
AcDbText
 10
-565473.723
 20
-1187934.512
 30
0.0
 40
0.75
  1
park (v náčrtu .V.)
  7
Style-cs_Working
 11
-565473.723
 21
-1187934.137
 31
0.0
100
AcDbText
 73
2
  0
INSERT
  5
29E5
330
2A20
100
AcDbEntity
 67
1
  8
Vrstva 36
  6
Continuous
 62
32
370
0
100
AcDbBlockReference
  2
3.04_1
 10
-565479.723
 20
-1187936.637
 30
0.0
  0
TEXT
  5
29E8
330
2A20
100
AcDbEntity
 67
1
  8
Vrstva 41
  6
Continuous
 62
52
370
0
100
AcDbText
 10
-565473.723
 20
-1187937.012
 30
0.0
 40
0.75
  1
zahrada
  7
Style-cs_Working
 11
-565473.723
 21
-1187936.637
 31
0.0
100
AcDbText
 73
2
  0
LINE
  5
29E9
330
2A20
100
AcDbEntity
 67
1
  8
Vrstva 7
  6
2.163
 62
62
370
0
 48
0.5
100
AcDbLine
 10
-565483.723
 20
-1187939.137
 30
0.0
 11
-565475.723
 21
-1187939.137
 31
0.0
  0
TEXT
  5
29EA
330
2A20
100
AcDbEntity
 67
1
  8
Vrstva 41
  6
Continuous
 62
52
370
0
100
AcDbText
 10
-565473.723
 20
-1187939.512
 30
0.0
 40
0.75
  1
plot zděný
  7
Style-cs_Working
 11
-565473.723
 21
-1187939.137
 31
0.0
100
AcDbText
 73
2
  0
LINE
  5
29EB
330
2A20
100
AcDbEntity
 67
1
  8
Vrstva 7
  6
2.103
 62
212
370
0
 48
0.5
100
AcDbLine
 10
-565483.723
 20
-1187941.637
 30
0.0
 11
-565475.723
 21
-1187941.637
 31
0.0
  0
TEXT
  5
29EC
330
2A20
100
AcDbEntity
 67
1
  8
Vrstva 41
  6
Continuous
 62
52
370
0
100
AcDbText
 10
-565473.723
 20
-1187942.012
 30
0.0
 40
0.75
  1
plot dřevěný
  7
Style-cs_Working
 11
-565473.723
 21
-1187941.637
 31
0.0
100
AcDbText
 73
2
  0
LINE
  5
29ED
330
2A20
100
AcDbEntity
 67
1
  8
Vrstva 7
  6
Continuous
 62
5
370
0
100
AcDbLine
 10
-565483.723
 20
-1187944.137
 30
0.0
 11
-565475.723
 21
-1187944.137
 31
0.0
  0
TEXT
  5
29EE
330
2A20
100
AcDbEntity
 67
1
  8
Vrstva 41
  6
Continuous
 62
52
370
0
100
AcDbText
 10
-565473.723
 20
-1187944.512
 30
0.0
 40
0.75
  1
zeď, podezdívka plotu
  7
Style-cs_Working
 11
-565473.723
 21
-1187944.137
 31
0.0
100
AcDbText
 73
2
  0
LINE
  5
29EF
330
2A20
100
AcDbEntity
 67
1
  8
Vrstva 8
  6
Continuous
 62
14
370
30
100
AcDbLine
 10
-565483.723
 20
-1187946.637
 30
0.0
 11
-565475.723
 21
-1187946.637
 31
0.0
  0
TEXT
  5
29F0
330
2A20
100
AcDbEntity
 67
1
  8
Vrstva 41
  6
Continuous
 62
52
370
0
100
AcDbText
 10
-565473.723
 20
-1187947.012
 30
0.0
 40
0.75
  1
vstup, vjezd na pozemek
  7
Style-cs_Working
 11
-565473.723
 21
-1187946.637
 31
0.0
100
AcDbText
 73
2
  0
LINE
  5
29F1
330
2A20
100
AcDbEntity
 67
1
  8
Vrstva 5
  6
Continuous
 62
32
370
0
100
AcDbLine
 10
-565446.723
 20
-1187934.137
 30
0.0
 11
-565438.723
 21
-1187934.137
 31
0.0
  0
TEXT
  5
29F2
330
2A20
100
AcDbEntity
 67
1
  8
Vrstva 41
  6
Continuous
 62
52
370
0
100
AcDbText
 10
-565436.723
 20
-1187934.512
 30
0.0
 40
0.75
  1
budova zděná
  7
Style-cs_Working
 11
-565436.723
 21
-1187934.137
 31
0.0
100
AcDbText
 73
2
  0
LINE
  5
29F3
330
2A20
100
AcDbEntity
 67
1
  8
Vrstva 5
  6
DGN Style 2
 62
32
370
0
100
AcDbLine
 10
-565446.723
 20
-1187936.637
 30
0.0
 11
-565438.723
 21
-1187936.637
 31
0.0
  0
TEXT
  5
29F4
330
2A20
100
AcDbEntity
 67
1
  8
Vrstva 41
  6
Continuous
 62
52
370
0
100
AcDbText
 10
-565436.723
 20
-1187937.012
 30
0.0
 40
0.75
  1
převislá část budovy (bez styku s terénem)
  7
Style-cs_Working
 11
-565436.723
 21
-1187936.637
 31
0.0
100
AcDbText
 73
2
  0
LINE
  5
29F5
330
2A20
100
AcDbEntity
 67
1
  8
Vrstva 5
  6
DGN Style 4
 62
32
370
0
100
AcDbLine
 10
-565446.723
 20
-1187939.137
 30
0.0
 11
-565438.723
 21
-1187939.137
 31
0.0
  0
TEXT
  5
29F6
330
2A20
100
AcDbEntity
 67
1
  8
Vrstva 41
  6
Continuous
 62
52
370
0
100
AcDbText
 10
-565436.723
 20
-1187939.512
 30
0.0
 40
0.75
  1
část pod patrem (shora neviditelná)
  7
Style-cs_Working
 11
-565436.723
 21
-1187939.137
 31
0.0
100
AcDbText
 73
2
  0
LINE
  5
29F7
330
2A20
100
AcDbEntity
 67
1
  8
Vrstva 6
  6
Continuous
 62
14
370
30
100
AcDbLine
 10
-565446.723
 20
-1187941.637
 30
0.0
 11
-565438.723
 21
-1187941.637
 31
0.0
  0
TEXT
  5
29F8
330
2A20
100
AcDbEntity
 67
1
  8
Vrstva 41
  6
Continuous
 62
52
370
0
100
AcDbText
 10
-565436.723
 20
-1187942.012
 30
0.0
 40
0.75
  1
vstup do objektu
  7
Style-cs_Working
 11
-565436.723
 21
-1187941.637
 31
0.0
100
AcDbText
 73
2
  0
LINE
  5
29F9
330
2A20
100
AcDbEntity
 67
1
  8
Vrstva 11
  6
Continuous
 62
7
370
0
100
AcDbLine
 10
-565446.723
 20
-1187944.137
 30
0.0
 11
-565438.723
 21
-1187944.137
 31
0.0
  0
TEXT
  5
29FA
330
2A20
100
AcDbEntity
 67
1
  8
Vrstva 41
  6
Continuous
 62
52
370
0
100
AcDbText
 10
-565436.723
 20
-1187944.512
 30
0.0
 40
0.75
  1
schody
  7
Style-cs_Working
 11
-565436.723
 21
-1187944.137
 31
0.0
100
AcDbText
 73
2
  0
POINT
  5
29FB
330
2A20
100
AcDbEntity
 67
1
  8
Vrstva 58
  6
Continuous
 62
7
370
30
100
AcDbPoint
 10
-565442.723
 20
-1187946.637
 30
0.0
  0
TEXT
  5
29FC
330
2A20
100
AcDbEntity
 67
1
  8
Vrstva 59
  6
Continuous
 62
32
370
0
100
AcDbText
 10
-565442.423
 20
-1187946.487
 30
0.0
 40
0.75
  1
12
  7
Style-cs_Working
 11
-565442.423
 21
-1187945.737
 31
0.0
100
AcDbText
 73
3
  0
TEXT
  5
29FD
330
2A20
100
AcDbEntity
 67
1
  8
Vrstva 41
  6
Continuous
 62
52
370
0
100
AcDbText
 10
-565436.723
 20
-1187947.012
 30
0.0
 40
0.75
  1
podrobný bod a jeho číslo
  7
Style-cs_Working
 11
-565436.723
 21
-1187946.637
 31
0.0
100
AcDbText
 73
2
  0
LINE
  5
29FE
330
2A20
100
AcDbEntity
 67
1
  8
Vrstva 10
  6
Continuous
 62
4
370
0
100
AcDbLine
 10
-565409.723
 20
-1187934.137
 30
0.0
 11
-565401.723
 21
-1187934.137
 31
0.0
  0
TEXT
  5
29FF
330
2A20
100
AcDbEntity
 67
1
  8
Vrstva 41
  6
Continuous
 62
52
370
0
100
AcDbText
 10
-565399.723
 20
-1187934.512
 30
0.0
 40
0.75
  1
rozhraní vozovky
  7
Style-cs_Working
 11
-565399.723
 21
-1187934.137
 31
0.0
100
AcDbText
 73
2
  0
LINE
  5
2A00
330
2A20
100
AcDbEntity
 67
1
  8
Vrstva 11
  6
Continuous
 62
7
370
0
100
AcDbLine
 10
-565409.723
 20
-1187936.637
 30
0.0
 11
-565401.723
 21
-1187936.637
 31
0.0
  0
TEXT
  5
2A01
330
2A20
100
AcDbEntity
 67
1
  8
Vrstva 41
  6
Continuous
 62
52
370
0
100
AcDbText
 10
-565399.723
 20
-1187937.012
 30
0.0
 40
0.75
  1
rozhraní chodníku
  7
Style-cs_Working
 11
-565399.723
 21
-1187936.637
 31
0.0
100
AcDbText
 73
2
  0
TEXT
  5
2A02
330
2A20
100
AcDbEntity
 67
1
  8
Vrstva 40
  6
Continuous
 62
12
370
0
100
AcDbText
 10
-565407.564667
 20
-1187939.462
 30
0.0
 40
0.65
  1
chodník
  7
Style-cs_Working
 72
1
 11
-565405.723
 21
-1187939.137
 31
0.0
100
AcDbText
 73
2
  0
TEXT
  5
2A03
330
2A20
100
AcDbEntity
 67
1
  8
Vrstva 41
  6
Continuous
 62
52
370
0
100
AcDbText
 10
-565399.723
 20
-1187939.512
 30
0.0
 40
0.75
  1
popis povrchu
  7
Style-cs_Working
 11
-565399.723
 21
-1187939.137
 31
0.0
100
AcDbText
 73
2
  0
TEXT
  5
2A04
330
2A20
100
AcDbEntity
 67
1
  8
Vrstva 41
  6
Continuous
 62
52
370
0
100
AcDbText
 10
-565408.973
 20
-1187942.012
 30
0.0
 40
0.75
  1
Dřevovýroba
  7
Style-cs_Working
 72
1
 11
-565405.723
 21
-1187941.637
 31
0.0
100
AcDbText
 73
2
  0
TEXT
  5
2A05
330
2A20
100
AcDbEntity
 67
1
  8
Vrstva 41
  6
Continuous
 62
52
370
0
100
AcDbText
 10
-565399.723
 20
-1187942.012
 30
0.0
 40
0.75
  1
popis objektu
  7
Style-cs_Working
 11
-565399.723
 21
-1187941.637
 31
0.0
100
AcDbText
 73
2
  0
TEXT
  5
2A06
330
2A20
100
AcDbEntity
 67
1
  8
Vrstva 47
  6
Continuous
 62
174
370
0
100
AcDbText
 10
-565406.984905
 20
-1187944.637
 30
0.0
 40
1.0
  1
989
  7
Style-cs_Working
 72
1
 11
-565405.723
 21
-1187944.137
 31
0.0
100
AcDbText
 73
2
  0
TEXT
  5
2A07
330
2A20
100
AcDbEntity
 67
1
  8
Vrstva 41
  6
Continuous
 62
52
370
0
100
AcDbText
 10
-565399.723
 20
-1187944.512
 30
0.0
 40
0.75
  1
číslo popisné
  7
Style-cs_Working
 11
-565399.723
 21
-1187944.137
 31
0.0
100
AcDbText
 73
2
  0
ENDSEC
  0
SECTION
  2
OBJECTS
  0
DICTIONARY
  5
2A10
330
0
100
AcDbDictionary
281
1
  3
ACAD_COLOR
350
2A4E
  3
ACAD_GROUP
350
2A3B
  3
ACAD_LAYOUT
350
2A1D
  3
ACAD_MATERIAL
350
2A12
  3
ACAD_MLEADERSTYLE
350
2A51
  3
ACAD_MLINESTYLE
350
2A3C
  3
ACAD_PLOTSETTINGS
350
2A3D
  3
ACAD_PLOTSTYLENAME
350
2A0F
  3
ACAD_SCALELIST
350
2A4F
  3
ACAD_TABLESTYLE
350
2A50
  3
ACAD_VISUALSTYLE
350
2A35
  3
AcadDim
350
2A92
  3
ACDB_RECOMPOSE_DATA
350
2ACD
  3
AcDbVariableDictionary
350
2A52
  3
MicroStation
350
2A89
  3
EZDXF_META
350
2AED
  0
DICTIONARY
  5
2A28
330
2A27
100
AcDbDictionary
280
1
281
1
  3
ACAD_LAYERFILTERS
360
2A87
  3
ACAD_LAYERSTATES
360
2A29
  3
ACLYDICTIONARY
360
2A88
  0
DICTIONARY
  5
2A0C
330
2A0B
100
AcDbDictionary
280
1
281
1
  3
ADSK_XREC_LAYER_RECONCILED
360
2A0D
  0
DICTIONARY
  5
2A4E
102
{ACAD_REACTORS
330
2A10
102
}
330
2A10
100
AcDbDictionary
281
1
  0
DICTIONARY
  5
2A3B
102
{ACAD_REACTORS
330
2A10
102
}
330
2A10
100
AcDbDictionary
281
1
  0
DICTIONARY
  5
2A1D
102
{ACAD_REACTORS
330
2A10
102
}
330
2A10
100
AcDbDictionary
281
1
  3
Arch
350
2A23
  3
Model
350
2A1C
  0
DICTIONARY
  5
2A12
102
{ACAD_REACTORS
330
2A10
102
}
330
2A10
100
AcDbDictionary
281
1
  3
ByBlock
350
2A46
  3
ByLayer
350
2A3E
  3
Global
350
2A11
  0
DICTIONARY
  5
2A51
102
{ACAD_REACTORS
330
2A10
102
}
330
2A10
100
AcDbDictionary
281
1
  3
Standard
350
2A93
  0
DICTIONARY
  5
2A3C
102
{ACAD_REACTORS
330
2A10
102
}
330
2A10
100
AcDbDictionary
281
1
  3
Standard
350
2A5D
  0
DICTIONARY
  5
2A3D
102
{ACAD_REACTORS
330
2A10
102
}
330
2A10
100
AcDbDictionary
281
1
  0
ACDBDICTIONARYWDFLT
  5
2A0F
102
{ACAD_REACTORS
330
2A10
102
}
330
2A10
100
AcDbDictionary
281
1
  3
Normal
350
2A0E
100
AcDbDictionaryWithDefault
340
2A0E
  0
DICTIONARY
  5
2A4F
102
{ACAD_REACTORS
330
2A10
102
}
330
2A10
100
AcDbDictionary
281
1
  3
A0
350
2A62
  3
A1
350
2A63
  3
A2
350
2A64
  3
A3
350
2A65
  3
A4
350
2A66
  3
A5
350
2A67
  3
A6
350
2A68
  3
A7
350
2A69
  3
A8
350
2A6A
  3
A9
350
2A6B
  3
B0
350
2A6C
  3
B1
350
2A6D
  3
B2
350
2A6E
  3
B3
350
2A6F
  3
B4
350
2A70
  3
B5
350
2A71
  3
B6
350
2A72
  3
B7
350
2A73
  3
B8
350
2A74
  3
B9
350
2A75
  3
C0
350
2A76
  3
C1
350
2A77
  3
C2
350
2A78
  3
C3
350
2A79
  3
C4
350
2A7A
  3
C5
350
2A7B
  3
C6
350
2A7C
  3
C7
350
2A7D
  3
C8
350
2A7E
  3
C9
350
2A7F
  3
D0
350
2A80
  3
D1
350
2A81
  3
D2
350
2A82
  0
DICTIONARY
  5
2A50
102
{ACAD_REACTORS
330
2A10
102
}
330
2A10
100
AcDbDictionary
281
1
  3
Standard
350
2A5E
  0
DICTIONARY
  5
2A35
102
{ACAD_REACTORS
330
2A10
102
}
330
2A10
100
AcDbDictionary
281
1
  3
2dWireframe
350
2A34
  3
Realistic
350
2A60
  3
Wireframe
350
2A61
  0
XRECORD
  5
2A92
102
{ACAD_REACTORS
330
2A10
102
}
330
2A10
100
AcDbXrecord
280
1
 90
990106
  3
 
 60
0
 61
0
 62
1
 63
1
 64
0
 65
0
 66
0
 67
3
 68
1
 69
1
 70
0
 71
0
 72
0
 40
0.0
170
0
  0
XRECORD
  5
2ACD
102
{ACAD_REACTORS
330
2A10
102
}
330
2A10
100
AcDbXrecord
280
1
 90
1
330
2A5E
  0
DICTIONARY
  5
2A52
102
{ACAD_REACTORS
330
2A10
102
}
330
2A10
100
AcDbDictionary
281
1
  3
CANNOSCALE
350
2A53
  3
CMLEADERSTYLE
350
2A54
  3
CTABLESTYLE
350
2A55
  3
CVIEWDETAILSTYLE
350
2A56
  3
CVIEWSECTIONSTYLE
350
2A57
  3
DIMASSOC
350
2A58
  3
HIDETEXT
350
2A59
  3
LAYEREVAL
350
2A5A
  3
LAYERNOTIFY
350
2A5B
  3
MSLTSCALE
350
2A5C
  3
PDFFRAME
350
2ACB
  0
DICTIONARY
  5
2A89
102
{ACAD_REACTORS
330
2A10
102
}
330
2A10
100
AcDbDictionary
281
1
  0
DICTIONARY
  5
2A87
102
{ACAD_REACTORS
330
2A28
102
}
330
2A28
100
AcDbDictionary
281
1
  0
DICTIONARY
  5
2A29
102
{ACAD_REACTORS
330
2A28
102
}
330
2A28
100
AcDbDictionary
281
1
  0
DICTIONARY
  5
2A88
102
{ACAD_REACTORS
330
2A28
102
}
330
2A28
100
AcDbDictionary
281
1
  0
XRECORD
  5
2A0D
102
{ACAD_REACTORS
330
2A0C
102
}
330
2A0C
100
AcDbXrecord
280
1
290
1
  0
LAYOUT
  5
2A23
102
{ACAD_XDICTIONARY
360
2A24
102
}
102
{ACAD_REACTORS
330
2A1D
102
}
330
2A1D
100
AcDbPlotSettings
  1

  2
none_device
  4
Letter_(8.50_x_11.00_Inches)
  6

 40
6.35
 41
6.35
 42
6.350006
 43
6.350006
 44
215.899994
 45
279.399994
 46
0.0
 47
0.0
 48
0.0
 49
0.0
140
0.0
141
0.0
142
1.0
143
1.0
 70
688
 72
0
 73
1
 74
5
  7

 75
16
 76
0
 77
2
 78
300
147
1.0
148
0.0
149
0.0
100
AcDbLayout
  1
Arch
 70
1
 71
1
 10
-0.25
 20
-0.25
 11
10.75
 21
8.25
 12
0.0
 22
0.0
 32
0.0
 14
1.05
 24
0.8
 34
0.0
 15
9.45
 25
7.2
 35
0.0
146
0.0
 13
0.0
 23
0.0
 33
0.0
 16
1.0
 26
0.0
 36
0.0
 17
0.0
 27
1.0
 37
0.0
 76
0
330
2A20
1001
ACAD_PSEXT
1000
None
1000
None
1000
Not applicable
1000
The layout will not be plotted unless a new plotter configuration name is selected.
1070
0
1001
AcadAnnoAV
1070
1
  0
LAYOUT
  5
2A1C
102
{ACAD_XDICTIONARY
360
2A1E
102
}
102
{ACAD_REACTORS
330
2A1D
102
}
330
2A1D
100
AcDbPlotSettings
  1

  2
none_device
  4
ANSI_A_(8.50_x_11.00_Inches)
  6

 40
6.35
 41
19.049999
 42
6.350006
 43
19.049988
 44
215.899994
 45
279.399994
 46
0.0
 47
0.0
 48
0.0
 49
0.0
140
0.0
141
0.0
142
1.0
143
2.584895
 70
11952
 72
0
 73
1
 74
0
  7

 75
0
 76
0
 77
2
 78
300
147
0.386863
148
0.0
149
0.0
100
AcDbLayout
  1
Model
 70
1
 71
0
 10
0.0
 20
0.0
 11
12.0
 21
9.0
 12
0.0
 22
0.0
 32
0.0
 14
0.0
 24
0.0
 34
0.0
 15
0.0
 25
0.0
 35
0.0
146
0.0
 13
0.0
 23
0.0
 33
0.0
 16
1.0
 26
0.0
 36
0.0
 17
0.0
 27
1.0
 37
0.0
 76
0
330
2A09
331
2A33
  0
MATERIAL
  5
2A46
102
{ACAD_XDICTIONARY
360
2A47
102
}
102
{ACAD_REACTORS
330
2A12
102
}
330
2A12
100
AcDbMaterial
  1
ByBlock
  2

 70
0
 40
1.0
 71
0
 41
1.0
 91
-1023410177
 42
1.0
 72
0
  3

 73
1
 74
1
 75
1
 43
0.020833
 43
0.0
 43
0.0
 43
0.0
 43
0.0
 43
0.020833
 43
0.0
 43
0.0
 43
0.0
 43
0.0
 43
1.0
 43
0.0
 43
0.0
 43
0.0
 43
0.0
 43
1.0
 44
0.5
 73
0
 45
1.0
 46
1.0
 77
0
  4

 78
1
 79
1
170
1
 47
0.020833
 47
0.0
 47
0.0
 47
0.0
 47
0.0
 47
0.020833
 47
0.0
 47
0.0
 47
0.0
 47
0.0
 47
1.0
 47
0.0
 47
0.0
 47
0.0
 47
0.0
 47
1.0
 48
1.0
171
0
  6

172
1
173
1
174
1
 49
0.020833
 49
0.0
 49
0.0
 49
0.0
 49
0.0
 49
0.020833
 49
0.0
 49
0.0
 49
0.0
 49
0.0
 49
1.0
 49
0.0
 49
0.0
 49
0.0
 49
0.0
 49
1.0
140
1.0
141
1.0
175
0
  7

176
1
177
1
178
1
142
0.020833
142
0.0
142
0.0
142
0.0
142
0.0
142
0.020833
142
0.0
142
0.0
142
0.0
142
0.0
142
1.0
142
0.0
142
0.0
142
0.0
142
0.0
142
1.0
143
1.0
179
0
  8

270
1
271
1
272
1
144
0.020833
144
0.0
144
0.0
144
0.0
144
0.0
144
0.020833
144
0.0
144
0.0
144
0.0
144
0.0
144
1.0
144
0.0
144
0.0
144
0.0
144
0.0
144
1.0
145
1.0
146
1.0
273
1
  9

274
1
275
1
276
1
147
0.020833
147
0.0
147
0.0
147
0.0
147
0.0
147
0.020833
147
0.0
147
0.0
147
0.0
147
0.0
147
1.0
147
0.0
147
0.0
147
0.0
147
0.0
147
1.0
 42
1.0
 72
1
  3

 73
1
 74
1
 75
1
 94
63
  0
MATERIAL
  5
2A3E
102
{ACAD_XDICTIONARY
360
2A3F
102
}
102
{ACAD_REACTORS
330
2A12
102
}
330
2A12
100
AcDbMaterial
  1
ByLayer
  2

 70
0
 40
1.0
 71
0
 41
1.0
 91
-1023410177
 42
1.0
 72
0
  3

 73
1
 74
1
 75
1
 43
0.020833
 43
0.0
 43
0.0
 43
0.0
 43
0.0
 43
0.020833
 43
0.0
 43
0.0
 43
0.0
 43
0.0
 43
1.0
 43
0.0
 43
0.0
 43
0.0
 43
0.0
 43
1.0
 44
0.5
 73
0
 45
1.0
 46
1.0
 77
0
  4

 78
1
 79
1
170
1
 47
0.020833
 47
0.0
 47
0.0
 47
0.0
 47
0.0
 47
0.020833
 47
0.0
 47
0.0
 47
0.0
 47
0.0
 47
1.0
 47
0.0
 47
0.0
 47
0.0
 47
0.0
 47
1.0
 48
1.0
171
0
  6

172
1
173
1
174
1
 49
0.020833
 49
0.0
 49
0.0
 49
0.0
 49
0.0
 49
0.020833
 49
0.0
 49
0.0
 49
0.0
 49
0.0
 49
1.0
 49
0.0
 49
0.0
 49
0.0
 49
0.0
 49
1.0
140
1.0
141
1.0
175
0
  7

176
1
177
1
178
1
142
0.020833
142
0.0
142
0.0
142
0.0
142
0.0
142
0.020833
142
0.0
142
0.0
142
0.0
142
0.0
142
1.0
142
0.0
142
0.0
142
0.0
142
0.0
142
1.0
143
1.0
179
0
  8

270
1
271
1
272
1
144
0.020833
144
0.0
144
0.0
144
0.0
144
0.0
144
0.020833
144
0.0
144
0.0
144
0.0
144
0.0
144
1.0
144
0.0
144
0.0
144
0.0
144
0.0
144
1.0
145
1.0
146
1.0
273
1
  9

274
1
275
1
276
1
147
0.020833
147
0.0
147
0.0
147
0.0
147
0.0
147
0.020833
147
0.0
147
0.0
147
0.0
147
0.0
147
1.0
147
0.0
147
0.0
147
0.0
147
0.0
147
1.0
 42
1.0
 72
1
  3

 73
1
 74
1
 75
1
 94
63
  0
MATERIAL
  5
2A11
102
{ACAD_XDICTIONARY
360
2A13
102
}
102
{ACAD_REACTORS
330
2A12
102
}
330
2A12
100
AcDbMaterial
  1
Global
  2

 70
0
 40
1.0
 71
0
 41
1.0
 91
-1023410177
 42
1.0
 72
0
  3

 73
1
 74
1
 75
1
 43
0.020833
 43
0.0
 43
0.0
 43
0.0
 43
0.0
 43
0.020833
 43
0.0
 43
0.0
 43
0.0
 43
0.0
 43
1.0
 43
0.0
 43
0.0
 43
0.0
 43
0.0
 43
1.0
 44
0.5
 73
0
 45
1.0
 46
1.0
 77
0
  4

 78
1
 79
1
170
1
 47
0.020833
 47
0.0
 47
0.0
 47
0.0
 47
0.0
 47
0.020833
 47
0.0
 47
0.0
 47
0.0
 47
0.0
 47
1.0
 47
0.0
 47
0.0
 47
0.0
 47
0.0
 47
1.0
 48
1.0
171
0
  6

172
1
173
1
174
1
 49
0.020833
 49
0.0
 49
0.0
 49
0.0
 49
0.0
 49
0.020833
 49
0.0
 49
0.0
 49
0.0
 49
0.0
 49
1.0
 49
0.0
 49
0.0
 49
0.0
 49
0.0
 49
1.0
140
1.0
141
1.0
175
0
  7

176
1
177
1
178
1
142
0.020833
142
0.0
142
0.0
142
0.0
142
0.0
142
0.020833
142
0.0
142
0.0
142
0.0
142
0.0
142
1.0
142
0.0
142
0.0
142
0.0
142
0.0
142
1.0
143
1.0
179
0
  8

270
1
271
1
272
1
144
0.020833
144
0.0
144
0.0
144
0.0
144
0.0
144
0.020833
144
0.0
144
0.0
144
0.0
144
0.0
144
1.0
144
0.0
144
0.0
144
0.0
144
0.0
144
1.0
145
1.0
146
1.0
273
1
  9

274
1
275
1
276
1
147
0.020833
147
0.0
147
0.0
147
0.0
147
0.0
147
0.020833
147
0.0
147
0.0
147
0.0
147
0.0
147
1.0
147
0.0
147
0.0
147
0.0
147
0.0
147
1.0
 42
1.0
 72
1
  3

 73
1
 74
1
 75
1
 94
63
  0
MLEADERSTYLE
  5
2A93
102
{ACAD_REACTORS
330
2A51
102
}
330
2A51
100
AcDbMLeaderStyle
179
2
170
2
171
1
172
0
 90
2
 40
0.0
 41
0.0
173
1
 91
-1023410172
340
2A1A
 92
0
290
1
 42
0.0
291
0
 43
0.0
  3

341
2A8C
 44
0.6
300

342
2A8B
174
1
175
1
176
0
178
1
 93
-1073741824
 45
0.6
292
0
297
1
 46
5.0
293
1
 94
-1073741824
 47
1.0
 49
1.0
140
1.0
294
1
141
0.0
177
0
142
1.0
295
1
296
1
143
0.125
271
0
272
9
273
9
298
0
  0
MLINESTYLE
  5
2A5D
102
{ACAD_REACTORS
330
2A3C
102
}
330
2A3C
100
AcDbMlineStyle
  2
STANDARD
 70
0
  3

 62
256
 51
90.0
 52
90.0
 71
2
 49
0.5
 62
256
  6
BYLAYER
 49
-0.5
 62
256
  6
BYLAYER
  0
ACDBPLACEHOLDER
  5
2A0E
102
{ACAD_REACTORS
330
2A0F
102
}
330
2A0F
  0
SCALE
  5
2A62
102
{ACAD_REACTORS
330
2A4F
102
}
330
2A4F
100
AcDbScale
 70
0
300
1:1
140
1.0
141
1.0
290
1
  0
SCALE
  5
2A63
102
{ACAD_REACTORS
330
2A4F
102
}
330
2A4F
100
AcDbScale
 70
0
300
1:2
140
1.0
141
2.0
290
0
  0
SCALE
  5
2A64
102
{ACAD_REACTORS
330
2A4F
102
}
330
2A4F
100
AcDbScale
 70
0
300
1:4
140
1.0
141
4.0
290
0
  0
SCALE
  5
2A65
102
{ACAD_REACTORS
330
2A4F
102
}
330
2A4F
100
AcDbScale
 70
0
300
1:5
140
1.0
141
5.0
290
0
  0
SCALE
  5
2A66
102
{ACAD_REACTORS
330
2A4F
102
}
330
2A4F
100
AcDbScale
 70
0
300
1:8
140
1.0
141
8.0
290
0
  0
SCALE
  5
2A67
102
{ACAD_REACTORS
330
2A4F
102
}
330
2A4F
100
AcDbScale
 70
0
300
1:10
140
1.0
141
10.0
290
0
  0
SCALE
  5
2A68
102
{ACAD_REACTORS
330
2A4F
102
}
330
2A4F
100
AcDbScale
 70
0
300
1:16
140
1.0
141
16.0
290
0
  0
SCALE
  5
2A69
102
{ACAD_REACTORS
330
2A4F
102
}
330
2A4F
100
AcDbScale
 70
0
300
1:20
140
1.0
141
20.0
290
0
  0
SCALE
  5
2A6A
102
{ACAD_REACTORS
330
2A4F
102
}
330
2A4F
100
AcDbScale
 70
0
300
1:30
140
1.0
141
30.0
290
0
  0
SCALE
  5
2A6B
102
{ACAD_REACTORS
330
2A4F
102
}
330
2A4F
100
AcDbScale
 70
0
300
1:40
140
1.0
141
40.0
290
0
  0
SCALE
  5
2A6C
102
{ACAD_REACTORS
330
2A4F
102
}
330
2A4F
100
AcDbScale
 70
0
300
1:50
140
1.0
141
50.0
290
0
  0
SCALE
  5
2A6D
102
{ACAD_REACTORS
330
2A4F
102
}
330
2A4F
100
AcDbScale
 70
0
300
1:100
140
1.0
141
100.0
290
0
  0
SCALE
  5
2A6E
102
{ACAD_REACTORS
330
2A4F
102
}
330
2A4F
100
AcDbScale
 70
0
300
2:1
140
2.0
141
1.0
290
0
  0
SCALE
  5
2A6F
102
{ACAD_REACTORS
330
2A4F
102
}
330
2A4F
100
AcDbScale
 70
0
300
4:1
140
4.0
141
1.0
290
0
  0
SCALE
  5
2A70
102
{ACAD_REACTORS
330
2A4F
102
}
330
2A4F
100
AcDbScale
 70
0
300
8:1
140
8.0
141
1.0
290
0
  0
SCALE
  5
2A71
102
{ACAD_REACTORS
330
2A4F
102
}
330
2A4F
100
AcDbScale
 70
0
300
10:1
140
10.0
141
1.0
290
0
  0
SCALE
  5
2A72
102
{ACAD_REACTORS
330
2A4F
102
}
330
2A4F
100
AcDbScale
 70
0
300
100:1
140
100.0
141
1.0
290
0
  0
SCALE
  5
2A73
102
{ACAD_REACTORS
330
2A4F
102
}
330
2A4F
100
AcDbScale
 70
0
300
1/128" = 1'-0"
140
0.007813
141
12.0
290
0
  0
SCALE
  5
2A74
102
{ACAD_REACTORS
330
2A4F
102
}
330
2A4F
100
AcDbScale
 70
0
300
1/64" = 1'-0"
140
0.015625
141
12.0
290
0
  0
SCALE
  5
2A75
102
{ACAD_REACTORS
330
2A4F
102
}
330
2A4F
100
AcDbScale
 70
0
300
1/32" = 1'-0"
140
0.03125
141
12.0
290
0
  0
SCALE
  5
2A76
102
{ACAD_REACTORS
330
2A4F
102
}
330
2A4F
100
AcDbScale
 70
0
300
1/16" = 1'-0"
140
0.0625
141
12.0
290
0
  0
SCALE
  5
2A77
102
{ACAD_REACTORS
330
2A4F
102
}
330
2A4F
100
AcDbScale
 70
0
300
3/32" = 1'-0"
140
0.09375
141
12.0
290
0
  0
SCALE
  5
2A78
102
{ACAD_REACTORS
330
2A4F
102
}
330
2A4F
100
AcDbScale
 70
0
300
1/8" = 1'-0"
140
0.125
141
12.0
290
0
  0
SCALE
  5
2A79
102
{ACAD_REACTORS
330
2A4F
102
}
330
2A4F
100
AcDbScale
 70
0
300
3/16" = 1'-0"
140
0.1875
141
12.0
290
0
  0
SCALE
  5
2A7A
102
{ACAD_REACTORS
330
2A4F
102
}
330
2A4F
100
AcDbScale
 70
0
300
1/4" = 1'-0"
140
0.25
141
12.0
290
0
  0
SCALE
  5
2A7B
102
{ACAD_REACTORS
330
2A4F
102
}
330
2A4F
100
AcDbScale
 70
0
300
3/8" = 1'-0"
140
0.375
141
12.0
290
0
  0
SCALE
  5
2A7C
102
{ACAD_REACTORS
330
2A4F
102
}
330
2A4F
100
AcDbScale
 70
0
300
1/2" = 1'-0"
140
0.5
141
12.0
290
0
  0
SCALE
  5
2A7D
102
{ACAD_REACTORS
330
2A4F
102
}
330
2A4F
100
AcDbScale
 70
0
300
3/4" = 1'-0"
140
0.75
141
12.0
290
0
  0
SCALE
  5
2A7E
102
{ACAD_REACTORS
330
2A4F
102
}
330
2A4F
100
AcDbScale
 70
0
300
1" = 1'-0"
140
1.0
141
12.0
290
0
  0
SCALE
  5
2A7F
102
{ACAD_REACTORS
330
2A4F
102
}
330
2A4F
100
AcDbScale
 70
0
300
1-1/2" = 1'-0"
140
1.5
141
12.0
290
0
  0
SCALE
  5
2A80
102
{ACAD_REACTORS
330
2A4F
102
}
330
2A4F
100
AcDbScale
 70
0
300
3" = 1'-0"
140
3.0
141
12.0
290
0
  0
SCALE
  5
2A81
102
{ACAD_REACTORS
330
2A4F
102
}
330
2A4F
100
AcDbScale
 70
0
300
6" = 1'-0"
140
6.0
141
12.0
290
0
  0
SCALE
  5
2A82
102
{ACAD_REACTORS
330
2A4F
102
}
330
2A4F
100
AcDbScale
 70
0
300
1'-0" = 1'-0"
140
12.0
141
12.0
290
0
  0
TABLESTYLE
  5
2A5E
102
{ACAD_XDICTIONARY
360
2A5F
102
}
102
{ACAD_REACTORS
330
2A50
102
}
330
2A50
100
AcDbTableStyle
280
0
  3
Standard
 70
0
 71
0
 40
0.06
 41
0.06
280
0
281
0
  7
Standard
140
0.18
170
2
 62
0
 63
7
283
0
 90
4
 91
0
  1

274
-2
284
1
 64
0
275
-2
285
1
 65
0
276
-2
286
1
 66
0
277
-2
287
1
 67
0
278
-2
288
1
 68
0
279
-2
289
1
 69
0
  7
Standard
140
0.25
170
5
 62
0
 63
7
283
0
 90
4
 91
0
  1

274
-2
284
1
 64
0
275
-2
285
1
 65
0
276
-2
286
1
 66
0
277
-2
287
1
 67
0
278
-2
288
1
 68
0
279
-2
289
1
 69
0
  7
Standard
140
0.18
170
5
 62
0
 63
7
283
0
 90
4
 91
0
  1

274
-2
284
1
 64
0
275
-2
285
1
 65
0
276
-2
286
1
 66
0
277
-2
287
1
 67
0
278
-2
288
1
 68
0
279
-2
289
1
 69
0
  0
VISUALSTYLE
  5
2A34
102
{ACAD_REACTORS
330
2A35
102
}
330
2A35
100
AcDbVisualStyle
  2
2dWireframe
 70
4
177
3
291
0
 70
58
 90
0
176
1
 90
2
176
1
 90
0
176
1
 90
0
176
1
 40
0.6
176
1
 40
30.0
176
1
 62
7
420
16777215
176
1
 90
1
176
1
 90
4
176
1
 62
7
176
1
 62
257
176
1
 90
1
176
1
 90
1
176
1
 40
1.0
176
1
 90
0
176
1
 62
257
176
1
 40
1.0
176
1
 90
1
176
1
 90
6
176
1
 90
2
176
1
 62
7
176
1
 90
5
176
1
 90
0
176
1
 90
0
176
1
290
0
176
1
 90
1
176
1
 40
0.0
176
1
 90
0
176
1
290
1
176
1
290
1
176
1
290
0
176
1
290
0
176
1
290
0
176
1
290
0
176
1
290
0
176
1
290
0
176
1
290
0
176
1
 90
50
176
1
 40
0.0
176
1
 40
1.0
176
1
 90
0
176
1
 62
18
420
0
176
1
 90
50
176
1
 90
3
176
1
 62
5
420
255
176
1
290
0
176
1
 90
50
176
1
 90
50
176
1
 90
50
176
1
290
0
176
1
 90
50
176
1
 62
256
176
0
 40
1.0
176
0
 90
2
176
1
  1
strokes_ogs.tif
176
1
290
0
176
1
 40
1.0
176
1
 40
1.0
176
1
  0
VISUALSTYLE
  5
2A60
102
{ACAD_REACTORS
330
2A35
102
}
330
2A35
100
AcDbVisualStyle
  2
Realistic
 70
8
177
3
291
0
 70
58
 90
2
176
1
 90
2
176
1
 90
0
176
1
 90
0
176
1
 40
0.6
176
1
 40
30.0
176
1
 62
7
420
16777215
176
1
 90
1
176
1
 90
0
176
1
 62
7
176
1
 62
257
176
1
 90
1
176
1
 90
1
176
1
 40
1.0
176
1
 90
8
176
1
 62
8
420
7895160
176
1
 40
1.0
176
1
 90
1
176
1
 90
6
176
1
 90
2
176
1
 62
7
176
1
 90
5
176
1
 90
0
176
1
 90
0
176
1
290
0
176
1
 90
13
176
1
 40
0.0
176
1
 90
0
176
1
290
0
176
1
290
1
176
1
290
1
176
1
290
0
176
1
290
0
176
1
290
0
176
1
290
0
176
1
290
0
176
1
290
0
176
1
 90
50
176
1
 40
0.0
176
1
 40
1.0
176
1
 90
0
176
1
 62
18
420
0
176
1
 90
50
176
1
 90
3
176
1
 62
5
420
255
176
1
290
0
176
1
 90
50
176
1
 90
50
176
1
 90
50
176
1
290
0
176
1
 90
50
176
1
 62
256
176
0
 40
1.0
176
0
 90
2
176
1
  1
strokes_ogs.tif
176
1
290
0
176
1
 40
1.0
176
1
 40
1.0
176
1
  0
VISUALSTYLE
  5
2A61
102
{ACAD_REACTORS
330
2A35
102
}
330
2A35
100
AcDbVisualStyle
  2
Wireframe
 70
5
177
3
291
0
 70
58
 90
0
176
1
 90
2
176
1
 90
0
176
1
 90
0
176
1
 40
0.6
176
1
 40
30.0
176
1
 62
7
420
16777215
176
1
 90
1
176
1
 90
4
176
1
 62
7
176
1
 62
257
176
1
 90
1
176
1
 90
1
176
1
 40
1.0
176
1
 90
0
176
1
 62
257
176
1
 40
1.0
176
1
 90
1
176
1
 90
6
176
1
 90
2
176
1
 62
7
176
1
 90
3
176
1
 90
0
176
1
 90
0
176
1
290
0
176
1
 90
1
176
1
 40
0.0
176
1
 90
0
176
1
290
0
176
1
290
1
176
1
290
1
176
1
290
0
176
1
290
0
176
1
290
0
176
1
290
0
176
1
290
0
176
1
290
0
176
1
 90
50
176
1
 40
0.0
176
1
 40
1.0
176
1
 90
0
176
1
 62
18
420
0
176
1
 90
50
176
1
 90
3
176
1
 62
5
420
255
176
1
290
0
176
1
 90
50
176
1
 90
50
176
1
 90
50
176
1
290
0
176
1
 90
50
176
1
 62
256
176
0
 40
1.0
176
0
 90
2
176
1
  1
strokes_ogs.tif
176
1
290
0
176
1
 40
1.0
176
1
 40
1.0
176
1
  0
DICTIONARYVAR
  5
2A53
102
{ACAD_REACTORS
330
2A52
102
}
330
2A52
100
DictionaryVariables
280
0
  1
1:1
  0
DICTIONARYVAR
  5
2A54
102
{ACAD_REACTORS
330
2A52
102
}
330
2A52
100
DictionaryVariables
280
0
  1
STANDARD
  0
DICTIONARYVAR
  5
2A55
102
{ACAD_REACTORS
330
2A52
102
}
330
2A52
100
DictionaryVariables
280
0
  1
STANDARD
  0
DICTIONARYVAR
  5
2A56
102
{ACAD_REACTORS
330
2A52
102
}
330
2A52
100
DictionaryVariables
280
0
  1

  0
DICTIONARYVAR
  5
2A57
102
{ACAD_REACTORS
330
2A52
102
}
330
2A52
100
DictionaryVariables
280
0
  1

  0
DICTIONARYVAR
  5
2A58
102
{ACAD_REACTORS
330
2A52
102
}
330
2A52
100
DictionaryVariables
280
0
  1
2
  0
DICTIONARYVAR
  5
2A59
102
{ACAD_REACTORS
330
2A52
102
}
330
2A52
100
DictionaryVariables
280
0
  1
1
  0
DICTIONARYVAR
  5
2A5A
102
{ACAD_REACTORS
330
2A52
102
}
330
2A52
100
DictionaryVariables
280
0
  1
1
  0
DICTIONARYVAR
  5
2A5B
102
{ACAD_REACTORS
330
2A52
102
}
330
2A52
100
DictionaryVariables
280
0
  1
15
  0
DICTIONARYVAR
  5
2A5C
102
{ACAD_REACTORS
330
2A52
102
}
330
2A52
100
DictionaryVariables
280
0
  1
0
  0
DICTIONARYVAR
  5
2ACB
102
{ACAD_REACTORS
330
2A52
102
}
330
2A52
100
DictionaryVariables
280
0
  1
0
  0
DICTIONARY
  5
2A24
330
2A23
100
AcDbDictionary
280
1
281
1
  0
DICTIONARY
  5
2A1E
330
2A1C
100
AcDbDictionary
280
1
281
1
  0
DICTIONARY
  5
2A47
330
2A46
100
AcDbDictionary
280
1
281
1
  3
BUMPTILE
360
2A48
  3
DIFFUSETILE
360
2A49
  3
OPACITYTILE
360
2A4A
  3
REFLECTIONTILE
360
2A4B
  3
REFRACTIONTILE
360
2A4C
  3
SPECULARTILE
360
2A4D
  0
DICTIONARY
  5
2A3F
330
2A3E
100
AcDbDictionary
280
1
281
1
  3
BUMPTILE
360
2A40
  3
DIFFUSETILE
360
2A41
  3
OPACITYTILE
360
2A42
  3
REFLECTIONTILE
360
2A43
  3
REFRACTIONTILE
360
2A44
  3
SPECULARTILE
360
2A45
  0
DICTIONARY
  5
2A13
330
2A11
100
AcDbDictionary
280
1
281
1
  3
BUMPTILE
360
2A14
  3
DIFFUSETILE
360
2A15
  3
OPACITYTILE
360
2A16
  3
REFLECTIONTILE
360
2A17
  3
REFRACTIONTILE
360
2A18
  3
SPECULARTILE
360
2A19
  0
DICTIONARY
  5
2A5F
330
2A5E
100
AcDbDictionary
280
1
281
1
  3
ACAD_ROUNDTRIP_2008_TABLESTYLE_CELLSTYLEMAP
360
2ACC
  0
XRECORD
  5
2A48
102
{ACAD_REACTORS
330
2A47
102
}
330
2A47
100
AcDbXrecord
280
1
270
1
271
1
  0
XRECORD
  5
2A49
102
{ACAD_REACTORS
330
2A47
102
}
330
2A47
100
AcDbXrecord
280
1
270
1
271
1
  0
XRECORD
  5
2A4A
102
{ACAD_REACTORS
330
2A47
102
}
330
2A47
100
AcDbXrecord
280
1
270
1
271
1
  0
XRECORD
  5
2A4B
102
{ACAD_REACTORS
330
2A47
102
}
330
2A47
100
AcDbXrecord
280
1
270
1
271
1
  0
XRECORD
  5
2A4C
102
{ACAD_REACTORS
330
2A47
102
}
330
2A47
100
AcDbXrecord
280
1
270
1
271
1
  0
XRECORD
  5
2A4D
102
{ACAD_REACTORS
330
2A47
102
}
330
2A47
100
AcDbXrecord
280
1
270
1
271
1
  0
XRECORD
  5
2A40
102
{ACAD_REACTORS
330
2A3F
102
}
330
2A3F
100
AcDbXrecord
280
1
270
1
271
1
  0
XRECORD
  5
2A41
102
{ACAD_REACTORS
330
2A3F
102
}
330
2A3F
100
AcDbXrecord
280
1
270
1
271
1
  0
XRECORD
  5
2A42
102
{ACAD_REACTORS
330
2A3F
102
}
330
2A3F
100
AcDbXrecord
280
1
270
1
271
1
  0
XRECORD
  5
2A43
102
{ACAD_REACTORS
330
2A3F
102
}
330
2A3F
100
AcDbXrecord
280
1
270
1
271
1
  0
XRECORD
  5
2A44
102
{ACAD_REACTORS
330
2A3F
102
}
330
2A3F
100
AcDbXrecord
280
1
270
1
271
1
  0
XRECORD
  5
2A45
102
{ACAD_REACTORS
330
2A3F
102
}
330
2A3F
100
AcDbXrecord
280
1
270
1
271
1
  0
XRECORD
  5
2A14
102
{ACAD_REACTORS
330
2A13
102
}
330
2A13
100
AcDbXrecord
280
1
270
1
271
1
  0
XRECORD
  5
2A15
102
{ACAD_REACTORS
330
2A13
102
}
330
2A13
100
AcDbXrecord
280
1
270
1
271
1
  0
XRECORD
  5
2A16
102
{ACAD_REACTORS
330
2A13
102
}
330
2A13
100
AcDbXrecord
280
1
270
1
271
1
  0
XRECORD
  5
2A17
102
{ACAD_REACTORS
330
2A13
102
}
330
2A13
100
AcDbXrecord
280
1
270
1
271
1
  0
XRECORD
  5
2A18
102
{ACAD_REACTORS
330
2A13
102
}
330
2A13
100
AcDbXrecord
280
1
270
1
271
1
  0
XRECORD
  5
2A19
102
{ACAD_REACTORS
330
2A13
102
}
330
2A13
100
AcDbXrecord
280
1
270
1
271
1
  0
CELLSTYLEMAP
  5
2ACC
102
{ACAD_REACTORS
330
2A5F
102
}
330
2A5F
100
AcDbCellStyleMap
 90
3
300
CELLSTYLE
  1
TABLEFORMAT_BEGIN
 90
5
170
1
 91
0
 92
32768
 62
257
 93
1
300
CONTENTFORMAT
  1
CONTENTFORMAT_BEGIN
 90
0
 91
0
 92
4
 93
0
300

 40
0.0
140
1.0
 94
5
 62
0
340
2A2B
144
0.25
309
CONTENTFORMAT_END
171
0
 94
6
 95
1
302
GRIDFORMAT
  1
GRIDFORMAT_BEGIN
 90
0
 91
1
 62
0
 92
-2
340
0
 93
0
 40
0.045
309
GRIDFORMAT_END
 95
2
302
GRIDFORMAT
  1
GRIDFORMAT_BEGIN
 90
0
 91
1
 62
0
 92
-2
340
0
 93
0
 40
0.045
309
GRIDFORMAT_END
 95
4
302
GRIDFORMAT
  1
GRIDFORMAT_BEGIN
 90
0
 91
1
 62
0
 92
-2
340
0
 93
0
 40
0.045
309
GRIDFORMAT_END
 95
8
302
GRIDFORMAT
  1
GRIDFORMAT_BEGIN
 90
0
 91
1
 62
0
 92
-2
340
0
 93
0
 40
0.045
309
GRIDFORMAT_END
 95
16
302
GRIDFORMAT
  1
GRIDFORMAT_BEGIN
 90
0
 91
1
 62
0
 92
-2
340
0
 93
0
 40
0.045
309
GRIDFORMAT_END
 95
32
302
GRIDFORMAT
  1
GRIDFORMAT_BEGIN
 90
0
 91
1
 62
0
 92
-2
340
0
 93
0
 40
0.045
309
GRIDFORMAT_END
309
TABLEFORMAT_END
  1
CELLSTYLE_BEGIN
 90
1
 91
1
300
_TITLE
309
CELLSTYLE_END
300
CELLSTYLE
  1
TABLEFORMAT_BEGIN
 90
5
170
1
 91
0
 92
0
 62
257
 93
1
300
CONTENTFORMAT
  1
CONTENTFORMAT_BEGIN
 90
0
 91
0
 92
4
 93
0
300

 40
0.0
140
1.0
 94
5
 62
0
340
2A2B
144
0.18
309
CONTENTFORMAT_END
171
0
 94
6
 95
1
302
GRIDFORMAT
  1
GRIDFORMAT_BEGIN
 90
0
 91
1
 62
0
 92
-2
340
0
 93
0
 40
0.045
309
GRIDFORMAT_END
 95
2
302
GRIDFORMAT
  1
GRIDFORMAT_BEGIN
 90
0
 91
1
 62
0
 92
-2
340
0
 93
0
 40
0.045
309
GRIDFORMAT_END
 95
4
302
GRIDFORMAT
  1
GRIDFORMAT_BEGIN
 90
0
 91
1
 62
0
 92
-2
340
0
 93
0
 40
0.045
309
GRIDFORMAT_END
 95
8
302
GRIDFORMAT
  1
GRIDFORMAT_BEGIN
 90
0
 91
1
 62
0
 92
-2
340
0
 93
0
 40
0.045
309
GRIDFORMAT_END
 95
16
302
GRIDFORMAT
  1
GRIDFORMAT_BEGIN
 90
0
 91
1
 62
0
 92
-2
340
0
 93
0
 40
0.045
309
GRIDFORMAT_END
 95
32
302
GRIDFORMAT
  1
GRIDFORMAT_BEGIN
 90
0
 91
1
 62
0
 92
-2
340
0
 93
0
 40
0.045
309
GRIDFORMAT_END
309
TABLEFORMAT_END
  1
CELLSTYLE_BEGIN
 90
2
 91
1
300
_HEADER
309
CELLSTYLE_END
300
CELLSTYLE
  1
TABLEFORMAT_BEGIN
 90
5
170
1
 91
0
 92
0
 62
257
 93
1
300
CONTENTFORMAT
  1
CONTENTFORMAT_BEGIN
 90
0
 91
0
 92
4
 93
0
300

 40
0.0
140
1.0
 94
2
 62
0
340
2A2B
144
0.18
309
CONTENTFORMAT_END
171
0
 94
6
 95
1
302
GRIDFORMAT
  1
GRIDFORMAT_BEGIN
 90
0
 91
1
 62
0
 92
-2
340
0
 93
0
 40
0.045
309
GRIDFORMAT_END
 95
2
302
GRIDFORMAT
  1
GRIDFORMAT_BEGIN
 90
0
 91
1
 62
0
 92
-2
340
0
 93
0
 40
0.045
309
GRIDFORMAT_END
 95
4
302
GRIDFORMAT
  1
GRIDFORMAT_BEGIN
 90
0
 91
1
 62
0
 92
-2
340
0
 93
0
 40
0.045
309
GRIDFORMAT_END
 95
8
302
GRIDFORMAT
  1
GRIDFORMAT_BEGIN
 90
0
 91
1
 62
0
 92
-2
340
0
 93
0
 40
0.045
309
GRIDFORMAT_END
 95
16
302
GRIDFORMAT
  1
GRIDFORMAT_BEGIN
 90
0
 91
1
 62
0
 92
-2
340
0
 93
0
 40
0.045
309
GRIDFORMAT_END
 95
32
302
GRIDFORMAT
  1
GRIDFORMAT_BEGIN
 90
0
 91
1
 62
0
 92
-2
340
0
 93
0
 40
0.045
309
GRIDFORMAT_END
309
TABLEFORMAT_END
  1
CELLSTYLE_BEGIN
 90
3
 91
2
300
_DATA
309
CELLSTYLE_END
  0
DICTIONARY
  5
2AED
330
2A10
100
AcDbDictionary
280
1
281
1
  3
WRITTEN_BY_EZDXF
350
2AEE
  0
DICTIONARYVAR
  5
2AEE
330
2AED
100
DictionaryVariables
280
0
  1
1.4.4 @ 2026-09-28T21:42:27.313309+00:00
  0
ENDSEC
  0
SECTION
  2
ACDSDATA
 70
2
 71
8
  0
ACDSSCHEMA
 90
0
  1
AcDb_Thumbnail_Schema
  2
AcDbDs::ID
280
10
 91
8
  2
Thumbnail_Data
280
15
 91
0
101
ACDSRECORD
 95
0
 90
1
  2
AcDbDs::TreatedAsObjectData
280
1
291
1
101
ACDSRECORD
 95
0
 90
2
  2
AcDbDs::Legacy
280
1
291
1
101
ACDSRECORD
  1
AcDbDs::ID
 90
3
  2
AcDs:Indexable
280
1
291
1
101
ACDSRECORD
  1
AcDbDs::ID
 90
4
  2
AcDbDs::HandleAttribute
280
7
282
1
  0
ACDSSCHEMA
 90
1
  1
AcDbDs::TreatedAsObjectDataSchema
  2
AcDbDs::TreatedAsObjectData
280
1
 91
0
  0
ACDSSCHEMA
 90
2
  1
AcDbDs::LegacySchema
  2
AcDbDs::Legacy
280
1
 91
0
  0
ACDSSCHEMA
 90
3
  1
AcDbDs::IndexedPropertySchema
  2
AcDs:Indexable
280
1
 91
0
  0
ACDSSCHEMA
 90
4
  1
AcDbDs::HandleAttributeSchema
  2
AcDbDs::HandleAttribute
280
7
 91
1
284
1
  0
ACDSRECORD
 90
0
  2
AcDbDs::ID
280
10
320
2A23
  2
Thumbnail_Data
280
15
 94
1183
310
89504E470D0A1A0A0000000D4948445200000100000000C508030000008CFEDCE700000300504C5445FFFFFF000000FFFFFF0000000000000000000000000000000000000000000000000000330000660000990000CC0000FF0033000033330033660033990033CC0033FF0066000066330066660066990066CC0066FF0099
310
000099330099660099990099CC0099FF00CC0000CC3300CC6600CC9900CCCC00CCFF00FF0000FF3300FF6600FF9900FFCC00FFFF3300003300333300663300993300CC3300FF3333003333333333663333993333CC3333FF3366003366333366663366993366CC3366FF3399003399333399663399993399CC3399FF33CC00
310
33CC3333CC6633CC9933CCCC33CCFF33FF0033FF3333FF6633FF9933FFCC33FFFF6600006600336600666600996600CC6600FF6633006633336633666633996633CC6633FF6666006666336666666666996666CC6666FF6699006699336699666699996699CC6699FF66CC0066CC3366CC6666CC9966CCCC66CCFF66FF0066
310
FF3366FF6666FF9966FFCC66FFFF9900009900339900669900999900CC9900FF9933009933339933669933999933CC9933FF9966009966339966669966999966CC9966FF9999009999339999669999999999CC9999FF99CC0099CC3399CC6699CC9999CCCC99CCFF99FF0099FF3399FF6699FF9999FFCC99FFFFCC0000CC00
310
33CC0066CC0099CC00CCCC00FFCC3300CC3333CC3366CC3399CC33CCCC33FFCC6600CC6633CC6666CC6699CC66CCCC66FFCC9900CC9933CC9966CC9999CC99CCCC99FFCCCC00CCCC33CCCC66CCCC99CCCCCCCCCCFFCCFF00CCFF33CCFF66CCFF99CCFFCCCCFFFFFF0000FF0033FF0066FF0099FF00CCFF00FFFF3300FF3333
310
FF3366FF3399FF33CCFF33FFFF6600FF6633FF6666FF6699FF66CCFF66FFFF9900FF9933FF9966FF9999FF99CCFF99FFFFCC00FFCC33FFCC66FFCC99FFCCCCFFCCFFFFFF00FFFF33FFFF66FFFF99FFFFCCFFFFFF0000000D0D0D1A1A1A2828283535354343435050505D5D5D6B6B6B787878868686939393A1A1A1AEAEAEBB
310
BBBBC9C9C9D6D6D6E4E4E4F1F1F1FFFFFF000000000000000000000000000000000000000000000000000000000000790CAC0F0000015A4944415478DAEDD8410A8340100440FFFFCCF9C09EE61E104224896014844D579F64F420A587DE592A3A632CD5C101100F500500C0F36ACDF6D636BFCEEBAEF9E9177D0788FBF600
310
000000000000004D1000000000000000100F50FB4F4C9E8B5578FAFF0300000000000000000000000000000000B00BD069000D0000000000000000A009020000000000000000000000000000000052013A0DA001000000000000000000A8C2000000000000000000000000000000402A40FC420400000000000000002016C0
310
5900000000000000000000000000000000C803885F88000000000000000000C402380B0000000000000000000000000000000000E2003A0DA0010000000000000000344100000000000000000000000000000000C0E7C660F21C04080D0000000000000000C01F54DE73151900000000000000D0AFCDCFB6227CDDAB1C9CD7
310
5DF3D32FAA0902000000C00A109E658C110DF0000E6CC6FBCCF8EC2E0000000049454E44AE426082
  0
ACDSRECORD
 90
0
  2
AcDbDs::ID
280
10
320
2A1C
  2
Thumbnail_Data
280
15
 94
1017
310
89504E470D0A1A0A0000000D4948445200000100000000890803000000F46416F000000300504C5445FEFCF0000000FFFFFF0000000000000000000000000000000000000000000000000000330000660000990000CC0000FF0033000033330033660033990033CC0033FF0066000066330066660066990066CC0066FF0099
310
000099330099660099990099CC0099FF00CC0000CC3300CC6600CC9900CCCC00CCFF00FF0000FF3300FF6600FF9900FFCC00FFFF3300003300333300663300993300CC3300FF3333003333333333663333993333CC3333FF3366003366333366663366993366CC3366FF3399003399333399663399993399CC3399FF33CC00
310
33CC3333CC6633CC9933CCCC33CCFF33FF0033FF3333FF6633FF9933FFCC33FFFF6600006600336600666600996600CC6600FF6633006633336633666633996633CC6633FF6666006666336666666666996666CC6666FF6699006699336699666699996699CC6699FF66CC0066CC3366CC6666CC9966CCCC66CCFF66FF0066
310
FF3366FF6666FF9966FFCC66FFFF9900009900339900669900999900CC9900FF9933009933339933669933999933CC9933FF9966009966339966669966999966CC9966FF9999009999339999669999999999CC9999FF99CC0099CC3399CC6699CC9999CCCC99CCFF99FF0099FF3399FF6699FF9999FFCC99FFFFCC0000CC00
310
33CC0066CC0099CC00CCCC00FFCC3300CC3333CC3366CC3399CC33CCCC33FFCC6600CC6633CC6666CC6699CC66CCCC66FFCC9900CC9933CC9966CC9999CC99CCCC99FFCCCC00CCCC33CCCC66CCCC99CCCCCCCCCCFFCCFF00CCFF33CCFF66CCFF99CCFFCCCCFFFFFF0000FF0033FF0066FF0099FF00CCFF00FFFF3300FF3333
310
FF3366FF3399FF33CCFF33FFFF6600FF6633FF6666FF6699FF66CCFF66FFFF9900FF9933FF9966FF9999FF99CCFF99FFFFCC00FFCC33FFCC66FFCC99FFCCCCFFCCFFFFFF00FFFF33FFFF66FFFF99FFFFCCFFFFFF0000000D0D0D1A1A1A2828283535354343435050505D5D5D6B6B6B787878868686939393A1A1A1AEAEAEBB
310
BBBBC9C9C9D6D6D6E4E4E4F1F1F1FFFFFF0000000000000000000000000000000000000000000000000000000000007C77BAA7000000B44944415478DAEDD0310100000C0220FBB7B48931760C22903E1701020408102040800001020408102040800001020408102040800001020408102040800001020408102040800001
310
020408102040800001020408102040800001020408102040800001020408102040800001020408102040800001020408102040800001020408102040800001020408102040800001020408102040800001020408102040800001020408102040800001020408102040C099016B33700943E05F3C0000000049454E44AE4260
310
82
  0
ENDSEC
  0
EOF
